<svg width="1201" height="401" viewBox="0 0 1201 401" fill="none" xmlns="http://www.w3.org/2000/svg">
<path d="M1072.56 1.11629C1084.49 35.3027 1092.88 67.5436 1097.75 97.7926C1102.62 128.088 1104.39 164.544 1103.04 207.254C1101.14 262.657 1084.58 290.358 1053.31 290.358C1043.71 290.358 1035.41 287.949 1028.45 283.178C1021.49 278.36 1016.15 271.875 1012.4 263.629C1008.69 255.384 1005.99 246.629 1004.37 237.364C1002.75 228.099 1001.91 218.094 1001.91 207.254C1001.91 164.961 1004.32 128.69 1009.1 98.4875C1013.93 68.2848 1021.67 35.8123 1032.34 1.06999H782.305L791.63 29.6513C797.846 48.6901 804.108 72.8708 810.417 102.101C816.726 131.377 819.834 156.252 819.834 176.82C819.834 186.131 818.906 200.954 817.005 221.197C785.599 189.188 760.688 153.427 742.179 113.959C723.716 74.4921 714.484 36.8777 714.484 1.02362H593.918L598 9.73239C600.83 15.5228 604.309 23.9536 608.345 34.9785C612.427 46.0034 616.51 58.2326 620.731 71.6663C624.906 85.1 628.664 100.85 632.004 118.777C635.297 136.75 637.385 154.26 638.174 171.261C639.241 188.03 638.684 207.393 636.457 229.35C634.23 251.307 631.447 270.948 628.153 288.227C624.813 305.505 620.87 323.432 616.278 341.962C614.329 349.744 612.659 356.414 611.221 362.02C597.212 332.79 585.151 301.707 575.038 268.771C561.167 223.513 552.307 177.515 548.457 130.821C544.606 84.1273 547.946 40.8615 558.523 0.977324H372.78C383.867 40.7225 387.439 84.0347 383.45 130.914C379.46 177.793 370.507 223.745 356.544 268.771C346.848 300.039 335.344 329.732 322.03 357.897C318.319 347.52 314.515 336.171 310.618 323.71C306.443 310.323 302.639 294.758 299.253 276.97C295.866 259.182 293.64 241.95 292.573 225.181C291.506 208.134 292.109 188.54 294.382 166.397C296.701 144.255 299.485 124.475 302.825 107.104C306.118 89.7324 310.062 71.759 314.608 53.1835C319.154 34.6079 322.355 22.147 324.257 15.8934C326.159 9.59343 327.643 4.63685 328.71 0.977324H188.661L197.985 29.5587C204.201 48.5975 210.464 72.7781 216.773 102.008C223.082 131.284 226.19 156.16 226.19 176.727C226.19 186.038 225.262 200.862 223.36 221.105C191.954 189.095 167.043 153.334 148.534 113.867C130.071 74.3994 120.839 36.7851 120.839 0.931027H0.273438L4.35572 9.63972C7.18547 15.4301 10.6647 23.8609 14.7005 34.8858C18.7828 45.9107 22.8651 58.1401 27.0865 71.5738C31.2616 85.0075 35.0191 100.757 38.3591 118.684C41.6528 136.658 43.7403 154.168 44.5289 171.168C45.5958 187.937 45.0392 207.3 42.8125 229.258C40.5858 251.215 37.8025 270.856 34.5088 288.134C31.1688 305.413 27.2257 323.34 22.6331 341.869C18.0406 360.398 14.8397 372.766 12.9841 379.066C11.175 385.366 9.69049 390.323 8.62354 393.982H148.487L140.787 355.488C135.638 329.964 130.071 297.769 124.04 258.997C118.01 220.225 114.206 187.706 112.582 161.487C125.432 172.558 137.54 185.482 148.812 200.213C160.131 214.944 169.641 229.258 177.434 243.062C185.228 256.912 192.418 271.736 199.052 287.439C205.686 303.189 210.835 316.716 214.592 328.065C218.303 339.414 221.643 350.856 224.659 362.344C227.628 373.832 229.483 381.429 230.133 385.135C230.829 388.841 231.339 391.805 231.756 393.936H453.266C435.962 368.134 429.05 338.58 432.576 305.366C434.06 293.091 437.818 282.853 443.849 274.654C449.879 266.501 457.209 262.379 465.883 262.379C474.558 262.379 482.12 266.501 489.032 274.747C495.944 282.992 499.701 293.183 500.397 305.366C502.299 339.692 494.923 369.2 478.269 393.936H742.318L734.617 355.442C729.468 329.918 723.901 297.723 717.87 258.951C711.84 220.178 708.036 187.659 706.412 161.441C719.262 172.512 731.37 185.436 742.642 200.167C753.961 214.897 763.471 229.211 771.265 243.016C779.058 256.866 786.248 271.69 792.882 287.393C799.516 303.143 804.665 316.669 808.423 328.018C812.134 339.368 815.474 350.809 818.489 362.297C821.458 373.786 823.313 381.383 823.963 385.088C824.659 388.794 825.169 391.759 825.587 393.89H930.937L926.855 385.366C924.164 379.576 920.777 371.145 916.788 360.12C912.799 349.095 908.716 336.912 904.495 323.525C900.32 310.138 896.516 294.573 893.13 276.785C889.743 258.997 887.516 241.765 886.449 224.996C885.382 207.949 885.985 188.354 888.259 166.212C890.578 144.069 893.361 124.289 896.701 106.918C899.995 89.5471 903.938 71.5737 908.484 52.9981C910.479 44.799 912.195 37.8505 913.726 32.0601C916.092 41.371 918.644 52.257 921.334 64.7643C925.509 84.1736 928.432 101.637 930.055 117.156C930.89 125.401 931.262 137.399 931.262 153.149C931.262 168.899 931.076 187.011 930.659 207.486C930.241 227.961 930.055 242.135 930.055 249.964C930.055 350.531 971.203 400.792 1053.5 400.792C1072.29 400.792 1088.94 397.966 1103.32 392.269C1117.75 386.571 1129.39 379.113 1138.34 369.756C1147.3 360.445 1154.58 349.095 1160.29 335.708C1165.99 322.321 1169.89 308.748 1172.07 294.944C1174.25 281.139 1175.32 266.177 1175.32 249.964C1175.32 242.135 1175.13 227.961 1174.71 207.486C1174.3 187.011 1174.11 168.899 1174.11 153.149C1174.11 137.399 1174.53 125.401 1175.32 117.156C1176.94 101.221 1180 82.9692 1184.55 62.4017C1189.09 41.8806 1192.48 27.6594 1194.71 19.7382C1196.93 11.8169 1198.79 5.51695 1200.27 0.791992H1072.8L1072.56 1.11629ZM486.295 221.383C479.058 224.023 472.192 225.32 465.698 225.32C459.203 225.32 452.291 224.023 445.008 221.383C437.679 218.742 432.576 215.963 429.561 212.952L465.698 75.9281L501.65 212.952C498.681 215.916 493.578 218.742 486.341 221.383H486.295Z" fill="#F6E7E0"/>
</svg>
