<svg width="467" height="190" viewBox="0 0 467 190" fill="none" xmlns="http://www.w3.org/2000/svg">
<path d="M253.8 84.6999C253 114.3 246.6 138.2 230.3 158.6C212.7 180.6 189.5 190 161.5 188.1C145.6 187 131 182.6 118 173.1C103.6 162.6 94.1001 148.6 89.0001 131.7C79.4001 99.8999 82.7001 69.1999 99.5001 40.3999C112.1 18.7999 130.8 4.79994 156 1.49994C183.1 -2.10006 208.1 3.29994 228.6 22.9999C240.2 34.1999 247.3 47.9999 250.7 63.5999C252.5 71.6999 253.2 79.9999 253.8 84.5999V84.6999ZM197.3 144.2C196.7 136.5 196.3 128.7 195.3 121C192.4 97.7999 187 75.1999 179 53.1999C175 42.0999 170.5 31.1999 163.2 21.6999C161 18.8999 158.3 16.2999 155.3 14.2999C151 11.3999 146.9 12.6999 144.5 17.2999C143.7 18.7999 143.1 20.3999 142.7 21.9999C140.2 31.8999 140.1 41.9999 140.7 52.1999C141.7 68.4999 144.4 84.5999 148.3 100.4C152.6 118.3 157.9 135.8 165.8 152.4C169.2 159.6 172.9 166.7 178.8 172.3C185.7 178.8 191.5 177.2 194.2 168.2C196.6 160.4 196.8 152.3 197.2 144.2H197.3ZM8.50009 186.1H69.8001V0.799942C68.8001 0.999942 68.0001 1.09994 67.2001 1.29994C54.7001 4.49994 42.2001 7.69994 29.7001 10.9999C21.2001 13.1999 12.7001 15.3999 4.20009 17.6999C3.00009 17.9999 1.30009 18.8999 1.10009 19.7999C0.70009 22.4999 1.00009 25.3999 1.00009 28.3999C3.60009 27.8999 5.90009 27.4999 8.50009 26.9999V186.2V186.1Z" fill="#FBE7E0"/>
<path d="M311.7 33.8999C311.7 43.8999 305.7 54.8999 293.9 54.8999C282.1 54.8999 276.1 45.8999 276.1 35.8999C276.1 25.8999 282.1 15.3999 293.9 15.3999C305.7 15.3999 311.7 24.0999 311.7 33.7999V33.8999ZM299.7 45.5999C299.7 35.5999 294.5 17.9999 290.1 17.9999C285.7 17.9999 288 20.7999 288 24.5999C288 34.5999 293.3 52.2999 297.6 52.2999C301.9 52.2999 299.7 49.4999 299.7 45.5999ZM351.6 16.4999L304.7 93.2999H288.5L335.4 16.4999H351.6ZM364.2 73.2999C364.2 83.2999 358.1 94.2999 346.3 94.2999C334.5 94.2999 328.5 85.2999 328.5 75.2999C328.5 65.2999 334.5 54.7999 346.3 54.7999C358.1 54.7999 364.2 63.4999 364.2 73.1999V73.2999ZM352.3 85.0999C352.3 75.0999 347 57.4999 342.6 57.4999C338.2 57.4999 340.5 60.2999 340.5 64.0999C340.5 74.0999 345.9 91.7999 350.2 91.7999C354.5 91.7999 352.3 88.9999 352.3 85.0999Z" fill="#FBE7E0"/>
<path d="M457 53.8C457 54.5 457 55.3 456.8 56C456.6 57.5 455.8 58.5001 454.3 58.9001C453.6 59.1001 452.9 59.3001 452.1 59.4001C450.8 59.6001 449.4 59.7001 448.1 59.9001C447.4 59.9001 446.6 60.1001 445.9 60.3001C444.7 60.6001 444.1 61.6 444.8 62.7C445.2 63.3 445.6 63.9 446.1 64.5C447.1 65.8 448.1 67.1001 449.1 68.4001C449.5 68.9001 449.7 69.4001 450 69.9001C450.5 70.9001 450.4 71.9001 450 72.9001C449.8 73.3001 449.6 73.7 449.2 74C447.8 75.4 446.5 76.8 445.1 78.1C444.9 78.3 444.6 78.5 444.4 78.6C443.3 79.3 442.1 79.4 441 78.7C440.2 78.3 439.5 77.8 438.8 77.2C437.4 76.1 436 75.0001 434.6 73.9001C434.3 73.6001 433.8 73.5001 433.4 73.3001C432.9 73.1001 432.1 73.5 431.9 74C431.7 74.4 431.6 74.8001 431.5 75.3001C431.3 77.1001 431.1 78.9 430.8 80.6C430.7 81.5 430.6 82.4 430.2 83.2C429.7 84.4 428.8 85.1001 427.6 85.4001C427.3 85.4001 427 85.5001 426.7 85.6001C424.8 85.7001 422.8 85.7001 420.9 85.6001C420.6 85.6001 420.3 85.5001 420 85.4001C418.7 85.1001 417.9 84.3 417.5 83.1C417.2 82.3 417.1 81.4 416.9 80.5C416.7 78.7 416.5 76.9 416.2 75.2C416.2 74.8 415.9 74.4 415.7 74C415.6 73.7 414.9 73.3001 414.6 73.4001C414.3 73.4001 414 73.4 413.7 73.6C413.2 73.9 412.7 74.2 412.2 74.6C411 75.5 409.9 76.5001 408.7 77.4001C408.1 77.9001 407.5 78.3 406.8 78.7C405.5 79.5 403.9 79.4001 402.6 78.4001C400.9 77.0001 399.3 75.4 397.9 73.6C397.9 73.5 397.7 73.4 397.7 73.2C397 72.1 396.9 70.9001 397.5 69.8001C397.9 69.0001 398.4 68.3 399 67.5C400.1 66.1 401.2 64.7001 402.3 63.3001C402.6 63.0001 402.7 62.5 402.9 62.1C403.1 61.6 402.7 60.7 402.3 60.6C401.9 60.4 401.5 60.2 401 60.2C399.5 60 398 59.9 396.5 59.7C395.5 59.6 394.4 59.4 393.4 59.2C391.8 58.8 390.9 57.7 390.6 56C390.6 55.9 390.6 55.7 390.6 55.6C390.5 53.7 390.4 51.7 390.6 49.8C390.6 49.4 390.7 48.9 390.9 48.5C391.2 47.6 391.8 46.9 392.7 46.6C393.4 46.3 394.1 46.1 394.8 46C396.7 45.7 398.7 45.5 400.6 45.3C401.2 45.3 401.8 45 402.3 44.8C402.6 44.6 402.9 44.0001 402.9 43.7001C402.9 43.4001 402.9 43.1 402.7 42.8C402.3 42.2 401.9 41.6 401.4 41C400.3 39.6 399.2 38.2001 398.1 36.7001C397.8 36.2001 397.5 35.7 397.3 35.1C397 34.2 397.1 33.3 397.5 32.5C397.7 32.1 397.9 31.7001 398.3 31.4001C399.7 30.0001 401 28.6 402.4 27.3C402.7 27 403.1 26.8 403.5 26.6C404.3 26.2 405.2 26.1 406.1 26.5C406.8 26.8 407.5 27.2 408 27.6C409.4 28.7 410.8 29.8001 412.2 30.9001C412.7 31.3001 413.2 31.6001 413.7 31.9001C414.4 32.3001 415.7 31.8001 415.8 30.9001C416 30.2001 416.1 29.4001 416.2 28.7001C416.4 27.1001 416.6 25.4 416.8 23.8C416.8 23.2 417 22.6 417.3 22.1C417.8 20.9 418.7 20.2 419.9 19.9C420.2 19.9 420.5 19.8 420.8 19.8C422.6 19.8 424.4 19.8 426.2 19.8C426.6 19.8 427.1 19.8 427.5 20C428.6 20.3 429.4 20.9 429.8 21.9C430.1 22.6 430.3 23.3 430.4 24.1C430.7 25.9 430.8 27.7001 431.1 29.4001C431.1 30.0001 431.4 30.6 431.5 31.1C431.7 31.7 432.8 32.2001 433.3 31.9001C433.7 31.7001 434.1 31.5001 434.5 31.2001C435.8 30.2001 437.1 29.1001 438.4 28.2001C439.1 27.7001 439.9 27.1001 440.6 26.7001C441.9 26.0001 443.2 26.1001 444.4 26.9001C444.7 27.1001 444.9 27.2001 445.1 27.4001C446.4 28.7001 447.7 29.9001 448.9 31.2001C450.5 32.9001 450.6 34.7 449.3 36.5C448.3 38 447.1 39.4 446 40.8C445.5 41.5 444.9 42.2 444.5 43C444.2 43.6 444.5 44.6001 445.2 44.9001C445.6 45.1001 446 45.2 446.5 45.3C447.8 45.5 449.2 45.6 450.5 45.8C451.2 45.8 452 46 452.7 46.1C455.6 46.6 456.7 47.8 456.8 50.5C456.8 51.7 456.8 52.9 456.8 54.1L457 53.8Z" fill="#FBE7E0"/>
<path d="M350 147.3C350 167.3 337.3 189.4 312.3 189.4C287.3 189.4 274.6 171.5 274.6 151.6C274.6 131.7 287.3 110.6 312.3 110.6C337.3 110.6 350 128 350 147.4V147.3ZM326.2 170.8C326.2 150.9 314.4 115.6 304.7 115.6C295 115.6 298.3 120.9 298.3 128.7C298.3 148.6 310.5 184.2 319.8 184.2C329.1 184.2 326.2 178.7 326.2 170.8Z" fill="#6BC8E9"/>
<path d="M380.8 147.6C386.1 145.7 390.9 142.2 395.4 137.6V160C390.8 155.4 385.9 152.1 380.8 150.1V188.4H355V111.6H406.9C406.9 120 407.6 128 408.2 136.1C400 126.4 391.2 118.2 380.8 114.2V147.6Z" fill="#6BC8E9"/>
<path d="M439.2 147.6C444.5 145.7 449.3 142.2 453.8 137.6V160C449.2 155.4 444.3 152.1 439.2 150.1V188.4H413.4V111.6H465.3C465.3 120 466 128 466.6 136.1C458.4 126.4 449.6 118.2 439.2 114.2V147.6Z" fill="#6BC8E9"/>
<path d="M252.092 105.8C249.195 125.994 242.538 143.283 230.3 158.6C212.7 180.6 189.5 190 161.5 188.1C145.6 187 131 182.6 118 173.1C103.6 162.6 94.0998 148.6 88.9998 131.7C86.3669 122.978 84.7043 114.34 84.0244 105.8H149.632C153.695 121.819 158.696 137.473 165.8 152.4C169.2 159.6 172.9 166.7 178.8 172.3C185.7 178.8 191.5 177.2 194.2 168.2C196.401 161.046 196.752 153.64 197.103 146.213C197.135 145.542 197.167 144.871 197.2 144.2H197.3C197.147 142.241 197.007 140.276 196.868 138.308C196.457 132.538 196.045 126.741 195.3 121C194.663 115.904 193.905 110.838 193.026 105.8L252.092 105.8Z" fill="#6BC8E9"/>
<path d="M69.8 105.8V186H8.5V105.8H69.8Z" fill="#6BC8E9"/>
</svg>
