<svg width="80" height="80" viewBox="0 0 80 80" fill="none" xmlns="http://www.w3.org/2000/svg">
<path d="M69.3677 25.7701C74.3623 13.4446 66.5557 5.63527 54.2306 10.6325C52.8623 11.1866 51.2755 10.5597 50.7006 9.19918C45.5213 -3.06639 34.4787 -3.06639 29.2994 9.19918C28.7245 10.5597 27.1377 11.1866 25.7694 10.6325C13.4443 5.63787 5.63513 13.4446 10.6323 25.7701C11.1864 27.1384 10.5595 28.7252 9.19895 29.3001C-3.06632 34.4795 -3.06632 45.5224 9.19895 50.7018C10.5595 51.2767 11.1864 52.8636 10.6323 54.2319C5.63773 66.5573 13.4443 74.3667 25.7694 69.3694C27.1377 68.8153 28.7245 69.4422 29.2994 70.8028C34.4787 83.0657 45.5213 83.0657 50.7006 70.8028C51.2755 69.4422 52.8623 68.8153 54.2306 69.3694C66.5557 74.3641 74.3649 66.5573 69.3677 54.2319C68.8136 52.8636 69.4406 51.2767 70.801 50.7018C83.0663 45.5224 83.0663 34.4795 70.801 29.3001C69.4406 28.7252 68.8136 27.1384 69.3677 25.7701Z" fill="#8DC8E8"/>
<path d="M46.6739 35.6805L32.3527 50.0017L30 47.6489L44.3211 33.3278H31.6972V30H50V48.3028H46.6722L46.6739 35.6805Z" fill="#532826"/>
</svg>
