<svg id="Capa_1" data-name="Capa 1" xmlns="http://www.w3.org/2000/svg" viewBox="0 0 150 116"><path d="M13.56,80.25C7.47,83.07,7.69,92.11,10,97.36c1.9,4.35,8.22,12,16.32,8,5.22-4.33,4.68-12.68,2-17.73C26,83.31,20.11,78,13.56,80.25Z" style="fill:#edd3c5"/><path d="M34,89.84c2.73-3,1.3-6.09-2.77-6a.85.85,0,0,1-.87-.78c-.2-4.08-3.38-5.24-6.16-2.25a.83.83,0,0,1-1.16,0c-3-2.73-6.09-1.3-5.95,2.77a.83.83,0,0,1-.78.87c-4.07.21-5.23,3.39-2.25,6.17a.83.83,0,0,1,.05,1.17c-2.73,3-1.3,6.09,2.77,6a.82.82,0,0,1,.86.78c.21,4.08,3.39,5.24,6.16,2.25a.84.84,0,0,1,1.17,0c3,2.74,6.09,1.31,5.95-2.77a.84.84,0,0,1,.78-.87C35.82,97,37,93.79,34,91A.84.84,0,0,1,34,89.84Z" style="fill:#8dc8e8"/><path d="M44.79,96c-.35-.62-.7-1.25-1.06-1.86L42.44,92c-1.08-1.73-2.19-3.45-3.29-5.17C38.56,85.9,38,85,37.39,84l-1-1.67-.61-1c-2-3.14-4.1-6.21-6.25-9.23l-15.94,8.1c7.17-1.26,12,3.31,14.3,7.63,2.72,5,3.13,12.74-1.55,17.48L44.79,96Z" style="fill:#f6e7e0"/><path d="M17.56,56.14C11.47,59,11.69,68,14,73.25c1.9,4.36,8.22,12,16.32,8,5.22-4.33,4.68-12.68,2-17.74C30,59.2,24.12,53.92,17.56,56.14Z" style="fill:#edd3c5"/><path d="M38,65.74c2.73-3,1.3-6.1-2.77-6a.84.84,0,0,1-.87-.78c-.2-4.08-3.38-5.23-6.16-2.25a.82.82,0,0,1-1.16,0c-3-2.74-6.09-1.3-5.95,2.77a.84.84,0,0,1-.78.87c-4.07.2-5.23,3.38-2.24,6.16a.84.84,0,0,1,0,1.17c-2.73,3-1.3,6.1,2.77,6a.85.85,0,0,1,.87.79c.2,4.07,3.38,5.23,6.16,2.24a.83.83,0,0,1,1.16,0c3,2.73,6.09,1.3,5.95-2.77a.83.83,0,0,1,.78-.87C39.82,72.86,41,69.68,38,66.9A.83.83,0,0,1,38,65.74Z" style="fill:#8dc8e8"/><path d="M109.14,9.59,17.56,56.14c7.17-1.26,12,3.31,14.31,7.63,2.72,5.06,3.12,12.75-1.56,17.49L121.88,34.7c4.21-4.07,3.47-11.09.76-16.41S114.66,8.86,109.14,9.59Z" style="fill:#f6e7e0"/><path d="M26.92,51.34c.73.19,17.43,12.81,48.35-4,31.36-17.06,29.21-35.41,29.21-35.41Z" style="fill:#edd3c5"/><path d="M116.82,32.51A2.52,2.52,0,1,0,114.3,30,2.51,2.51,0,0,0,116.82,32.51Z" style="fill:#edd3c5"/><path d="M115.59,23.67a1.3,1.3,0,1,0-1.29-1.29A1.3,1.3,0,0,0,115.59,23.67Z" style="fill:#edd3c5"/><path d="M87.52,33.75a1.3,1.3,0,1,0-1.29-1.29A1.29,1.29,0,0,0,87.52,33.75Z" style="fill:#f6e7e0"/><path d="M52.38,48.61a1.3,1.3,0,1,0-1.3-1.29A1.29,1.29,0,0,0,52.38,48.61Z" style="fill:#f6e7e0"/><path d="M44.37,65.15a1.29,1.29,0,1,0-1.29-1.29A1.29,1.29,0,0,0,44.37,65.15Z" style="fill:#edd3c5"/><path d="M35.94,59.84a1.29,1.29,0,1,0-1.29-1.29A1.29,1.29,0,0,0,35.94,59.84Z" style="fill:#edd3c5"/><path d="M110,35.78a1.7,1.7,0,1,0-1.7-1.7A1.7,1.7,0,0,0,110,35.78Z" style="fill:#edd3c5"/><path d="M40,71.68a1.7,1.7,0,1,0-1.7-1.7A1.7,1.7,0,0,0,40,71.68Z" style="fill:#edd3c5"/><path d="M92.41,27.88a1.7,1.7,0,1,0-1.69-1.7A1.7,1.7,0,0,0,92.41,27.88Z" style="fill:#f6e7e0"/><path d="M34.21,79.17C28.12,82,28.34,91,30.63,96.28c1.91,4.36,8.23,12,16.33,8,5.22-4.33,4.68-12.68,2-17.74C46.6,82.23,40.76,77,34.21,79.17Z" style="fill:#edd3c5"/><path d="M54.6,88.76c2.73-3,1.3-6.09-2.77-6A.84.84,0,0,1,51,82c-.2-4.08-3.38-5.23-6.16-2.25a.84.84,0,0,1-1.17,0c-3-2.74-6.08-1.3-5.94,2.77a.85.85,0,0,1-.78.87c-4.08.2-5.23,3.38-2.25,6.16a.84.84,0,0,1,.05,1.17c-2.73,3-1.3,6.1,2.76,6a.83.83,0,0,1,.87.78c.21,4.08,3.39,5.24,6.16,2.25a.84.84,0,0,1,1.17,0c3,2.73,6.09,1.3,5.94-2.77a.84.84,0,0,1,.79-.87c4.07-.21,5.23-3.39,2.24-6.17A.84.84,0,0,1,54.6,88.76Z" style="fill:#8dc8e8"/><path d="M125.79,32.61,34.21,79.17c7.17-1.26,12,3.31,14.3,7.63,2.72,5.06,3.13,12.75-1.55,17.49l91.57-46.56c4.2-4.07,3.47-11.09.76-16.41s-8-9.44-13.51-8.71Z" style="fill:#f6e7e0"/><path d="M43.57,74.37c.73.19,17.43,12.81,48.35-4C123.28,53.31,121.13,35,121.13,35Z" style="fill:#edd3c5"/><path d="M133.46,55.54A2.52,2.52,0,1,0,131,53,2.51,2.51,0,0,0,133.46,55.54Z" style="fill:#edd3c5"/><path d="M132.24,46.7A1.3,1.3,0,1,0,131,45.4,1.3,1.3,0,0,0,132.24,46.7Z" style="fill:#edd3c5"/><path d="M104.16,56.78a1.3,1.3,0,1,0-1.29-1.29A1.3,1.3,0,0,0,104.16,56.78Z" style="fill:#f6e7e0"/><path d="M69,71.64a1.3,1.3,0,1,0-1.29-1.29A1.29,1.29,0,0,0,69,71.64Z" style="fill:#f6e7e0"/><path d="M61,88.18a1.29,1.29,0,1,0-1.29-1.29A1.29,1.29,0,0,0,61,88.18Z" style="fill:#edd3c5"/><path d="M52.59,82.88a1.3,1.3,0,1,0-1.29-1.3A1.3,1.3,0,0,0,52.59,82.88Z" style="fill:#edd3c5"/><path d="M126.6,58.81a1.7,1.7,0,1,0-1.7-1.7A1.7,1.7,0,0,0,126.6,58.81Z" style="fill:#edd3c5"/><path d="M56.63,94.71a1.7,1.7,0,1,0-1.7-1.7A1.7,1.7,0,0,0,56.63,94.71Z" style="fill:#edd3c5"/><path d="M109.06,50.92a1.7,1.7,0,1,0-1.7-1.7A1.7,1.7,0,0,0,109.06,50.92Z" style="fill:#f6e7e0"/><path d="M16.06,75.33a1.84,1.84,0,1,0-1.84-1.83A1.84,1.84,0,0,0,16.06,75.33Z" style="fill:#edd3c5"/></svg>