<svg id="Capa_1" data-name="Capa 1" xmlns="http://www.w3.org/2000/svg" viewBox="0 0 150 116"><path d="M27.24,88.25c.2,2.26.44,5.36.7,8.63-3.78.73-6.72-2.18-6.56-7.72a1.62,1.62,0,0,0-1.53-1.66,10.83,10.83,0,0,1-3.77-.8l-.14-.06c-4.27-1.89-4.77-6.56-.32-10.75a1.61,1.61,0,0,0,.08-2.23C10.54,68,13.21,62.15,20.88,62.4a1.57,1.57,0,0,0,1.61-1.49c.34-7.39,5-10.12,10-5.36a66.78,66.78,0,0,0-5.19,32.7Z" style="fill:#8dc8e8"/><path d="M99.11,18.5a1.22,1.22,0,0,1-1.39-1.16c-.66-6.41-5.82-7.87-9.79-2.75a1.31,1.31,0,0,1-1.81.27c-4.16-3.16-8-1.82-8.76,2.3-.91-4.26-5-5.35-9-1.69a1.28,1.28,0,0,1-1.82-.08c-4.33-4.7-9.42-2.72-9.62,3.74a1.32,1.32,0,0,1-1.3,1.3c-6.38,0-8.38,5-4,9.58a1.76,1.76,0,0,0,.35-.07c.3-.24.64-.45.94-.69a49.05,49.05,0,0,1,24.53-9.92s15.36-1.62,27.92,3.2c0-4.58-2.88-5-6.27-4Z" style="fill:#8dc8e8"/><path d="M28.15,33.81C21.77,43.05,26,54.25,32,57.38A81.05,81.05,0,0,1,39.4,44.33,74.52,74.52,0,0,1,54.25,28.6c-6.58-5.33-18-6.48-26.09,5.21Zm1.06,8.51c.06-.55,1-.91,2.09-.79s1.91.66,1.84,1.22-1,.91-2.09.79S29.14,42.88,29.21,42.32ZM32,49.71c-1,.32-2,.14-2.21-.39s.52-1.22,1.56-1.53,2-.14,2.22.39S33.06,49.4,32,49.71Zm3.46-11.48c-.39.44-1.4.24-2.27-.45s-1.27-1.6-.88-2,1.4-.23,2.27.46S35.86,37.8,35.48,38.23Zm4.17-3.71c-.54.25-1.38-.32-1.88-1.29s-.48-1.94.06-2.2,1.38.32,1.88,1.29.48,1.94-.06,2.2Zm5.06-2c-.59,0-1.08-.87-1.09-2s.45-2,1-2,1.07.87,1.09,2S45.29,32.48,44.71,32.49Z" style="fill:#8dc8e8"/><path d="M120.92,31.61C106.86,20.72,88.75,13.3,64.71,22.45,44,30.32,33.51,53.22,33.51,53.22c-.38.78-.74,1.56-1.08,2.35a66.75,66.75,0,0,0-5.18,32.7c.19,2.25.44,5.35.7,8.61-3.78.74-6.73-2.17-6.57-7.71a1.6,1.6,0,0,0-1.52-1.65,11.07,11.07,0,0,1-3.78-.8l-.14-.07c-1.26,7.14,2.44,13.45,2.44,13.45,6.14,10.3,18.45-.71,18.45-.71C61.77,79.8,82.55,78.72,119.58,83.5c21.31,3,25.84-32.95,1.36-51.89Z" style="fill:#f6e7e0"/><path d="M122.82,73.55A3.55,3.55,0,1,0,119.29,70,3.55,3.55,0,0,0,122.82,73.55Z" style="fill:#edd3c5"/><path d="M124.5,60.06a1.51,1.51,0,1,0-1.5-1.51A1.51,1.51,0,0,0,124.5,60.06Z" style="fill:#edd3c5"/><path d="M99.57,32.69a1.4,1.4,0,1,0-1.39-1.4A1.4,1.4,0,0,0,99.57,32.69Z" style="fill:#edd3c5"/><path d="M92.62,28a1.89,1.89,0,1,0-1.88-1.89A1.89,1.89,0,0,0,92.62,28Z" style="fill:#edd3c5"/><path d="M112.4,73.1a1.69,1.69,0,1,0-1.68-1.68A1.68,1.68,0,0,0,112.4,73.1Z" style="fill:#edd3c5"/><path d="M45.47,81.62a3.28,3.28,0,1,0-3.27-3.28A3.28,3.28,0,0,0,45.47,81.62Z" style="fill:#edd3c5"/><path d="M40.44,65.92a1.69,1.69,0,1,0-1.68-1.69A1.69,1.69,0,0,0,40.44,65.92Z" style="fill:#edd3c5"/><path d="M36.82,87.74a2.22,2.22,0,1,0-2.21-2.21A2.2,2.2,0,0,0,36.82,87.74Z" style="fill:#edd3c5"/></svg>