<svg id="Capa_1" data-name="Capa 1" xmlns="http://www.w3.org/2000/svg" viewBox="0 0 150 116"><path d="M22.38,9.61A2.37,2.37,0,1,0,20,7.25,2.36,2.36,0,0,0,22.38,9.61Z" style="fill:#edd5ca"/><path d="M24,15.47a1.21,1.21,0,1,0-1.21-1.21A1.21,1.21,0,0,0,24,15.47Z" style="fill:#edd5ca"/><path d="M34.75,29.28a1,1,0,1,0-1-1A1,1,0,0,0,34.75,29.28Z" style="fill:#edd5ca"/><path d="M29.16,8.8a1,1,0,1,0-1-1A1,1,0,0,0,29.16,8.8Z" style="fill:#edd5ca"/><path d="M55.72,42.86A94.68,94.68,0,0,1,70.61,5.47,2.24,2.24,0,0,0,69.19,2C54.75.1,41-.19,28.52,2.28a2.21,2.21,0,0,0-1.6,2.77c4,14.29,13.82,28.7,25.45,39.1a2,2,0,0,0,3.34-1.29Z" style="fill:#f6e7e0"/><path d="M53.77,29.51a1.22,1.22,0,1,0-1.21-1.21A1.21,1.21,0,0,0,53.77,29.51Z" style="fill:#edd5ca"/><path d="M62.93,8.24A1.22,1.22,0,1,0,61.72,7,1.22,1.22,0,0,0,62.93,8.24Z" style="fill:#edd5ca"/><path d="M51,35.81A1.85,1.85,0,1,0,49.12,34,1.85,1.85,0,0,0,51,35.81Z" style="fill:#edd5ca"/><path d="M89.17,51.51c1.8-6.27-2.4-9.68-8.15-6.62a1.33,1.33,0,0,1-1.79-.52c-3.15-5.72-8.53-5.16-10.43,1.09a1.32,1.32,0,0,1-1.65.88c-6.26-1.81-9.66,2.4-6.6,8.16A1.33,1.33,0,0,1,60,56.29c-5.72,3.16-5.16,8.54,1.09,10.45A1.33,1.33,0,0,1,62,68.39c-1.8,6.27,2.4,9.68,8.14,6.62a1.34,1.34,0,0,1,1.8.52c3.15,5.72,8.52,5.16,10.43-1.09A1.32,1.32,0,0,1,84,73.56c6.26,1.81,9.67-2.4,6.61-8.16a1.34,1.34,0,0,1,.52-1.79c5.72-3.16,5.16-8.54-1.09-10.45A1.32,1.32,0,0,1,89.17,51.51Z" style="fill:#8dc8e8"/><path d="M65.22,68.65c4.64-4,3-8.89-3.07-9.42A1.27,1.27,0,0,1,61,57.9c.44-6.14-4.11-8.45-8.81-4.48a1.25,1.25,0,0,1-1.75-.15c-4-4.64-8.88-3.06-9.41,3.07a1.26,1.26,0,0,1-1.33,1.16c-6.13-.43-8.44,4.12-4.47,8.83a1.26,1.26,0,0,1-.15,1.75c-4.64,4-3,8.9,3.07,9.42a1.26,1.26,0,0,1,1.15,1.33c-.43,6.14,4.12,8.46,8.82,4.48a1.27,1.27,0,0,1,1.75.15c4,4.65,8.88,3.06,9.4-3.07a1.27,1.27,0,0,1,1.33-1.16c6.14.44,8.45-4.12,4.48-8.82A1.26,1.26,0,0,1,65.22,68.65Z" style="fill:#8dc8e8"/><path d="M113.24,72.6c6.05-1.06,7.19-6,2.21-9.65a1.27,1.27,0,0,1-.31-1.74c3.53-5,.82-9.37-5.25-8.39a1.24,1.24,0,0,1-1.42-1c-1.07-6.06-6-7.2-9.64-2.21a1.26,1.26,0,0,1-1.73.3c-5-3.53-9.36-.82-8.38,5.26a1.26,1.26,0,0,1-1,1.43c-6,1.07-7.19,6-2.22,9.65A1.26,1.26,0,0,1,85.78,68C82.25,73,85,77.33,91,76.35a1.26,1.26,0,0,1,1.43,1c1.06,6.06,6,7.2,9.63,2.22a1.26,1.26,0,0,1,1.74-.31c5,3.54,9.36.82,8.38-5.26A1.26,1.26,0,0,1,113.24,72.6Z" style="fill:#8dc8e8"/><path d="M123.16,57.92c0,.44,0,.88,0,1.32a2.28,2.28,0,0,0-.57.1c-32.26,9.15-64,12.21-95.2,8.28-.07-.47-.15-1-.22-1.43A2.78,2.78,0,0,1,30.22,63c29.29,3.77,59.13.93,89.43-7.66A2.74,2.74,0,0,1,123.16,57.92Z" style="fill:#f6e7e0"/><path d="M123.14,59.24a51.56,51.56,0,0,1-.57,6.44c-31.71,8.57-63,11.64-93.71,8.5a56.85,56.85,0,0,1-1.49-6.56c31.18,3.93,62.94.87,95.2-8.28A2.28,2.28,0,0,1,123.14,59.24Z" style="fill:#edd5ca"/><path d="M122.18,65.8c-31.6,8.58-62.75,11.66-93.4,8.52C31.39,83.31,36,89.85,42,94.43c2.31,7.74,4.81,14.63,7.72,19.7.59,1.23,3.8,1.93,5,.79,3.72-3.12,6.39-7.5,9.24-12.14a80.22,80.22,0,0,0,14.54.44A68.57,68.57,0,0,0,90,101.64a70,70,0,0,0,11.16,10.22c1.07,1,4,.26,4.72-1.56a110.35,110.35,0,0,0,5-20c5.56-5.91,9.36-14,11.27-24.45Z" style="fill:#f6e7e0"/></svg>