<svg width="80" height="80" viewBox="0 0 80 80" fill="none" xmlns="http://www.w3.org/2000/svg">
<path fillRule="evenodd" clipRule="evenodd" d="M54.2306 10.6326C66.5557 5.63525 74.3623 13.4447 69.3678 25.77C68.8136 27.1384 69.4406 28.7252 70.801 29.3002C83.0663 34.4795 83.0663 45.5225 70.801 50.7018C69.4406 51.2767 68.8136 52.8635 69.3678 54.2319C74.3649 66.5573 66.5557 74.3641 54.2306 69.3694C52.8623 68.8153 51.2755 69.4423 50.7006 70.8027C45.5213 83.0658 34.4787 83.0658 29.2995 70.8027C28.7246 69.4423 27.1377 68.8153 25.7694 69.3694C13.4444 74.3667 5.63777 66.5573 10.6323 54.2319C11.1864 52.8635 10.5595 51.2767 9.19899 50.7018C-3.06633 45.5225 -3.06633 34.4795 9.19899 29.3002C10.5595 28.7252 11.1864 27.1384 10.6323 25.77C5.63515 13.4447 13.4444 5.63782 25.7694 10.6326C27.1377 11.1866 28.7246 10.5597 29.2995 9.19922C34.4787 -3.06641 45.5213 -3.06641 50.7006 9.19922C51.2755 10.5597 52.8623 11.1866 54.2306 10.6326ZM20 40C20 28.9597 28.9597 20 40 20C51.0404 20 60 28.9597 60 40C60 51.0403 51.0404 60 40 60C28.9597 60 20 51.0403 20 40ZM47.2581 49.1371C47.5726 49.3226 47.7823 49.4274 48.121 49.4274C48.7742 49.4274 49.3468 48.9193 49.3468 48.1854C49.3468 47.4517 49.0565 47.1693 48.5645 46.8549C42.8065 43.4113 36.0565 43.2822 29.4516 44.7419C28.8468 44.871 28.3549 45.2661 28.3549 46.0968C28.3549 46.75 28.8468 47.371 29.629 47.371C29.8128 47.371 30.106 47.2914 30.3757 47.2181C30.4494 47.1981 30.5213 47.1786 30.5887 47.1613C36.371 45.9758 42.2258 46.1049 47.2581 49.1371ZM49.2984 43.7983C49.5887 43.9517 49.871 44.1371 50.2904 44.1371C51.1694 44.1371 51.8468 43.4354 51.8549 42.5646C51.8549 41.8629 51.5968 41.3629 50.9436 40.9758C46.9597 38.6049 41.9032 37.3064 36.6694 37.3064C33.3145 37.3064 31.0242 37.7742 28.7823 38.4032C27.9516 38.6371 27.5323 39.2097 27.5323 40.0726C27.5323 40.9354 28.2339 41.6371 29.0968 41.6371C29.3637 41.6371 29.5477 41.5803 29.7805 41.5085C29.8642 41.4828 29.9541 41.4551 30.0565 41.4274C36.742 39.6129 44.2581 40.8146 49.2984 43.7983ZM51.75 37.6774C52.1129 37.8871 52.371 37.9919 52.7904 37.9919C53.7742 37.9919 54.6613 37.2097 54.6613 36.1129C54.6613 35.1532 54.25 34.6532 53.621 34.2903C49.1129 31.6613 42.9436 30.4354 37.0565 30.4354C33.5968 30.4354 30.4194 30.8307 27.5806 31.6613C26.8549 31.871 26.1774 32.4919 26.1774 33.5887C26.1774 34.6613 26.992 35.4919 28.0565 35.4919C28.3794 35.4919 28.6854 35.4021 28.9467 35.3256C28.9986 35.3103 29.0487 35.2957 29.0968 35.2822C35.742 33.4274 46.0081 34.25 51.75 37.6774Z" fill="currentColor"/>
</svg>
