<svg id="Capa_1" data-name="Capa 1" xmlns="http://www.w3.org/2000/svg" viewBox="0 0 150 116"><path d="M81.79,9.58C72,8.93,72.44,9.78,62,11.2c-6.26.85-12.13,4.55-17.61,8S35.72,27,33.1,33.57C31,40.5,25.33,46.5,24.51,57.87c-.57,7.87-1.84,15.27-.22,21.05,2.08,7.41,7.14,13.32,11.43,17.88,5.08,5.38,11.68,8.87,17.46,11.28,8.87,3.7,17.32,3.41,20.2,3.41a62.1,62.1,0,0,0,16.41-2.21c4.87-1.34,10.77-2.37,15.87-5.48,4.52-2.77,7.46-7.12,11.06-11.8,3.13-4.08,7.38-8.76,9.07-14.64,1.38-4.82.81-10.51.81-16.74a58.06,58.06,0,0,0-2.71-18.23c-2.17-6.7-3.32-13.59-7.17-17.68C112,19.73,106.16,17.16,101,15c-9.65-4-9.87-4.78-19.2-5.41Z" style="fill:#f6e7e0"/><path d="M104.59,47.67c5-12.28-2.81-20.06-15.08-15.08A2.71,2.71,0,0,1,86,31.16c-5.16-12.22-16.16-12.22-21.32,0a2.72,2.72,0,0,1-3.52,1.43c-12.28-5-20.06,2.8-15.08,15.08a2.72,2.72,0,0,1-1.43,3.52c-12.22,5.16-12.22,16.15,0,21.32A2.71,2.71,0,0,1,46.07,76c-5,12.27,2.8,20,15.08,15.08a2.72,2.72,0,0,1,3.52,1.42c5.16,12.22,16.15,12.22,21.32,0a2.72,2.72,0,0,1,3.52-1.42c12.27,5,20-2.81,15.08-15.08A2.72,2.72,0,0,1,106,72.51c12.22-5.16,12.22-16.16,0-21.32A2.72,2.72,0,0,1,104.59,47.67Z" style="fill:#edd3c5"/><path d="M99.61,50.24c4.56,2.53,6.75,7.42,5.37,11.43l11.39,6.69c4.22-7.19-1.05-18.12-11.79-24.42S81.72,38.35,77.5,45.53l9.89,5.81c2.76-3,7.84-3.53,12.22-1.1Z" style="fill:#8dc8e8"/><path d="M75.78,81.1c-3.93,3.42-9.27,3.83-12.57,1.16L53,90.7c5.32,6.42,17.41,5.17,27-2.79s13-19.59,7.7-26L78.9,69.23c1.86,3.61.65,8.58-3.12,11.87Z" style="fill:#8dc8e8"/><path d="M61.84,44.7c1.81,4.88.29,10-3.38,12.17l4.29,12.5c7.88-2.71,11-14.45,7-26.22S56,24,48.12,26.73l3.72,10.84c4-.45,8.26,2.43,10,7.13Z" style="fill:#8dc8e8"/><path d="M117.22,76.36A1.37,1.37,0,1,0,115.85,75,1.37,1.37,0,0,0,117.22,76.36Z" style="fill:#edd3c5"/><path d="M97,24.94a1.37,1.37,0,1,0-1.37-1.36A1.36,1.36,0,0,0,97,24.94Z" style="fill:#edd3c5"/><path d="M39.09,39a1.37,1.37,0,1,0-1.37-1.37A1.37,1.37,0,0,0,39.09,39Z" style="fill:#edd3c5"/><path d="M114.06,83.46A2.09,2.09,0,1,0,112,81.38,2.09,2.09,0,0,0,114.06,83.46Z" style="fill:#edd3c5"/><path d="M58.61,101.65a2.09,2.09,0,1,0-2.09-2.09A2.08,2.08,0,0,0,58.61,101.65Z" style="fill:#edd3c5"/><path d="M37.28,47.76a2.09,2.09,0,1,0-2.09-2.08A2.08,2.08,0,0,0,37.28,47.76Z" style="fill:#edd3c5"/><path d="M111.59,77.29a1.08,1.08,0,1,0-1.08-1.08A1.08,1.08,0,0,0,111.59,77.29Z" style="fill:#edd3c5"/><path d="M51.33,99.25a1.08,1.08,0,1,0-1.08-1.08A1.08,1.08,0,0,0,51.33,99.25Z" style="fill:#edd3c5"/><path d="M90.44,26.33a1.09,1.09,0,1,0-1.08-1.08A1.09,1.09,0,0,0,90.44,26.33Z" style="fill:#edd3c5"/><path d="M30.36,96.71c-2.9-6.06-.41-12.31,5-16.79s12-5.76,17.43-1.77l1.6-1.32C48.23,72,40.21,73,33.93,78.19S25.18,91.08,28.77,98l1.6-1.32Z" style="fill:#8dc8e8"/><path d="M81.57,33.56c-6.66.85-11.81-3.48-14.37-10S65.51,10.32,71,6.43L70.24,4.5c-6.52,4.33-8.1,12.26-5.14,19.86s9.49,12.36,17.22,11.13l-.75-1.93Z" style="fill:#8dc8e8"/><path d="M108.36,106.05c-6.66,1-11.87-3.3-14.52-9.81S92,83.05,97.39,79.08l-.78-1.92c-6.46,4.43-7.92,12.37-4.85,19.93s9.66,12.22,17.38,10.89l-.78-1.93Z" style="fill:#8dc8e8"/><path d="M99.62,46.46c.79-6.68,6.25-10.62,13.22-11.5s13.23,1.57,15.67,7.84l2.06-.26c-2.62-7.38-9.92-10.84-18-9.82s-14.3,6.2-15,14l2.06-.26Z" style="fill:#8dc8e8"/><path d="M49.51,54c-3.31,5.86-9.86,7.39-16.63,5.51s-11.6-6.56-11.42-13.29l-2-.55c-.44,7.82,5,13.83,12.82,16s15.58-.2,19.24-7.12l-2-.56Z" style="fill:#8dc8e8"/></svg>