<svg width="80" height="80" viewBox="0 0 80 80" fill="none" xmlns="http://www.w3.org/2000/svg">
<path fill-rule="evenodd" clip-rule="evenodd" d="M54.2306 10.6326C66.5557 5.63525 74.3623 13.4447 69.3678 25.77C68.8136 27.1384 69.4406 28.7252 70.801 29.3002C83.0664 34.4795 83.0664 45.5225 70.801 50.7018C69.4406 51.2767 68.8136 52.8635 69.3678 54.2319C74.3649 66.5573 66.5557 74.3641 54.2306 69.3694C52.8623 68.8153 51.2755 69.4423 50.7006 70.8027C45.5213 83.0658 34.4787 83.0658 29.2995 70.8027C28.7246 69.4423 27.1377 68.8153 25.7694 69.3694C13.4444 74.3667 5.63777 66.5573 10.6323 54.2319C11.1864 52.8635 10.5595 51.2767 9.19899 50.7018C-3.06633 45.5225 -3.06633 34.4795 9.19899 29.3002C10.5595 28.7252 11.1864 27.1384 10.6323 25.77C5.63515 13.4447 13.4444 5.63782 25.7694 10.6326C27.1377 11.1866 28.7246 10.5597 29.2995 9.19922C34.4787 -3.06641 45.5213 -3.06641 50.7006 9.19922C51.2755 10.5597 52.8623 11.1866 54.2306 10.6326ZM49.0268 32.2375C52.2232 34.5255 56.0576 35.7513 59.9884 35.7419V27.9402C57.8612 27.9407 55.7807 27.3153 54.0063 26.142C52.759 25.3383 51.6889 24.2885 50.8612 23.0569C50.0336 21.8253 49.4659 20.438 49.1929 18.9795C49.0769 18.3262 49.0214 17.6636 49.0268 17H41.1697V48.1947C41.1697 49.599 40.726 50.9674 39.9019 52.1045C39.0778 53.2416 37.9155 54.0892 36.581 54.5264C35.2465 54.9634 33.8079 54.9677 32.4708 54.5385C31.1337 54.1093 29.9664 53.2686 29.1356 52.1364C28.3048 51.004 27.853 49.6383 27.8448 48.234C27.8365 46.8297 28.2722 45.4587 29.0896 44.3169C29.9069 43.1749 31.0643 42.3206 32.3962 41.8756C33.7282 41.4307 35.1667 41.418 36.5063 41.8392V33.8134C33.5788 33.4076 30.5972 33.9052 27.9603 35.2396C25.3233 36.5741 23.1564 38.6818 21.7497 41.2809C20.3429 43.8801 19.7631 46.8468 20.088 49.7843C20.4127 52.7218 21.6266 55.4902 23.5672 57.7192C25.5078 59.9482 28.0827 61.5317 30.9476 62.2578C33.8125 62.984 36.8307 62.8181 39.5988 61.7826C42.3668 60.7471 44.7528 58.8911 46.4376 56.4629C48.1224 54.0348 49.0257 51.15 49.0268 48.1947V32.2375Z" fill="currentColor"/>
</svg>
