<svg width="80" height="80" viewBox="0 0 80 80" fill="none" xmlns="http://www.w3.org/2000/svg">
<path fill-rule="evenodd" clip-rule="evenodd" d="M54.2306 10.6326C66.5557 5.63525 74.3623 13.4447 69.3678 25.77C68.8136 27.1384 69.4406 28.7252 70.801 29.3002C83.0664 34.4795 83.0664 45.5225 70.801 50.7018C69.4406 51.2767 68.8136 52.8635 69.3678 54.2319C74.3649 66.5573 66.5557 74.3641 54.2306 69.3694C52.8623 68.8153 51.2755 69.4423 50.7006 70.8027C45.5213 83.0658 34.4787 83.0658 29.2995 70.8027C28.7246 69.4423 27.1377 68.8153 25.7694 69.3694C13.4444 74.3667 5.63777 66.5573 10.6323 54.2319C11.1864 52.8635 10.5595 51.2767 9.19899 50.7018C-3.06633 45.5225 -3.06633 34.4795 9.19899 29.3002C10.5595 28.7252 11.1864 27.1384 10.6323 25.77C5.63515 13.4447 13.4444 5.63782 25.7694 10.6326C27.1377 11.1866 28.7246 10.5597 29.2995 9.19922C34.4787 -3.06641 45.5213 -3.06641 50.7006 9.19922C51.2755 10.5597 52.8623 11.1866 54.2306 10.6326ZM29.7567 40.0067C29.7567 34.3281 34.3371 29.7478 40.0156 29.7478C45.6942 29.7478 50.2746 34.3281 50.2746 40.0067C50.2746 45.6853 45.6942 50.2656 40.0156 50.2656C34.3371 50.2656 29.7567 45.6853 29.7567 40.0067ZM33.346 40.0067C33.346 43.6853 36.346 46.6764 40.0156 46.6764C43.6853 46.6764 46.6853 43.6853 46.6853 40.0067C46.6853 36.3281 43.6942 33.337 40.0156 33.337C36.3371 33.337 33.346 36.3281 33.346 40.0067ZM50.6942 31.7209C52.0156 31.7209 53.0871 30.6584 53.0871 29.3281C53.0871 28.0067 52.0156 26.9353 50.6942 26.9353C49.3728 26.9353 48.3013 28.0067 48.3013 29.3281C48.3013 30.6495 49.3638 31.7209 50.6942 31.7209ZM56.6496 23.3728C58.9978 25.712 59.7299 28.5514 59.8817 31.7567C60.0692 35.0603 60.0692 44.9531 59.8817 48.2567C59.721 51.462 58.9888 54.3014 56.6496 56.6406C54.3103 58.9889 51.471 59.7209 48.2656 59.8728C44.9621 60.0603 35.0603 60.0603 31.7567 59.8728C28.5513 59.712 25.721 58.9799 23.3728 56.6406C21.0246 54.3014 20.2924 51.462 20.1406 48.2567C19.9531 44.9531 19.9531 35.0514 20.1406 31.7478C20.3013 28.5424 21.0246 25.7031 23.3728 23.3639C25.721 21.0245 28.5603 20.2924 31.7567 20.1406C35.0603 19.9531 44.9621 19.9531 48.2656 20.1406C51.471 20.3014 54.3103 21.0334 56.6496 23.3728ZM51.8103 55.6049C53.5692 54.8995 54.9174 53.5514 55.6138 51.8014C56.5099 49.5499 56.46 44.6249 56.4277 41.4324C56.4223 40.9028 56.4174 40.4209 56.4174 40.0067C56.4174 39.5925 56.4223 39.1107 56.4277 38.5813C56.46 35.3904 56.5098 30.4711 55.6138 28.212C54.9085 26.4531 53.5603 25.1049 51.8103 24.4084C49.5516 23.5173 44.6025 23.5648 41.4109 23.5953C40.8933 23.6003 40.4218 23.6049 40.0156 23.6049C39.6015 23.6049 39.1198 23.6 38.5906 23.5946C35.3997 23.5623 30.4802 23.5125 28.221 24.4084C26.4621 25.1139 25.1138 26.462 24.4174 28.212C23.5263 30.4707 23.5737 35.4197 23.6044 38.6113C23.6093 39.129 23.6138 39.6005 23.6138 40.0067C23.6138 40.4209 23.609 40.9027 23.6036 41.4321C23.5713 44.6229 23.5214 49.5422 24.4174 51.8014C25.1228 53.5603 26.471 54.9084 28.221 55.6049C30.4796 56.4961 35.4284 56.4486 38.6199 56.418C39.1378 56.413 39.6093 56.4084 40.0156 56.4084C40.4298 56.4084 40.9116 56.4133 41.4411 56.4187C44.6319 56.451 49.5512 56.5009 51.8103 55.6049Z" fill="currentColor"/>
</svg>
