<svg width="600" height="361" viewBox="0 0 600 361" fill="none" xmlns="http://www.w3.org/2000/svg">
<path fill-rule="evenodd" clip-rule="evenodd" d="M37.1267 268.061C44.2439 268.061 49.0425 272.727 49.0425 280.035C49.0425 287.343 44.2586 291.716 37.1267 291.716C29.9949 291.716 25.2403 287.182 25.2403 279.991C25.2403 272.801 29.9949 268.046 37.1267 268.046V268.061ZM38.0072 286.345C42.2041 286.345 45.0657 284.511 45.0657 280.637C45.0657 276.396 41.353 273.476 35.806 273.476C32.0053 273.476 29.1731 275.516 29.1731 279.184C29.1731 283.484 32.8124 286.345 38.0072 286.345ZM0 268.56V291.203H3.90344V281.752H15.6284V291.203H19.5319V268.56H15.6284V276.763H3.90344V268.56H0ZM13.1778 302.972H33.957V307.961H25.5191V325.615H21.6157V307.961H13.1778V302.972ZM45.3885 313.405L37.5083 302.972H41.9987L47.7805 310.558L53.2248 302.972H59.4028L50.9942 314.139L59.8871 325.629H55.3966L48.5436 316.927L42.3069 325.629H36.1729L45.4032 313.42L45.3885 313.405ZM53.9145 268.545V280.666L53.8998 280.652C53.8998 288.136 57.451 291.716 63.1595 291.716C69.2054 291.716 73.0795 287.974 73.0795 280.652V268.53H69.176V280.652C69.176 284.599 67.2096 286.301 64.0253 286.301C59.7843 286.301 57.8179 284.232 57.8179 279.316V268.545H53.9145Z" fill="#F6E7E0"/>
<path fill-rule="evenodd" clip-rule="evenodd" d="M588.363 268.061C581.644 268.061 577.155 272.724 577.152 280.042C577.152 280.04 577.152 280.038 577.152 280.035V280.05C577.152 280.047 577.152 280.045 577.152 280.042C577.155 287.185 581.659 291.716 588.495 291.716C591.841 291.716 594.292 291.261 596.214 290.44V283.381C594.658 285.127 592.208 286.272 588.745 286.272C584.313 286.272 580.879 283.454 580.879 279.023C580.879 275.515 583.344 273.446 587.439 273.446C591.151 273.446 594.189 274.796 595.891 277.159V269.704C593.939 268.648 591.371 268.061 588.363 268.061ZM547.949 291.203V286.228H535.931L546.863 272.962V268.53L530.413 268.56V273.549H541.991L531.25 286.609V291.203H547.949ZM540.172 318.336L531.998 302.972H526.612V325.614H531.763V310.485L539.805 325.614H541.874L550.18 309.986V325.614H554.083V302.972H548.346L540.172 318.336ZM574.378 302.972H558.456V325.614H574.378V320.625H562.36V316.487H573.718V311.732H562.36V307.961H574.378V302.972ZM585.501 313.405L577.621 302.972H582.112L587.893 310.558L593.338 302.972H599.516L591.107 314.139L600 325.629H595.51L588.657 316.927L582.42 325.629H576.286L585.516 313.42L585.501 313.405ZM552.924 291.203L561.435 268.56H565.588L574.011 291.203H570.167L568.244 285.978H560.1L558.207 291.203H552.924ZM567.232 283.19L564.135 274.884L561.127 283.19H567.232Z" fill="#F6E7E0"/>
<path d="M450.29 233.487C454.061 244.317 456.717 254.531 458.258 264.113C459.799 273.711 460.357 285.259 459.931 298.789C459.329 316.34 454.091 325.116 444.2 325.116C441.162 325.116 438.536 324.353 436.334 322.841C434.133 321.315 432.446 319.26 431.257 316.648C430.083 314.036 429.232 311.263 428.718 308.328C428.205 305.393 427.94 302.223 427.94 298.789C427.94 285.392 428.704 273.901 430.215 264.333C431.741 254.766 434.192 244.479 437.567 233.473H358.471L361.421 242.527C363.387 248.558 365.368 256.218 367.364 265.478C369.36 274.752 370.343 282.633 370.343 289.148C370.343 292.098 370.049 296.794 369.448 303.206C359.513 293.066 351.633 281.738 345.777 269.235C339.937 256.732 337.017 244.816 337.017 233.458H298.877L300.169 236.217C301.064 238.051 302.165 240.722 303.441 244.215C304.733 247.707 306.024 251.581 307.359 255.837C308.68 260.093 309.869 265.082 310.925 270.761C311.967 276.455 312.628 282.002 312.877 287.387C313.215 292.699 313.038 298.833 312.334 305.789C311.63 312.745 310.749 318.967 309.707 324.441C308.651 329.914 307.403 335.593 305.951 341.463C305.334 343.928 304.806 346.042 304.351 347.817C299.919 338.558 296.104 328.711 292.905 318.277C288.517 303.94 285.714 289.368 284.496 274.576C283.278 259.784 284.335 246.078 287.681 233.443H228.924C232.431 246.034 233.561 259.755 232.299 274.606C231.037 289.456 228.205 304.014 223.788 318.277C220.721 328.183 217.081 337.589 212.87 346.511C211.696 343.224 210.492 339.629 209.26 335.681C207.939 331.44 206.736 326.51 205.664 320.875C204.593 315.24 203.889 309.781 203.551 304.468C203.214 299.068 203.405 292.861 204.124 285.846C204.857 278.832 205.738 272.566 206.794 267.063C207.836 261.56 209.084 255.866 210.522 249.982C211.96 244.097 212.972 240.15 213.574 238.169C214.176 236.173 214.645 234.603 214.983 233.443H170.68L173.63 242.498C175.596 248.529 177.577 256.189 179.573 265.449C181.569 274.723 182.552 282.603 182.552 289.119C182.552 292.068 182.258 296.764 181.657 303.177C171.722 293.037 163.842 281.708 157.987 269.205C152.146 256.703 149.226 244.787 149.226 233.429H111.087L112.378 236.188C113.273 238.022 114.374 240.693 115.65 244.185C116.942 247.678 118.233 251.552 119.569 255.808C120.889 260.063 122.078 265.053 123.135 270.732C124.176 276.425 124.837 281.972 125.086 287.358C125.424 292.67 125.248 298.804 124.543 305.76C123.839 312.716 122.958 318.938 121.917 324.411C120.86 329.885 119.613 335.564 118.16 341.434C116.707 347.304 115.694 351.222 115.108 353.217C114.535 355.213 114.066 356.783 113.728 357.943H157.972L155.536 345.748C153.907 337.662 152.146 327.464 150.238 315.181C148.331 302.898 147.127 292.597 146.614 284.291C150.679 287.798 154.509 291.892 158.075 296.559C161.655 301.225 164.664 305.76 167.129 310.133C169.594 314.521 171.869 319.216 173.967 324.191C176.066 329.181 177.695 333.466 178.883 337.061C180.057 340.656 181.114 344.281 182.068 347.92C183.007 351.559 183.594 353.966 183.799 355.14C184.019 356.314 184.181 357.253 184.313 357.928H254.384C248.91 349.754 246.724 340.392 247.839 329.87C248.309 325.981 249.497 322.738 251.405 320.141C253.313 317.558 255.631 316.252 258.376 316.252C261.12 316.252 263.512 317.558 265.698 320.17C267.885 322.782 269.073 326.011 269.293 329.87C269.895 340.744 267.562 350.092 262.294 357.928H345.821L343.385 345.733C341.757 337.648 339.996 327.449 338.088 315.166C336.18 302.884 334.977 292.582 334.463 284.276C338.528 287.783 342.358 291.878 345.924 296.544C349.505 301.211 352.513 305.745 354.978 310.118C357.444 314.506 359.718 319.202 361.817 324.176C363.915 329.166 365.544 333.451 366.733 337.046C367.907 340.641 368.963 344.266 369.917 347.905C370.856 351.545 371.443 353.951 371.649 355.125C371.869 356.299 372.03 357.238 372.162 357.913H405.488L404.197 355.213C403.346 353.379 402.275 350.708 401.013 347.216C399.751 343.723 398.459 339.864 397.124 335.623C395.803 331.382 394.6 326.451 393.529 320.816C392.457 315.181 391.753 309.722 391.415 304.41C391.078 299.01 391.269 292.802 391.988 285.788C392.721 278.773 393.602 272.507 394.659 267.004C395.7 261.501 396.948 255.808 398.386 249.923C399.017 247.326 399.56 245.124 400.044 243.29C400.792 246.24 401.6 249.688 402.451 253.65C403.771 259.799 404.696 265.331 405.21 270.247C405.474 272.859 405.591 276.66 405.591 281.65C405.591 286.639 405.532 292.377 405.4 298.863C405.268 305.349 405.21 309.839 405.21 312.319C405.21 344.178 418.226 360.1 444.259 360.1C450.202 360.1 455.47 359.205 460.019 357.4C464.583 355.595 468.266 353.232 471.098 350.268C473.931 347.318 476.235 343.723 478.04 339.482C479.845 335.241 481.077 330.941 481.767 326.568C482.457 322.195 482.794 317.456 482.794 312.319C482.794 309.839 482.735 305.349 482.603 298.863C482.471 292.377 482.413 286.639 482.413 281.65C482.413 276.66 482.545 272.859 482.794 270.247C483.308 265.199 484.276 259.417 485.714 252.902C487.152 246.401 488.224 241.896 488.928 239.387C489.632 236.877 490.219 234.882 490.689 233.385H450.363L450.29 233.487ZM264.832 303.265C262.543 304.102 260.371 304.513 258.317 304.513C256.262 304.513 254.076 304.102 251.772 303.265C249.453 302.429 247.839 301.548 246.885 300.594L258.317 257.187L269.69 300.594C268.751 301.534 267.136 302.429 264.847 303.265H264.832Z" fill="#F6E7E0"/>
<path fill-rule="evenodd" clip-rule="evenodd" d="M311.351 0.645682C308.431 0.278817 304.204 0 300.873 0C297.542 0 293.448 0.264143 290.366 0.645682C287.284 1.02722 284.775 1.46746 282.016 1.99574C278.039 2.7735 270.101 4.6812 263.203 8.0857C260.562 9.39174 255.382 12.1065 253.416 13.3979C249.204 16.1459 247.552 17.5035 243.679 20.6867L242.923 21.3075C240.531 23.2739 238.037 25.9153 236.276 28.0138C233.693 31.0808 231.521 34.2211 229.261 37.5229C227.06 40.7367 225.152 44.5374 223.391 48.118C221.19 52.6084 219.855 56.2771 218.622 60.8262C217.786 63.9225 217.375 66.0063 216.846 68.8679C215.467 76.616 215.57 85.5382 215.57 85.5382H220.911C220.911 85.5382 221.175 75.7649 223.289 70.1005C223.905 68.457 224.228 68.0608 224.8 68.1782C224.8 68.1782 224.463 69.6456 224.301 70.9517C223.083 81.0918 223.597 91.8336 223.597 91.8336H228.689C228.689 91.8336 228.454 81.6201 230.171 72.0522C230.67 69.3374 231.404 68.4276 232.079 68.6037C232.079 68.6037 231.888 69.6603 231.741 71.0837C230.597 83.5865 231.33 93.9027 231.33 93.9027H236.686C236.686 93.9027 236.466 89.3536 236.686 82.706C236.936 78.3036 237.464 74.1067 237.714 72.6099C238.183 69.8804 238.888 69.2347 239.445 69.3668C239.445 69.3668 239.313 70.2619 239.269 71.1571C238.682 83.7332 239.416 90.2341 239.416 90.2341H244.581C244.581 90.2341 244.552 85.7143 244.581 81.7962C244.583 81.4179 244.583 81.0226 244.583 80.6124V80.6115C244.581 77.68 244.58 73.9874 245.3 70.306C246.093 65.8449 247.282 63.8785 248.426 64.1133C246.929 66.3879 247.179 70.7462 247.179 70.7462C247.34 74.3415 248.617 78.0542 248.617 78.0542L254.032 77.1884C254.032 77.1884 251.992 70.35 252.696 63.9519C253.019 60.2832 253.885 56.3358 255.69 52.2856C258.376 46.2983 260.914 43.8183 264.627 40.8687C268.163 38.0659 277.379 32.6656 288.268 30.5378C288.277 30.5348 288.285 30.5317 288.294 30.5288C288.325 30.5177 288.35 30.5085 288.385 30.5085C296.603 28.7769 305.114 28.7769 313.332 30.5085C313.341 30.5115 313.35 30.5146 313.358 30.5175C313.389 30.5286 313.414 30.5378 313.449 30.5378C324.338 32.6803 333.568 38.0659 337.09 40.8687C340.817 43.833 343.356 46.313 346.027 52.2856C347.847 56.3211 348.698 60.2832 349.02 63.9519C349.725 70.35 347.685 77.1884 347.685 77.1884L353.1 78.0542C353.1 78.0542 354.377 74.3562 354.538 70.7462C354.538 70.7462 354.788 66.4025 353.291 64.1133C354.45 63.8932 355.639 65.8449 356.416 70.306C357.137 73.9872 357.136 77.6797 357.134 80.6112V80.6115C357.134 81.0221 357.134 81.4176 357.136 81.7962C357.165 85.7143 357.136 90.2341 357.136 90.2341H362.301C362.301 90.2341 363.035 83.7332 362.448 71.1571C362.404 70.2619 362.272 69.3668 362.272 69.3668C362.829 69.2347 363.534 69.8804 364.003 72.6099C364.267 74.1214 364.781 78.3183 365.03 82.706C365.251 89.3536 365.03 93.9027 365.03 93.9027H370.387C370.374 93.9027 370.388 93.5976 370.413 93.0286L370.413 93.0281V93.0276V93.0273V93.0269V93.0267V93.0265C370.533 90.2849 370.923 81.4335 369.976 71.0837C369.814 69.6603 369.638 68.6037 369.638 68.6037C370.328 68.4276 371.062 69.3228 371.546 72.0522C373.263 81.6201 373.028 91.8336 373.028 91.8336H378.12C378.12 91.8336 378.648 81.0918 377.416 70.9517C377.254 69.6456 376.917 68.1782 376.917 68.1782C377.489 68.0608 377.812 68.457 378.428 70.1005C380.542 75.7502 380.806 85.5382 380.806 85.5382H386.147C386.147 85.5382 386.25 76.616 384.871 68.8679C384.342 66.0063 383.931 63.9225 383.095 60.8262C381.862 56.2624 380.527 52.6084 378.326 48.118C376.565 44.5521 374.657 40.7367 372.456 37.5229C370.196 34.2211 368.039 31.0808 365.441 28.0138C363.68 25.93 361.2 23.2739 358.794 21.3075L358.038 20.6866C354.165 17.5035 352.513 16.1459 348.301 13.3979C346.32 12.1065 341.155 9.39174 338.513 8.0857C331.616 4.6812 323.677 2.75882 319.701 1.99574C316.942 1.46746 314.432 1.02722 311.351 0.645682ZM311.351 191.122C308.431 191.489 304.204 191.768 300.873 191.768H300.844C297.527 191.768 293.286 191.474 290.366 191.122C287.284 190.74 284.775 190.3 282.016 189.772C278.039 188.994 270.101 187.086 263.203 183.682C260.562 182.376 255.382 179.661 253.416 178.37C249.204 175.622 247.552 174.264 243.679 171.081L243.679 171.081L242.923 170.46C240.531 168.494 238.037 165.852 236.276 163.754C233.693 160.687 231.521 157.546 229.261 154.245C227.06 151.031 225.152 147.23 223.391 143.65C221.19 139.159 219.855 135.491 218.622 130.941C217.786 127.845 217.375 125.761 216.846 122.9C215.467 115.152 215.57 106.229 215.57 106.229H220.911C220.911 106.229 221.175 116.003 223.289 121.667C223.905 123.311 224.228 123.707 224.8 123.589C224.8 123.589 224.463 122.122 224.301 120.816C223.083 110.676 223.597 99.934 223.597 99.934H228.689C228.689 99.934 228.454 110.147 230.171 119.715C230.67 122.43 231.404 123.34 232.079 123.164C232.079 123.164 231.888 122.107 231.741 120.684C230.597 108.181 231.33 97.8649 231.33 97.8649H236.686C236.686 97.8649 236.466 102.414 236.686 109.062C236.936 113.464 237.464 117.661 237.714 119.158C238.183 121.887 238.888 122.533 239.445 122.401C239.445 122.401 239.313 121.506 239.269 120.61C238.682 108.034 239.416 101.534 239.416 101.534H244.581C244.581 101.534 244.552 106.053 244.581 109.971C244.583 110.35 244.583 110.745 244.583 111.155V111.156C244.581 114.088 244.58 117.78 245.3 121.462C246.093 125.923 247.282 127.889 248.426 127.654C246.929 125.38 247.179 121.021 247.179 121.021C247.34 117.426 248.617 113.713 248.617 113.713L254.032 114.579C254.032 114.579 251.992 121.418 252.696 127.816C253.019 131.484 253.885 135.432 255.69 139.482C258.376 145.469 260.914 147.949 264.627 150.899C268.163 153.702 277.379 159.102 288.268 161.23C288.277 161.233 288.285 161.236 288.294 161.239C288.325 161.25 288.35 161.259 288.385 161.259C296.603 162.991 305.114 162.991 313.332 161.259C313.341 161.256 313.35 161.253 313.358 161.25L313.358 161.25C313.389 161.239 313.414 161.23 313.449 161.23C324.338 159.087 333.568 153.702 337.09 150.899C340.817 147.935 343.356 145.455 346.027 139.482C347.847 135.446 348.698 131.484 349.02 127.816C349.725 121.418 347.685 114.579 347.685 114.579L353.1 113.713C353.1 113.713 354.377 117.411 354.538 121.021C354.538 121.021 354.788 125.365 353.291 127.654C354.45 127.874 355.639 125.923 356.416 121.462C357.137 117.78 357.136 114.088 357.134 111.156V111.156C357.134 110.746 357.134 110.35 357.136 109.971C357.165 106.053 357.136 101.534 357.136 101.534H362.301C362.301 101.534 363.035 108.034 362.448 120.61C362.404 121.506 362.272 122.401 362.272 122.401C362.829 122.533 363.534 121.887 364.003 119.158C364.267 117.646 364.781 113.449 365.03 109.062C365.251 102.414 365.03 97.8649 365.03 97.8649H370.387C370.374 97.8649 370.388 98.17 370.413 98.7389L370.413 98.7395V98.7399V98.7403V98.7406V98.7409V98.7411C370.533 101.483 370.923 110.334 369.976 120.684C369.814 122.107 369.638 123.164 369.638 123.164C370.328 123.34 371.062 122.445 371.546 119.715C373.263 110.147 373.028 99.934 373.028 99.934H378.12C378.12 99.934 378.648 110.676 377.416 120.816C377.254 122.122 376.917 123.589 376.917 123.589C377.489 123.707 377.812 123.311 378.428 121.667C380.542 116.017 380.806 106.229 380.806 106.229H386.147C386.147 106.229 386.25 115.152 384.871 122.9C384.342 125.761 383.931 127.845 383.095 130.941C381.862 135.505 380.527 139.159 378.326 143.65C376.565 147.215 374.657 151.031 372.456 154.245C370.196 157.546 368.039 160.687 365.441 163.754C363.68 165.838 361.2 168.494 358.794 170.46L358.038 171.081C354.165 174.264 352.513 175.622 348.301 178.37C346.32 179.661 341.155 182.376 338.513 183.682C331.616 187.086 323.677 189.009 319.701 189.772C316.942 190.3 314.432 190.74 311.351 191.122ZM309.324 129.689L309.324 129.686C309.315 128.237 309.307 126.808 310.118 125.717C311.871 123.355 314.02 120.519 316.3 117.509C321.157 111.099 326.61 103.902 330.105 98.8187C330.941 97.6154 331.411 96.3974 329.929 95.0914C329.527 94.7313 329.145 94.417 328.755 94.096L328.754 94.0951L328.754 94.0951L328.754 94.0948C328.317 93.7359 327.871 93.3685 327.375 92.9195C325.717 91.4374 325.16 91.0118 323.81 92.582C320.977 95.8838 308.607 108.988 308.607 108.988C308.615 108.525 308.516 107.25 308.388 105.587C308.044 101.137 307.487 93.9125 308.181 92.0537C308.888 90.1712 310.492 88.1468 311.929 86.3322L311.929 86.3319C312.34 85.8126 312.738 85.3105 313.097 84.8338C314.234 83.3446 314.97 82.3724 315.601 81.5397L315.603 81.5371L315.604 81.5358L315.606 81.5329L315.609 81.5297L315.609 81.5295L315.609 81.5294C316.733 80.0454 317.525 79.0006 319.657 76.2492C319.921 75.9117 319.891 75.4127 319.583 75.1046C319.341 74.8571 319.103 74.6085 318.866 74.3614L318.865 74.3605C317.852 73.3035 316.863 72.2711 315.709 71.4506C313.611 69.9685 313.288 70.1152 312.672 70.7022C311.997 71.3625 311.277 72.1256 310.602 72.8887C309.772 73.8536 309.422 74.2285 309.054 74.6237L309.053 74.6238L309.053 74.6241C308.659 75.0462 308.244 75.4917 307.198 76.7041L307.177 76.4666L307.177 76.4664L307.177 76.4655L307.177 76.4652C307.03 74.7559 306.293 66.225 306.141 60.5914C306.112 59.4615 305.187 58.5663 304.058 58.5663H298.07C296.94 58.5663 296.016 59.4615 295.987 60.5914C295.835 66.226 295.098 74.759 294.95 76.4662L294.95 76.4666L294.93 76.7041C293.871 75.4678 293.46 75.0289 293.056 74.5991L293.056 74.599C292.694 74.2126 292.338 73.8334 291.525 72.8887C290.85 72.1109 290.131 71.3479 289.456 70.7022C288.855 70.1152 288.517 69.9685 286.419 71.4506C285.265 72.2711 284.276 73.3035 283.262 74.3605L283.262 74.3614C283.025 74.6085 282.786 74.8571 282.545 75.1046C282.236 75.4127 282.207 75.897 282.471 76.2492C284.623 79.0363 285.409 80.0719 286.551 81.5755C287.177 82.3994 287.909 83.3638 289.031 84.8338C289.361 85.265 289.722 85.7185 290.096 86.1877L290.096 86.1879L290.097 86.1887L290.097 86.1889L290.097 86.1892C291.569 88.035 293.233 90.1236 293.947 92.0537C294.641 93.9233 294.083 101.144 293.74 105.59L293.74 105.59L293.74 105.592C293.612 107.252 293.513 108.525 293.521 108.988C293.521 108.988 281.473 96.2213 278.318 92.582C276.968 91.0118 276.411 91.4374 274.752 92.9195C274.282 93.3386 273.856 93.6913 273.44 94.035L273.44 94.0353C273.026 94.3775 272.624 94.7107 272.199 95.0914C270.732 96.3974 271.186 97.6154 272.023 98.8187C275.526 103.888 280.97 111.082 285.821 117.493L285.821 117.493L285.821 117.494L285.822 117.494L285.823 117.495C288.104 120.51 290.254 123.352 292.01 125.717C292.821 126.808 292.813 128.224 292.804 129.682C292.803 129.832 292.802 129.983 292.802 130.134C292.773 135.828 291.159 146.893 291.159 146.893C297.483 149.593 304.63 149.681 311.013 147.127L311.6 146.893C311.6 146.893 309.296 135.828 309.267 130.134H309.326C309.326 129.986 309.325 129.837 309.324 129.689ZM334.581 89.7205C337.251 89.5443 338.998 87.4606 338.836 84.6577C338.616 80.7836 336.679 79.008 332.952 79.2428C330.78 79.3895 328.77 81.9869 328.799 84.3349C328.858 87.9302 331.778 89.9112 334.581 89.7205ZM262.895 84.6577C262.734 87.4606 264.48 89.5443 267.151 89.7205C269.954 89.9112 272.874 87.9302 272.933 84.3349C272.962 81.9869 270.952 79.3895 268.78 79.2428C265.052 79.008 263.115 80.7836 262.895 84.6577ZM323.252 68.7798C325.923 68.6037 327.669 66.5199 327.508 63.7171C327.287 59.843 325.35 58.0674 321.623 58.3022C319.451 58.4489 317.441 61.0463 317.47 63.3942C317.529 66.9895 320.449 68.9706 323.252 68.7798ZM306.097 48.206C306.259 51.0089 304.512 53.0927 301.842 53.2688C299.039 53.4595 296.119 51.4785 296.06 47.8832C296.031 45.5353 298.041 42.9379 300.213 42.7911C303.94 42.5563 305.877 44.3319 306.097 48.206ZM278.069 68.7798C275.398 68.6037 273.652 66.5199 273.813 63.7171C274.033 59.843 275.97 58.0674 279.698 58.3022C281.87 58.4489 283.88 61.0463 283.851 63.3942C283.792 66.9895 280.872 68.9706 278.069 68.7798Z" fill="#F6E7E0"/>
</svg>
