<svg width="103" height="116" viewBox="0 0 103 116" fill="none" xmlns="http://www.w3.org/2000/svg">
<path fill-rule="evenodd" clip-rule="evenodd" d="M57.9712 0.390572C56.225 0.168656 53.6979 0 51.706 0C49.7142 0 47.266 0.15978 45.4233 0.390572C43.5806 0.621365 42.0801 0.887665 40.4305 1.20722C38.0525 1.67769 33.3053 2.83165 29.1812 4.89103C27.6017 5.68105 24.5043 7.32323 23.3284 8.10438C20.81 9.76666 19.8222 10.5879 17.5063 12.5134L17.0545 12.8889C15.6242 14.0784 14.1325 15.6762 13.0795 16.9455C11.5351 18.8007 10.2365 20.7003 8.88516 22.6976C7.56894 24.6416 6.42822 26.9406 5.37525 29.1065C4.05904 31.8228 3.26053 34.0419 2.52345 36.7937C2.02329 38.6667 1.7776 39.9272 1.46171 41.6581C0.636883 46.345 0.698297 51.742 0.698297 51.742H3.89231C3.89231 51.742 4.05027 45.8301 5.31383 42.4037C5.68237 41.4096 5.87542 41.1699 6.21763 41.2409C6.21763 41.2409 6.01582 42.1286 5.9193 42.9186C5.19099 49.0523 5.4981 55.5501 5.4981 55.5501H8.54294C8.54294 55.5501 8.40256 49.3719 9.4292 43.5843C9.72755 41.9422 10.1663 41.3918 10.5699 41.4983C10.5699 41.4983 10.4558 42.1374 10.3681 42.9985C9.68367 50.5614 10.1224 56.8017 10.1224 56.8017H13.3252C13.3252 56.8017 13.1936 54.0499 13.3252 50.0288C13.4744 47.3658 13.7903 44.8271 13.9394 43.9216C14.2202 42.2706 14.6414 41.88 14.9748 41.9599C14.9748 41.9599 14.8959 42.5014 14.8696 43.0429C14.5186 50.6501 14.9573 54.5825 14.9573 54.5825H18.046C18.046 54.5825 18.0285 51.8485 18.046 49.4784C18.0471 49.25 18.047 49.0113 18.0469 48.7637V48.7633V48.763V48.7627V48.7624V48.7621V48.7618C18.046 46.9886 18.045 44.7549 18.476 42.528C18.9498 39.8295 19.6606 38.64 20.345 38.7821C19.45 40.1579 19.5992 42.7943 19.5992 42.7943C19.6957 44.9691 20.4591 47.2149 20.4591 47.2149L23.697 46.6912C23.697 46.6912 22.4773 42.5546 22.8985 38.6844C23.0915 36.4653 23.6092 34.0774 24.6885 31.6275C26.2943 28.0058 27.8123 26.5057 30.0324 24.7215C32.1471 23.026 37.6576 19.7594 44.1685 18.4723L44.184 18.4668C44.2025 18.4601 44.2179 18.4545 44.2387 18.4545C49.1526 17.4071 54.2419 17.4071 59.1558 18.4545L59.1713 18.46C59.1898 18.4667 59.2052 18.4723 59.226 18.4723C65.7369 19.7683 71.2562 23.026 73.3622 24.7215C75.591 26.5145 77.109 28.0147 78.706 31.6275C79.7941 34.0686 80.303 36.4653 80.496 38.6844C80.9172 42.5546 79.6975 46.6912 79.6975 46.6912L82.9354 47.2149C82.9354 47.2149 83.6989 44.978 83.7954 42.7943C83.7954 42.7943 83.9445 40.1668 83.0495 38.7821C83.7427 38.6489 84.4535 39.8295 84.9185 42.528C85.3496 44.7548 85.3485 46.9885 85.3476 48.7618V48.7644C85.3475 49.0118 85.3474 49.2502 85.3485 49.4784C85.366 51.8485 85.3485 54.5825 85.3485 54.5825H88.4372C88.4372 54.5825 88.876 50.6501 88.525 43.0429C88.4986 42.5014 88.4197 41.9599 88.4197 41.9599C88.7531 41.88 89.1743 42.2706 89.4551 43.9216C89.613 44.8359 89.9202 47.3747 90.0693 50.0288C90.201 54.0499 90.0693 56.8017 90.0693 56.8017H93.2721C93.2646 56.8017 93.2726 56.6166 93.2876 56.2716C93.3598 54.6133 93.593 49.259 93.0264 42.9985C92.9299 42.1374 92.8246 41.4983 92.8246 41.4983C93.237 41.3918 93.6758 41.9333 93.9653 43.5843C94.992 49.3719 94.8516 55.5501 94.8516 55.5501H97.8964C97.8964 55.5501 98.2123 49.0523 97.4752 42.9186C97.3787 42.1286 97.1769 41.2409 97.1769 41.2409C97.5191 41.1699 97.7122 41.4096 98.0807 42.4037C99.3443 45.8212 99.5022 51.742 99.5022 51.742H102.696C102.696 51.742 102.758 46.345 101.933 41.6581C101.617 39.9272 101.371 38.6667 100.871 36.7937C100.134 34.0331 99.3355 31.8228 98.0193 29.1065C96.9663 26.9495 95.8256 24.6416 94.5094 22.6976C93.158 20.7003 91.8682 18.8007 90.315 16.9455C89.262 15.685 87.7791 14.0784 86.34 12.8889L85.8881 12.5133C83.5722 10.5878 82.5845 9.76662 80.0661 8.10438C78.8815 7.32323 75.7928 5.68105 74.2133 4.89103C70.0892 2.83165 65.342 1.66881 62.9641 1.20722C61.3144 0.887665 59.8139 0.621365 57.9712 0.390572ZM57.9712 115.609C56.225 115.831 53.6979 116 51.706 116H51.6885C49.7054 116 47.1695 115.822 45.4233 115.609C43.5806 115.379 42.0801 115.112 40.4305 114.793C38.0525 114.322 33.3053 113.168 29.1812 111.109C27.6017 110.319 24.5043 108.677 23.3284 107.896C20.8099 106.233 19.8222 105.412 17.5062 103.487L17.0545 103.111C15.6242 101.922 14.1325 100.324 13.0795 99.0545C11.5351 97.1993 10.2365 95.2997 8.88516 93.3024C7.56894 91.3584 6.42822 89.0594 5.37525 86.8935C4.05904 84.1772 3.26053 81.9581 2.52345 79.2063C2.02329 77.3333 1.7776 76.0729 1.46171 74.3419C0.636883 69.655 0.698297 64.258 0.698297 64.258H3.89231C3.89231 64.258 4.05027 70.1699 5.31383 73.5963C5.68237 74.5905 5.87542 74.8301 6.21763 74.7591C6.21763 74.7591 6.01582 73.8714 5.9193 73.0814C5.19099 66.9477 5.4981 60.45 5.4981 60.45H8.54294C8.54294 60.45 8.40256 66.6281 9.4292 72.4157C9.72755 74.0579 10.1663 74.6082 10.5699 74.5017C10.5699 74.5017 10.4558 73.8626 10.3681 73.0015C9.68367 65.4386 10.1224 59.1984 10.1224 59.1984H13.3252C13.3252 59.1984 13.1936 61.9501 13.3252 65.9712C13.4744 68.6342 13.7903 71.1729 13.9394 72.0784C14.2202 73.7294 14.6414 74.12 14.9748 74.0401C14.9748 74.0401 14.8959 73.4986 14.8696 72.9572C14.5186 65.3499 14.9573 61.4175 14.9573 61.4175H18.046C18.046 61.4175 18.0285 64.1515 18.046 66.5216C18.0471 66.7504 18.047 66.9895 18.0469 67.2376V67.2379V67.2382C18.046 69.0114 18.045 71.2451 18.476 73.472C18.9498 76.1705 19.6606 77.36 20.345 77.2179C19.45 75.8421 19.5992 73.2057 19.5992 73.2057C19.6957 71.0309 20.4591 68.7851 20.4591 68.7851L23.697 69.3089C23.697 69.3089 22.4773 73.4454 22.8985 77.3156C23.0915 79.5347 23.6092 81.9226 24.6885 84.3725C26.2943 87.9942 27.8123 89.4943 30.0324 91.2785C32.1471 92.974 37.6576 96.2406 44.1685 97.5277L44.184 97.5332C44.2025 97.5399 44.2179 97.5455 44.2387 97.5455C49.1526 98.5929 54.2419 98.5929 59.1558 97.5455L59.1713 97.54C59.1898 97.5333 59.2052 97.5277 59.226 97.5277C65.7369 96.2317 71.2562 92.974 73.3622 91.2785C75.591 89.4855 77.109 87.9853 78.706 84.3725C79.7941 81.9314 80.303 79.5347 80.496 77.3156C80.9172 73.4454 79.6975 69.3089 79.6975 69.3089L82.9354 68.7851C82.9354 68.7851 83.6989 71.022 83.7954 73.2057C83.7954 73.2057 83.9445 75.8332 83.0495 77.2179C83.7427 77.3511 84.4535 76.1705 84.9185 73.472C85.3496 71.2452 85.3485 69.0115 85.3476 67.2383V67.2356V67.2331C85.3475 66.9866 85.3474 66.749 85.3485 66.5216C85.366 64.1515 85.3485 61.4175 85.3485 61.4175H88.4372C88.4372 61.4175 88.876 65.3499 88.525 72.9572C88.4986 73.4986 88.4197 74.0401 88.4197 74.0401C88.7531 74.12 89.1743 73.7294 89.4551 72.0784C89.613 71.1641 89.9202 68.6254 90.0693 65.9712C90.201 61.9501 90.0693 59.1984 90.0693 59.1984H93.2721C93.2646 59.1984 93.2726 59.3834 93.2876 59.7284C93.3598 61.3867 93.593 66.741 93.0264 73.0015C92.9299 73.8626 92.8246 74.5017 92.8246 74.5017C93.237 74.6082 93.6758 74.0667 93.9653 72.4157C94.992 66.6281 94.8516 60.45 94.8516 60.45H97.8964C97.8964 60.45 98.2123 66.9477 97.4752 73.0814C97.3787 73.8714 97.1769 74.7591 97.1769 74.7591C97.5191 74.8301 97.7122 74.5905 98.0807 73.5963C99.3443 70.1788 99.5022 64.258 99.5022 64.258H102.696C102.696 64.258 102.758 69.655 101.933 74.3419C101.617 76.0729 101.371 77.3333 100.871 79.2063C100.134 81.9669 99.3355 84.1772 98.0193 86.8935C96.9663 89.0505 95.8256 91.3584 94.5094 93.3024C93.158 95.2997 91.8682 97.1993 90.315 99.0545C89.262 100.315 87.7791 101.922 86.34 103.111L85.8882 103.487L85.8881 103.487L85.8878 103.487C83.5722 105.412 82.5844 106.233 80.0661 107.896C78.8815 108.677 75.7928 110.319 74.2133 111.109C70.0892 113.168 65.342 114.331 62.9641 114.793C61.3144 115.112 59.8139 115.379 57.9712 115.609ZM56.7592 78.4483L56.7592 78.4468C56.754 77.5702 56.7489 76.7061 57.2341 76.0462C58.2819 74.6179 59.5657 72.9037 60.9281 71.0847L60.9298 71.0823L60.9306 71.0813L60.9309 71.0809L60.931 71.0808C63.8352 67.2032 67.0954 62.85 69.1854 59.7753C69.6855 59.0474 69.9663 58.3107 69.0801 57.5207C68.8397 57.3027 68.6111 57.1124 68.3776 56.9181L68.3776 56.918L68.3773 56.9178L68.377 56.9176C68.1163 56.7005 67.8494 56.4784 67.5533 56.2069C66.5617 55.3104 66.2283 55.053 65.421 56.0028C63.7275 58 56.3303 65.9268 56.3303 65.9268C56.3351 65.6467 56.2763 64.8753 56.1995 63.8694L56.1995 63.8693C55.9941 61.1776 55.6607 56.8076 56.0759 55.6832C56.4988 54.5445 57.4575 53.3199 58.3168 52.2223L58.3169 52.2222L58.3169 52.2222C58.5628 51.908 58.8006 51.6043 59.0154 51.3159C59.6975 50.4119 60.1387 49.8228 60.5168 49.3179L60.5174 49.3172L60.5175 49.317L60.5176 49.3169L60.5176 49.3168C61.1898 48.4193 61.6632 47.7873 62.9377 46.1231C63.0957 45.9189 63.0781 45.6171 62.8939 45.4307C62.7492 45.281 62.6067 45.1306 62.465 44.981L62.4646 44.9806L62.4646 44.9806L62.4645 44.9805L62.4645 44.9805L62.4645 44.9805L62.4645 44.9805C61.8587 44.3411 61.267 43.7166 60.5773 43.2204C59.3225 42.3238 59.1295 42.4126 58.761 42.7677C58.3573 43.1671 57.9274 43.6287 57.5237 44.0903C57.0273 44.674 56.8181 44.9008 56.5975 45.1399L56.5975 45.1399C56.3619 45.3953 56.1133 45.6647 55.488 46.3982L55.4757 46.2545L55.4757 46.254L55.4757 46.2537L55.4757 46.2535L55.4756 46.253C55.3872 45.2171 54.947 40.0586 54.8562 36.6517C54.8386 35.9682 54.2858 35.4267 53.6102 35.4267H50.0301C49.3544 35.4267 48.8016 35.9682 48.784 36.6517C48.6933 40.0576 48.2533 45.2143 48.1647 46.2521L48.1646 46.2527L48.1646 46.2529L48.1646 46.2535L48.1645 46.254L48.1645 46.2545L48.1523 46.3982C47.5192 45.6503 47.273 45.3848 47.0319 45.1248C46.8152 44.8911 46.6025 44.6618 46.1165 44.0903C45.7129 43.6198 45.2829 43.1583 44.8793 42.7677C44.5195 42.4126 44.3177 42.3238 43.0629 43.2204C42.3732 43.7167 41.7815 44.3412 41.1756 44.9806L41.1752 44.9811C41.0335 45.1306 40.891 45.281 40.7463 45.4307C40.5621 45.6171 40.5445 45.91 40.7025 46.1231C41.9893 47.8091 42.4595 48.4355 43.1421 49.3451L43.1422 49.3452L43.1442 49.3478C43.5177 49.8455 43.9552 50.4284 44.6248 51.3159C44.8223 51.5769 45.0386 51.8514 45.2623 52.1354L45.2624 52.1355L45.2626 52.1358C46.1423 53.2523 47.1377 54.5157 47.5643 55.6832C47.9796 56.814 47.6461 61.1813 47.4407 63.8709L47.4407 63.871L47.4407 63.8712L47.4407 63.8713C47.364 64.8761 47.3051 65.6468 47.3099 65.9268C47.3099 65.9268 40.1058 58.2042 38.2192 56.0028C37.4119 55.053 37.0785 55.3104 36.0869 56.2069C35.8056 56.4604 35.5507 56.6738 35.3023 56.8817L35.3022 56.8817L35.3022 56.8818L35.302 56.8819C35.0547 57.0889 34.814 57.2904 34.5601 57.5207C33.6827 58.3107 33.9547 59.0474 34.4548 59.7753C36.5495 62.8421 39.8049 67.1939 42.7057 71.0717C44.0702 72.8958 45.3562 74.615 46.4061 76.0462C46.8912 76.706 46.8862 77.5626 46.881 78.4443L46.8801 78.6216L46.8799 78.7181C46.8624 82.1622 45.8971 88.8552 45.8971 88.8552C49.6791 90.4885 53.9524 90.5418 57.7694 88.9973L58.1204 88.8552C58.1204 88.8552 56.7428 82.1622 56.7252 78.7181H56.7603C56.7603 78.6282 56.7598 78.5382 56.7592 78.4483ZM71.8617 54.2718C73.4587 54.1653 74.5029 52.9048 74.4063 51.2094C74.2747 48.8659 73.1165 47.7919 70.8877 47.9339C69.589 48.0226 68.3869 49.5938 68.4044 51.0141C68.4395 53.1889 70.1857 54.3872 71.8617 54.2718ZM28.9969 51.2094C28.9004 52.9048 29.9446 54.1653 31.5416 54.2718C33.2176 54.3872 34.9638 53.1889 34.9989 51.0141C35.0164 49.5938 33.8143 48.0226 32.5156 47.9339C30.2868 47.7919 29.1285 48.8659 28.9969 51.2094ZM65.0876 41.6048C66.6846 41.4983 67.7288 40.2378 67.6322 38.5424C67.5006 36.199 66.3424 35.1249 64.1136 35.2669C62.8149 35.3557 61.6128 36.9269 61.6303 38.3471C61.6654 40.5219 63.4116 41.7202 65.0876 41.6048ZM54.8298 29.1598C54.9264 30.8552 53.8822 32.1157 52.2852 32.2222C50.6092 32.3376 48.863 31.1393 48.8279 28.9645C48.8104 27.5442 50.0125 25.9731 51.3112 25.8843C53.54 25.7423 54.6982 26.8163 54.8298 29.1598ZM38.07 41.6048C36.473 41.4983 35.4288 40.2378 35.5254 38.5424C35.657 36.199 36.8153 35.1249 39.044 35.2669C40.3427 35.3557 41.5448 36.9269 41.5273 38.3471C41.4922 40.5219 39.746 41.7202 38.07 41.6048Z" fill="#532826"/>
</svg>
