<svg id="Capa_1" data-name="Capa 1" xmlns="http://www.w3.org/2000/svg" viewBox="0 0 200 200"><path d="M.07,103.65a50.13,50.13,0,0,0,.46,6.72,10.23,10.23,0,0,0,7.37,8.79,38.84,38.84,0,0,0,6.56,1.46c4,.56,8.05.89,12.07,1.39,2.22.28,4.46.6,6.64,1.1,3.73.85,5.26,3.93,3.34,7.1a63.84,63.84,0,0,1-3.89,5.48c-3,3.93-6.15,7.78-9.12,11.73a27.31,27.31,0,0,0-2.7,4.66,9.81,9.81,0,0,0,.27,9.09,13.64,13.64,0,0,0,2.26,3.34c4.09,4.18,8.25,8.28,12.43,12.37A11.2,11.2,0,0,0,38,178.39a9.85,9.85,0,0,0,10.26.43A55,55,0,0,0,55,174.39c4.29-3.27,8.44-6.72,12.74-10a19,19,0,0,1,3.6-1.73c1.42-.67,3.88.59,4.51,2.08a15.73,15.73,0,0,1,1.19,3.85c.72,5.36,1.32,10.73,2,16.09a30.7,30.7,0,0,0,1.75,7.88,10.48,10.48,0,0,0,7.87,6.68,18.47,18.47,0,0,0,2.66.45,117.77,117.77,0,0,0,17.52,0,18.66,18.66,0,0,0,2.64-.52,10.16,10.16,0,0,0,7.57-7,45.08,45.08,0,0,0,1.69-7.91c.75-5.34,1.26-10.73,2-16.08a15.07,15.07,0,0,1,1.4-3.75,4,4,0,0,1,3.37-1.81,10.06,10.06,0,0,1,2.56.69,39.28,39.28,0,0,1,4.45,3c3.55,2.75,7,5.63,10.58,8.37a65.71,65.71,0,0,0,5.58,3.77,10.81,10.81,0,0,0,12.62-1,93.16,93.16,0,0,0,14.25-14.31,9.41,9.41,0,0,0,.72-1.13,10.09,10.09,0,0,0,.56-10.3,48.47,48.47,0,0,0-4.39-6.78c-3.26-4.31-6.7-8.47-10-12.78a16.48,16.48,0,0,1-1.71-3.62c-.58-1.38.61-4.11,1.94-4.6a20.16,20.16,0,0,1,3.83-1.25c4.45-.62,8.93-1,13.39-1.64a74.81,74.81,0,0,0,9.28-1.65c4.72-1.25,7.42-4.58,8.28-9.62a11.78,11.78,0,0,0,.16-1.33,101.72,101.72,0,0,0-.06-17.54,16,16,0,0,0-.91-3.92,9.38,9.38,0,0,0-5.33-5.77,29.47,29.47,0,0,0-6.46-1.82c-5.79-.84-11.61-1.45-17.41-2.15a13.62,13.62,0,0,1-5.08-1.65,4.78,4.78,0,0,1-1.77-3.44,7.6,7.6,0,0,1,.65-2.56,65.72,65.72,0,0,1,3.83-5.54c3.26-4.3,6.66-8.49,9.87-12.85a20.63,20.63,0,0,0,2.39-4.79,9.21,9.21,0,0,0-.67-7.83,14.41,14.41,0,0,0-2.27-3.33c-4.08-4.18-8.22-8.32-12.42-12.37a13.15,13.15,0,0,0-3.4-2.15,9,9,0,0,0-7.82-.32,32,32,0,0,0-5.86,3.28c-4.32,3.23-8.48,6.68-12.76,10a48.87,48.87,0,0,1-4.51,2.92c-2.19,1.33-5.91-.36-6.44-2.95-.45-2.19-.85-4.41-1.14-6.64-.67-4.91-1.19-9.83-1.88-14.73a24.63,24.63,0,0,0-1.38-5.2A10.37,10.37,0,0,0,110.91.43a13.33,13.33,0,0,0-2.66-.38C102.86,0,97.46,0,92.07,0a16.48,16.48,0,0,0-4,.61,9.78,9.78,0,0,0-7,5.85A27.54,27.54,0,0,0,79.34,13c-.78,5.35-1.28,10.73-2,16.08a43.28,43.28,0,0,1-1.23,5.24c-.52,1.91-3.79,3.4-5.5,2.52a22.73,22.73,0,0,1-3.51-2c-3.93-3-7.74-6.17-11.68-9.16a61.92,61.92,0,0,0-6.71-4.51c-3.88-2.23-7.76-1.76-11.48.56a12.21,12.21,0,0,0-2.16,1.6c-3.85,3.78-7.78,7.5-11.45,11.45-4.68,5-5.08,10.42-1.18,16,3.11,4.41,6.53,8.59,9.83,12.88a42.78,42.78,0,0,1,4.62,6.61c.95,1.87,0,5-2,5.7a18.85,18.85,0,0,1-3.83,1.19c-4,.55-8,.93-12.06,1.4-2.22.26-4.46.57-6.67.94C3.75,80.87.42,84.49.12,92.83,0,96.43,0,100,0,103.64Z" style="fill:#42201e"/></svg>