<svg width="1286" height="401" viewBox="0 0 1286 401" fill="none" xmlns="http://www.w3.org/2000/svg">
<path d="M1285.93 205.429C1285.89 207.84 1285.79 210.27 1285.43 212.649C1284.71 217.35 1282.09 220.649 1277.5 222.096C1275.22 222.825 1272.83 223.339 1270.45 223.669C1266.14 224.272 1261.8 224.621 1257.48 225.166C1255.09 225.458 1252.69 225.807 1250.34 226.346C1246.33 227.254 1244.68 230.572 1246.76 233.978C1248 236.034 1249.47 237.969 1250.94 239.872C1254.18 244.091 1257.54 248.228 1260.74 252.478C1261.88 254.014 1262.81 255.746 1263.64 257.484C1265.22 260.758 1264.98 264.076 1263.35 267.26C1262.69 268.542 1261.92 269.83 1260.92 270.851C1256.53 275.337 1252.05 279.752 1247.56 284.142C1246.88 284.809 1246 285.278 1245.17 285.773C1241.57 287.917 1237.82 288.222 1234.13 286.23C1231.59 284.847 1229.17 283.21 1226.87 281.465C1222.25 277.95 1217.79 274.245 1213.17 270.731C1212.05 269.874 1210.6 269.481 1209.3 268.872C1207.77 268.149 1205.13 269.506 1204.45 271.111C1203.9 272.437 1203.36 273.833 1203.17 275.248C1202.39 281.002 1201.75 286.775 1201.05 292.542C1200.69 295.429 1200.25 298.309 1199.16 301.012C1197.59 304.869 1194.78 307.312 1190.7 308.194C1189.76 308.397 1188.81 308.612 1187.84 308.682C1181.56 309.094 1175.29 309.139 1169.01 308.619C1168.06 308.542 1167.1 308.295 1166.16 308.067C1162.08 307.052 1159.31 304.444 1158.03 300.536C1157.13 297.795 1156.61 294.902 1156.22 292.041C1155.41 286.293 1154.87 280.507 1154.07 274.747C1153.87 273.357 1153.14 272.031 1152.56 270.718C1152.09 269.646 1149.98 268.561 1148.94 268.777C1148.01 269.011 1146.98 269.056 1146.19 269.519C1144.52 270.483 1142.93 271.593 1141.4 272.78C1137.58 275.743 1133.86 278.839 1130.02 281.782C1128.12 283.248 1126.08 284.574 1124.03 285.83C1119.78 288.431 1114.5 288.031 1110.47 284.764C1104.82 280.19 1099.69 275.076 1095.14 269.379C1094.84 269.005 1094.62 268.574 1094.37 268.161C1092.22 264.577 1091.86 260.796 1093.77 257.091C1095.09 254.521 1096.75 252.11 1098.49 249.801C1101.99 245.17 1105.69 240.691 1109.19 236.059C1110.03 234.943 1110.47 233.496 1111.02 232.17C1111.64 230.686 1110.37 227.755 1108.93 227.228C1107.58 226.733 1106.23 226.086 1104.82 225.883C1100.04 225.217 1095.22 224.779 1090.43 224.119C1087.09 223.663 1083.71 223.212 1080.45 222.349C1075.37 221.004 1072.47 217.42 1071.55 212.008C1071.47 211.532 1071.4 211.057 1071.37 210.574C1070.91 204.287 1070.82 198 1071.44 191.719C1071.58 190.292 1071.92 188.852 1072.42 187.5C1073.46 184.671 1075.33 182.419 1078.15 181.302C1080.38 180.433 1082.73 179.678 1085.1 179.342C1091.31 178.441 1097.57 177.787 1103.81 177.032C1105.74 176.798 1107.57 176.22 1109.27 175.262C1110.14 174.774 1111.36 172.56 1111.18 171.564C1111 170.631 1110.94 169.578 1110.47 168.804C1109.21 166.755 1107.82 164.769 1106.36 162.853C1102.85 158.228 1099.19 153.724 1095.75 149.042C1094.63 147.513 1093.86 145.679 1093.17 143.89C1092.08 141.022 1092.48 138.155 1093.89 135.478C1094.57 134.202 1095.35 132.914 1096.34 131.899C1100.73 127.401 1105.17 122.954 1109.69 118.596C1110.71 117.612 1112.06 116.921 1113.34 116.286C1116.07 114.929 1118.97 114.713 1121.75 115.944C1123.95 116.914 1126.13 118.056 1128.05 119.471C1132.7 122.941 1137.17 126.646 1141.77 130.18C1143.3 131.354 1144.97 132.331 1146.61 133.327C1148.97 134.754 1152.96 132.94 1153.53 130.155C1154.02 127.795 1154.45 125.416 1154.76 123.017C1155.48 117.739 1156.04 112.448 1156.79 107.182C1157.06 105.279 1157.58 103.382 1158.27 101.587C1159.76 97.6658 1162.72 95.3819 1166.77 94.462C1167.7 94.2526 1168.67 94.0686 1169.63 94.056C1175.43 94.0115 1181.23 93.9734 1187.03 94.0242C1188.46 94.0369 1189.92 94.3161 1191.31 94.6777C1194.79 95.5595 1197.43 97.6468 1198.81 100.965C1199.72 103.179 1200.36 105.564 1200.71 107.931C1201.55 113.679 1202.09 119.465 1202.87 125.219C1203.12 127.122 1203.69 128.987 1204.19 130.853C1204.75 132.908 1208.26 134.507 1210.1 133.562C1211.38 132.902 1212.74 132.312 1213.88 131.443C1218.1 128.207 1222.2 124.807 1226.43 121.59C1228.74 119.845 1231.13 118.183 1233.64 116.743C1237.82 114.345 1241.99 114.859 1245.99 117.346C1246.8 117.86 1247.63 118.392 1248.31 119.065C1252.45 123.132 1256.67 127.129 1260.62 131.379C1265.65 136.81 1266.08 142.583 1261.89 148.534C1258.54 153.273 1254.87 157.771 1251.33 162.377C1249.56 164.674 1247.67 166.869 1246.35 169.489C1245.33 171.5 1246.36 174.812 1248.5 175.611C1249.84 176.113 1251.2 176.702 1252.61 176.893C1256.91 177.489 1261.24 177.889 1265.57 178.396C1267.97 178.682 1270.37 179.012 1272.75 179.405C1281.97 180.94 1285.55 184.829 1285.88 193.794C1286.02 197.664 1286.02 201.534 1285.97 205.41L1285.93 205.429Z" fill="#42201E"/>
<path d="M1226.5 55L1214 67.5L1226.5 80L1239 67.5L1226.5 55Z" fill="#42201E"/>
<path d="M1252.5 324L1240 336.5L1252.5 349L1265 336.5L1252.5 324Z" fill="#42201E"/>
<path d="M1246.99 20.3362C1245.11 24.9583 1248.04 27.8868 1252.66 26.0128C1253.18 25.805 1253.77 26.0401 1253.99 26.5503C1255.93 31.1499 1260.07 31.1499 1262.01 26.5503C1262.23 26.0401 1262.82 25.805 1263.34 26.0128C1267.96 27.8858 1270.89 24.9583 1269.01 20.3362C1268.81 19.8231 1269.04 19.228 1269.55 19.0124C1274.15 17.0702 1274.15 12.9291 1269.55 10.9868C1269.04 10.7712 1268.81 10.1762 1269.01 9.66304C1270.89 5.04102 1267.96 2.1125 1263.34 3.98648C1262.82 4.19426 1262.23 3.95916 1262.01 3.44896C1260.07 -1.14965 1255.93 -1.14965 1253.99 3.44896C1253.77 3.95916 1253.18 4.19426 1252.66 3.98648C1248.04 2.11347 1245.11 5.04102 1246.99 9.66304C1247.19 10.1762 1246.96 10.7712 1246.45 10.9868C1241.85 12.9291 1241.85 17.0702 1246.45 19.0124C1246.96 19.228 1247.19 19.8231 1246.99 20.3362Z" fill="#42201E"/>
<path d="M1202.99 391.336C1201.11 395.958 1204.04 398.887 1208.66 397.013C1209.18 396.805 1209.77 397.04 1209.99 397.55C1211.93 402.15 1216.07 402.15 1218.01 397.55C1218.23 397.04 1218.82 396.805 1219.34 397.013C1223.96 398.886 1226.89 395.958 1225.01 391.336C1224.81 390.823 1225.04 390.228 1225.55 390.012C1230.15 388.07 1230.15 383.929 1225.55 381.987C1225.04 381.771 1224.81 381.176 1225.01 380.663C1226.89 376.041 1223.96 373.112 1219.34 374.986C1218.82 375.194 1218.23 374.959 1218.01 374.449C1216.07 369.85 1211.93 369.85 1209.99 374.449C1209.77 374.959 1209.18 375.194 1208.66 374.986C1204.04 373.113 1201.11 376.041 1202.99 380.663C1203.19 381.176 1202.96 381.771 1202.45 381.987C1197.85 383.929 1197.85 388.07 1202.45 390.012C1202.96 390.228 1203.19 390.823 1202.99 391.336Z" fill="#42201E"/>
<path d="M0.0733833 205.429C0.111407 207.84 0.212828 210.27 0.574053 212.649C1.29017 217.35 3.9138 220.649 8.49566 222.096C10.7834 222.825 13.1662 223.339 15.5491 223.669C19.8584 224.272 24.1994 224.621 28.5151 225.166C30.9106 225.458 33.3124 225.807 35.6572 226.346C39.6687 227.254 41.3164 230.572 39.2441 233.978C37.9957 236.034 36.5254 237.969 35.0615 239.872C31.8232 244.091 28.4581 248.228 25.2641 252.478C24.117 254.014 23.1855 255.746 22.3553 257.484C20.7836 260.758 21.0244 264.076 22.6468 267.26C23.3059 268.542 24.079 269.83 25.0803 270.851C29.4721 275.337 33.9462 279.752 38.4393 284.142C39.1237 284.809 40.0046 285.278 40.8348 285.773C44.428 287.917 48.1797 288.222 51.868 286.23C54.4093 284.847 56.8301 283.21 59.1305 281.465C63.7504 277.95 68.2119 274.245 72.8318 270.731C73.9471 269.874 75.4047 269.481 76.7038 268.872C78.2311 268.149 80.8738 269.506 81.5455 271.111C82.1032 272.437 82.6355 273.833 82.832 275.248C83.6051 281.002 84.2515 286.775 84.955 292.542C85.3098 295.429 85.7471 298.309 86.8435 301.012C88.4088 304.869 91.2162 307.312 95.3038 308.194C96.2417 308.397 97.1923 308.612 98.1555 308.682C104.436 309.094 110.71 309.139 116.99 308.619C117.941 308.542 118.897 308.295 119.835 308.067C123.917 307.052 126.686 304.444 127.966 300.536C128.866 297.795 129.392 294.902 129.785 292.041C130.59 286.293 131.135 280.507 131.933 274.747C132.13 273.357 132.865 272.031 133.435 270.718C133.91 269.646 136.021 268.561 137.06 268.777C137.992 269.011 139.018 269.056 139.81 269.519C141.477 270.483 143.074 271.593 144.595 272.78C148.417 275.743 152.136 278.839 155.977 281.782C157.884 283.248 159.919 284.574 161.972 285.83C166.218 288.431 171.497 288.031 175.534 284.764C181.18 280.19 186.313 275.076 190.857 269.379C191.161 269.005 191.383 268.574 191.63 268.161C193.779 264.577 194.14 260.796 192.232 257.091C190.914 254.521 189.248 252.11 187.511 249.801C184.013 245.17 180.312 240.691 176.814 236.059C175.971 234.943 175.534 233.496 174.976 232.17C174.355 230.686 175.629 227.755 177.067 227.228C178.424 226.733 179.773 226.086 181.18 225.883C185.965 225.217 190.781 224.779 195.572 224.119C198.912 223.663 202.29 223.212 205.547 222.349C210.63 221.004 213.532 217.42 214.451 212.008C214.527 211.532 214.597 211.057 214.628 210.574C215.091 204.287 215.18 198 214.559 191.719C214.419 190.292 214.077 188.852 213.583 187.5C212.537 184.671 210.674 182.419 207.848 181.302C205.617 180.433 203.266 179.678 200.902 179.342C194.685 178.441 188.43 177.787 182.194 177.032C180.255 176.798 178.43 176.22 176.725 175.262C175.857 174.774 174.64 172.56 174.824 171.564C174.995 170.631 175.058 169.578 175.527 168.804C176.789 166.755 178.176 164.769 179.64 162.853C183.151 158.228 186.808 153.724 190.249 149.042C191.371 147.513 192.137 145.679 192.828 143.89C193.918 141.022 193.519 138.155 192.106 135.478C191.434 134.202 190.654 132.914 189.66 131.899C185.274 127.401 180.825 122.954 176.307 118.596C175.293 117.612 173.943 116.921 172.657 116.286C169.932 114.929 167.029 114.713 164.247 115.944C162.054 116.914 159.874 118.056 157.954 119.471C153.303 122.941 148.835 126.646 144.228 130.18C142.7 131.354 141.027 132.331 139.386 133.327C137.035 134.754 133.036 132.94 132.466 130.155C131.978 127.795 131.553 125.416 131.236 123.017C130.52 117.739 129.962 112.448 129.215 107.182C128.936 105.279 128.416 103.382 127.732 101.587C126.242 97.6658 123.277 95.3819 119.233 94.462C118.295 94.2526 117.326 94.0686 116.369 94.056C110.57 94.0115 104.765 93.9734 98.973 94.0242C97.5408 94.0369 96.0832 94.3161 94.689 94.6777C91.2099 95.5595 88.5672 97.6468 87.192 100.965C86.2794 103.179 85.6394 105.564 85.2908 107.931C84.4543 113.679 83.9093 119.465 83.1298 125.219C82.8763 127.122 82.306 128.987 81.8053 130.853C81.2476 132.908 77.7368 134.507 75.899 133.562C74.6189 132.902 73.2627 132.312 72.122 131.443C67.9013 128.207 63.8011 124.807 59.5678 121.59C57.261 119.845 54.8655 118.183 52.356 116.743C48.1797 114.345 44.0098 114.859 40.011 117.346C39.1998 117.86 38.3696 118.392 37.6852 119.065C33.5469 123.132 29.3263 127.129 25.3845 131.379C20.3464 136.81 19.9217 142.583 24.1107 148.534C27.4568 153.273 31.1324 157.771 34.675 162.377C36.4431 164.674 38.3252 166.869 39.6497 169.489C40.67 171.5 39.637 174.812 37.5014 175.611C36.1579 176.113 34.7954 176.702 33.3948 176.893C29.0855 177.489 24.7571 177.889 20.4287 178.396C18.0332 178.682 15.6314 179.012 13.2549 179.405C4.02784 180.94 0.453631 184.829 0.124092 193.794C-0.0153278 197.664 -0.0216806 201.534 0.0290177 205.41L0.0733833 205.429Z" fill="#42201E"/>
<path d="M59.5 55L72 67.5L59.5 80L47 67.5L59.5 55Z" fill="#42201E"/>
<path d="M33.5 324L46 336.5L33.5 349L21 336.5L33.5 324Z" fill="#42201E"/>
<path d="M39.0129 20.3362C40.8858 24.9583 37.9584 27.8868 33.3365 26.0128C32.8234 25.805 32.2283 26.0401 32.0127 26.5503C30.0705 31.1499 25.9295 31.1499 23.9873 26.5503C23.7717 26.0401 23.1766 25.805 22.6635 26.0128C18.0416 27.8858 15.1132 24.9583 16.9871 20.3362C17.1949 19.8231 16.9598 19.228 16.4496 19.0124C11.8501 17.0702 11.8501 12.9291 16.4496 10.9868C16.9598 10.7712 17.1949 10.1762 16.9871 9.66304C15.1141 5.04102 18.0416 2.1125 22.6635 3.98648C23.1766 4.19426 23.7717 3.95916 23.9873 3.44896C25.9295 -1.14965 30.0705 -1.14965 32.0127 3.44896C32.2283 3.95916 32.8234 4.19426 33.3365 3.98648C37.9584 2.11347 40.8868 5.04102 39.0129 9.66304C38.8051 10.1762 39.0402 10.7712 39.5504 10.9868C44.1499 12.9291 44.1499 17.0702 39.5504 19.0124C39.0402 19.228 38.8051 19.8231 39.0129 20.3362Z" fill="#42201E"/>
<path d="M83.0129 391.336C84.8858 395.958 81.9584 398.887 77.3365 397.013C76.8234 396.805 76.2283 397.04 76.0127 397.55C74.0705 402.15 69.9295 402.15 67.9873 397.55C67.7717 397.04 67.1766 396.805 66.6635 397.013C62.0416 398.886 59.1132 395.958 60.9871 391.336C61.1949 390.823 60.9598 390.228 60.4496 390.012C55.8501 388.07 55.8501 383.929 60.4496 381.987C60.9598 381.771 61.1949 381.176 60.9871 380.663C59.1141 376.041 62.0416 373.112 66.6635 374.986C67.1766 375.194 67.7717 374.959 67.9873 374.449C69.9295 369.85 74.0705 369.85 76.0127 374.449C76.2283 374.959 76.8234 375.194 77.3365 374.986C81.9584 373.113 84.8868 376.041 83.0129 380.663C82.8051 381.176 83.0402 381.771 83.5504 381.987C88.1499 383.929 88.1499 388.07 83.5504 390.012C83.0402 390.228 82.8051 390.823 83.0129 391.336Z" fill="#42201E"/>
</svg>
