<svg xmlns="http://www.w3.org/2000/svg" viewBox="0 0 41.05 40"><path d="M41,20.73a10,10,0,0,1-.1,1.34,2,2,0,0,1-1.51,1.76,7.73,7.73,0,0,1-1.35.29c-.82.12-1.65.18-2.47.28-.46.06-.92.12-1.37.22-.76.17-1.08.79-.68,1.42.24.38.52.74.8,1.1.62.78,1.26,1.55,1.87,2.34a4.92,4.92,0,0,1,.55.94,1.91,1.91,0,0,1-.05,1.81,2.88,2.88,0,0,1-.47.67c-.83.84-1.69,1.66-2.55,2.48a2.71,2.71,0,0,1-.45.3,2.07,2.07,0,0,1-2.11.08,10.52,10.52,0,0,1-1.39-.88c-.88-.66-1.73-1.35-2.61-2a5,5,0,0,0-.74-.35.84.84,0,0,0-.93.42,3.12,3.12,0,0,0-.24.77c-.15,1.07-.27,2.15-.41,3.22a6,6,0,0,1-.36,1.57,2.12,2.12,0,0,1-1.61,1.34,3.5,3.5,0,0,1-.55.09,24,24,0,0,1-3.6,0,5.12,5.12,0,0,1-.54-.1,2.07,2.07,0,0,1-1.55-1.4,9.38,9.38,0,0,1-.35-1.59c-.15-1.06-.26-2.14-.41-3.21a3,3,0,0,0-.29-.75.82.82,0,0,0-.69-.36,2.09,2.09,0,0,0-.52.13,8.15,8.15,0,0,0-.92.61c-.73.55-1.44,1.13-2.17,1.68a12.45,12.45,0,0,1-1.14.75,2.27,2.27,0,0,1-2.59-.2,18.87,18.87,0,0,1-2.93-2.86,1.82,1.82,0,0,1-.15-.23,2,2,0,0,1-.11-2.06A9.32,9.32,0,0,1,5.25,29c.67-.87,1.37-1.7,2-2.56a3.2,3.2,0,0,0,.35-.72.84.84,0,0,0-.4-.92,3.22,3.22,0,0,0-.78-.25c-.92-.13-1.84-.21-2.75-.33a17.73,17.73,0,0,1-1.91-.33A2.22,2.22,0,0,1,.1,22l0-.27a20.57,20.57,0,0,1,0-3.51,3.42,3.42,0,0,1,.19-.78,1.91,1.91,0,0,1,1.1-1.16,6,6,0,0,1,1.32-.36c1.19-.17,2.38-.29,3.57-.43a3,3,0,0,0,1-.33.94.94,0,0,0,.36-.69,1.42,1.42,0,0,0-.13-.51c-.24-.38-.51-.75-.79-1.11-.67-.86-1.37-1.7-2-2.57a4.17,4.17,0,0,1-.5-1,1.82,1.82,0,0,1,.14-1.56,2.88,2.88,0,0,1,.47-.67c.84-.84,1.69-1.66,2.55-2.47a2.28,2.28,0,0,1,.7-.43,1.84,1.84,0,0,1,1.6-.07,6.33,6.33,0,0,1,1.2.66c.89.64,1.74,1.33,2.62,2,.3.22.61.4.93.59a1,1,0,0,0,1.32-.59c.09-.44.17-.89.23-1.33.14-1,.25-2,.39-2.95a4.86,4.86,0,0,1,.28-1A2.11,2.11,0,0,1,18.29.09,2.52,2.52,0,0,1,18.83,0h3.32A3.69,3.69,0,0,1,23,.13,2,2,0,0,1,24.4,1.3a5.29,5.29,0,0,1,.37,1.29c.16,1.07.26,2.15.41,3.22a10,10,0,0,0,.25,1.05,1,1,0,0,0,1.13.5A5,5,0,0,0,27.28,7c.81-.61,1.59-1.24,2.4-1.84a14.21,14.21,0,0,1,1.38-.9,2.22,2.22,0,0,1,2.35.11,3,3,0,0,1,.45.32c.79.76,1.59,1.5,2.35,2.29a2.28,2.28,0,0,1,.24,3.2c-.64.88-1.34,1.71-2,2.57a8.64,8.64,0,0,0-1,1.32.88.88,0,0,0,.41,1.14,3.26,3.26,0,0,0,.79.24c.82.11,1.65.19,2.47.28.46.05.92.12,1.37.19,1.76.28,2.45,1,2.51,2.68,0,.72,0,1.44,0,2.16Z" style="fill:#ffffff"/></svg>