<svg version="1.1" id="Capa_1" xmlns="http://www.w3.org/2000/svg" xmlns:xlink="http://www.w3.org/1999/xlink" x="0px" y="0px" viewBox="0 0 196.7 196.7" style="enable-background:new 0 0 196.7 196.7;" xml:space="preserve">
  <style type="text/css">
    .st0{fill:#005E3D;}.st1{fill:#F6E7E0;}.st2{fill:#8DC8E8;}
  </style>
	<path class="st0" d="M194.2,76.3c0.6,2.2,1.1,4.4,1.4,6.6c0.5,4.4-0.9,7.9-4.6,10.3c-1.8,1.2-3.8,2.2-5.8,3.1
		c-3.7,1.6-7.4,2.9-11.1,4.4c-2,0.8-4.1,1.7-6,2.8c-3.3,1.8-3.9,5.1-1.2,7.7c1.6,1.5,3.4,2.9,5.2,4.3c3.9,3,7.9,5.9,11.8,8.9
		c1.4,1.1,2.7,2.4,3.8,3.8c2.2,2.5,2.8,5.6,2.2,8.8c-0.3,1.3-0.6,2.6-1.3,3.8c-2.8,5.1-5.6,10.1-8.5,15.1c-0.4,0.8-1.1,1.4-1.7,2
		c-2.6,2.8-5.9,4-9.6,3.1c-2.6-0.6-5.1-1.5-7.6-2.5c-5-2-9.8-4.3-14.8-6.3c-1.2-0.5-2.6-0.5-3.9-0.7c-1.5-0.3-3.5,1.6-3.7,3.2
		c-0.2,1.3-0.3,2.7-0.1,4c0.8,5.3,1.6,10.6,2.5,16c0.4,2.7,0.7,5.3,0.5,8c-0.4,3.8-2.3,6.7-5.7,8.5c-0.8,0.4-1.6,0.8-2.4,1.1
		c-5.4,1.9-11,3.4-16.6,4.5c-0.9,0.2-1.8,0.2-2.7,0.2c-3.9,0.1-7-1.6-9.1-4.8c-1.5-2.2-2.7-4.7-3.7-7.2c-2.2-4.9-4.1-10-6.2-14.9
		c-0.5-1.2-1.5-2.2-2.3-3.2c-0.7-0.8-2.8-1.3-3.7-0.9c-0.8,0.4-1.7,0.7-2.2,1.3c-1.2,1.3-2.4,2.6-3.4,4.1c-2.6,3.6-5.1,7.2-7.8,10.8
		c-1.3,1.8-2.8,3.4-4.3,5.1c-3.1,3.3-7.9,4.3-12.2,2.3c-6.1-2.7-11.9-6.1-17.4-10.1c-0.4-0.3-0.7-0.6-1-0.9c-2.8-2.7-4.1-6-3.3-9.7
		c0.5-2.6,1.4-5.2,2.3-7.7c1.9-5,4.1-9.9,6-14.8c0.5-1.2,0.5-2.6,0.6-3.9c0.2-1.5-1.7-3.8-3.1-3.9c-1.3-0.1-2.7-0.4-4-0.2
		c-4.4,0.6-8.8,1.3-13.1,1.9c-3.1,0.4-6.2,0.8-9.2,0.8c-4.8,0-8.3-2.5-10.5-7.1c-0.2-0.4-0.4-0.8-0.5-1.2c-2-5.5-3.6-11.1-4.7-16.9
		c-0.2-1.3-0.3-2.7-0.2-4c0.2-2.8,1.3-5.2,3.5-6.9c1.8-1.3,3.6-2.5,5.6-3.4c5.3-2.3,10.6-4.4,15.9-6.6c1.6-0.7,3.1-1.6,4.4-2.9
		c0.6-0.6,1.2-2.9,0.7-3.8c-0.4-0.8-0.7-1.7-1.3-2.3c-1.6-1.5-3.4-3-5.1-4.3c-4.3-3.3-8.6-6.4-12.8-9.8c-1.4-1.1-2.5-2.6-3.6-4
		c-1.7-2.3-2-5-1.5-7.7c0.3-1.3,0.6-2.6,1.3-3.8c2.7-5.1,5.6-10.1,8.4-15.1c0.6-1.1,1.7-2.1,2.6-2.9c2.1-1.9,4.6-2.8,7.3-2.3
		c2.2,0.3,4.4,0.8,6.4,1.6c5,2,9.9,4.2,14.8,6.3c1.6,0.7,3.4,1.2,5.1,1.7c2.4,0.7,5.5-1.9,5.3-4.5c-0.2-2.2-0.4-4.5-0.7-6.7
		c-0.7-4.9-1.5-9.7-2.2-14.6c-0.2-1.8-0.2-3.6-0.1-5.4c0.3-3.9,2.4-6.6,5.7-8.4c0.8-0.4,1.6-0.8,2.4-1c5.1-1.4,10.2-2.9,15.3-4.2
		c1.3-0.3,2.6-0.4,4-0.4C86.1,0,89,1.2,91,3.8c1.4,1.8,2.5,3.7,3.4,5.8c2.2,4.9,4.1,10,6.2,14.9c0.7,1.6,1.7,3.2,2.6,4.7
		c1,1.7,4.5,2.3,5.9,1c1-0.9,2-1.7,2.8-2.8c2.9-3.9,5.7-7.9,8.6-11.8c1.6-2.1,3.3-4.2,5.2-6.1c3.1-3.1,6.9-3.7,11.1-2.4
		c0.8,0.3,1.7,0.5,2.5,1c4.7,2.6,9.4,5.2,13.9,8.1c5.8,3.6,7.6,8.7,5.4,15c-1.8,5-3.9,9.9-5.9,14.9c-1,2.5-2.1,4.9-2.6,7.6
		c-0.4,2,1.4,4.7,3.4,5c1.3,0.1,2.7,0.3,3.9,0.2c4-0.5,7.9-1.2,11.8-1.8c2.2-0.3,4.4-0.6,6.6-0.8c8.5-0.8,12.7,1.8,15.2,9.7
		C192.2,69.3,193.2,72.8,194.2,76.3L194.2,76.3z"/>
	<path class="st1" d="M76.4,138.3c0.2-2.7,0.6-5.3,0.9-7.6l3.2,1.3c-0.3,1.8-0.6,3.7-0.9,5.8c-0.2,2.1-0.4,4-0.5,5.6l0.2,0.1
		c1.1-1.1,2.3-2.5,3.6-4.1s2.6-3.1,3.6-4.6l3.1,1.6c-1.4,1.9-3.1,3.8-4.8,5.8c-1.8,2-3.4,3.7-5,5.1l-3.8-1.7
		C76.1,143.4,76.2,141,76.4,138.3L76.4,138.3z"/>
	<path class="st1" d="M91.8,150.3c-1-0.5-1.5-1.3-1.4-2.5l0.7-11.3l10.4,0.9l-0.2,3.1l-7.1-0.6l-0.2,2.5l5.9,0.5l-0.2,3l-5.9-0.5
		l-0.1,2.4c0.8,0.2,1.6,0.4,2.6,0.5c1.5,0.1,2.9,0.1,4.1-0.1l0.2,3.1c-1.3,0.2-2.9,0.3-4.7,0.1C94.2,151.1,92.8,150.8,91.8,150.3
		L91.8,150.3z"/>
	<path class="st1" d="M106.7,148.9c-1.4-0.9-2.3-2.4-2.9-4.6c-0.4-1.5-0.4-2.8-0.2-4.1c0.2-1.3,0.8-2.3,1.6-3.2
		c0.9-0.9,2-1.5,3.5-1.8c1.9-0.4,3.6-0.5,5.2-0.1l0.2,0.9c0.1,0.5,0.2,1,0.3,1.6c0.1,0.5,0.1,1,0.1,1.4l-2.7,0.6l-0.6-1.5
		c-0.6,0-1.4,0.1-2.4,0.4c-0.8,0.2-1.6,0.5-2.3,0.8c0,1.3,0.1,2.7,0.5,4.2c0.2,0.9,0.5,1.6,0.9,2.1c0.4,0.5,0.8,0.8,1.4,0.9
		c0.6,0.1,1.3,0.1,2.2-0.1c0.4-0.1,0.8-0.2,1-0.3c0.2-0.1,0.5-0.2,0.9-0.4l-0.5-2.1l-2.9,0.7l-0.7-2.8l4.5-1.1l1.9,0.9l0.9,3.6
		c0.2,1-0.1,1.9-0.9,2.7c-0.8,0.8-2.1,1.4-3.7,1.8C109.8,149.9,108,149.8,106.7,148.9L106.7,148.9z"/>
	<path class="st1" d="M121.2,145.8c-0.8-2.3-1.6-4.7-2.3-7.3c-0.7-2.5-1.3-4.8-1.8-6.8l4-2.6c1.7,1.2,3.6,2.7,5.6,4.3
		c2,1.7,3.9,3.3,5.8,5l-2.8,2.1c-0.7-0.6-1.6-1.5-2.9-2.7l-3.8,2.5c0.6,1.8,1.1,3,1.3,3.7L121.2,145.8L121.2,145.8z M124.3,135.7
		c-1.1-0.9-2.2-1.9-3.4-2.8l-0.3,0.2c0.3,1.3,0.7,2.7,1.2,4.3L124.3,135.7z"/>
	<path class="st1" d="M125,126.3l2.6-3.6l11.1,2.7l0.1-0.2l-3.1-2l-5.5-4.1l1.9-2.7l11.4,8.4l-2.6,3.6l-11.1-2.7l-0.1,0.2l3.1,2
		l5.5,4.1l-1.9,2.7L125,126.3z"/>
	<path class="st1" d="M57.7,73.3c-2.4-1.3-4.7-2.5-6.7-3.8l2.2-2.5c1.5,1,3.2,2,5.1,3c1.8,1,3.5,1.9,4.9,2.6l0.2-0.2
		c-0.7-1.4-1.5-3.1-2.5-5c-1-1.9-2-3.6-3-5.2l2.5-2.3c1.3,2.1,2.5,4.3,3.8,6.8c1.2,2.5,2.2,4.7,3,6.6l-2.9,2.9
		C62.3,75.6,60.1,74.6,57.7,73.3L57.7,73.3z"/>
	<path class="st1" d="M71.8,69c-1.1,0.1-1.9-0.3-2.5-1.2l-5.8-9.8l8.9-5.3l1.6,2.7l-6,3.6l1.3,2.2l5.1-3l1.5,2.6l-5.1,3l1.2,2.1
		c0.7-0.3,1.5-0.6,2.4-1.1c1.3-0.8,2.4-1.6,3.3-2.5l1.9,2.4c-0.9,0.9-2.2,1.9-3.7,2.8C74.3,68.3,72.9,68.8,71.8,69L71.8,69z"/>
	<path class="st1" d="M81.7,62c-1.4-0.8-2.4-2.3-3.1-4.5c-0.4-1.5-0.6-2.8-0.4-4.1c0.2-1.3,0.7-2.3,1.5-3.3c0.8-0.9,2-1.6,3.4-2
		c1.8-0.5,3.5-0.7,5.2-0.4l0.3,0.9c0.1,0.5,0.3,1,0.4,1.5c0.1,0.5,0.2,1,0.2,1.3l-2.6,0.8l-0.7-1.5c-0.6,0-1.4,0.2-2.4,0.5
		c-0.8,0.2-1.5,0.5-2.3,0.9c0,1.3,0.3,2.7,0.7,4.1c0.3,0.9,0.6,1.6,1,2.1c0.4,0.5,0.9,0.8,1.5,0.9c0.6,0.1,1.3,0,2.2-0.2
		c0.4-0.1,0.8-0.2,1-0.3c0.2-0.1,0.5-0.2,0.8-0.4l-0.6-2.1l-2.9,0.8l-0.8-2.7l4.4-1.3l2,0.9l1.1,3.6c0.3,1,0,1.9-0.8,2.7
		c-0.8,0.8-2,1.5-3.6,2C84.9,62.9,83.1,62.8,81.7,62L81.7,62z"/>
	<path class="st1" d="M93.3,59.8c0.5-2.4,1.1-4.8,1.8-7.3c0.7-2.5,1.4-4.7,2-6.7l4.8-0.1c0.8,1.9,1.7,4.1,2.5,6.6
		c0.9,2.5,1.6,4.9,2.3,7.2l-3.5,0.3c-0.3-0.8-0.6-2.1-1.1-3.8l-4.6,0.1c-0.4,1.8-0.7,3.1-0.8,3.8L93.3,59.8L93.3,59.8z M101.3,53
		c-0.4-1.4-0.9-2.8-1.5-4.2l-0.3,0c-0.4,1.3-0.8,2.7-1.2,4.2L101.3,53z"/>
	<path class="st1" d="M111.4,46.1l4.3,1.1l1.9,11.4l0.2,0l0.6-3.7l1.5-6.6l3.3,0.9L120,62.9l-4.3-1.1l-1.9-11.4h-0.2l-0.6,3.7
		l-1.6,6.6l-3.3-0.9L111.4,46.1L111.4,46.1z"/>
	<path class="st2" d="M43.5,98c1.5,0.2,3.1,0.1,4.7-0.4c2.6-0.7,5.1-2.1,7.1-4.1l6.1,21.7l7.1-1.9l1.7,6l-19.1,5.1l-1.7-6l7.4-2
		l-4.2-14.9c-1.7,1.7-4,3-6.4,3.6L43.5,98L43.5,98z"/>
	<path class="st2" d="M76.7,87.4c7.3-2,13.8,2.3,16.2,11.2c2.5,8.8-0.9,15.4-8.2,17.4c-7.3,2-13.7-2.2-16.1-10.8
		C66.3,96.5,69.5,89.3,76.7,87.4z M83.6,109.3c4.5-1.2,6.4-4.1,5.1-8.7c-1.5-5.2-6.1-7.7-11.3-6.3c-4,1.1-5.7,4.2-4.4,8.8
		C74.4,108,79,110.5,83.6,109.3z"/>
	<path class="st2" d="M103.7,79.9c7.3-2,13.8,2.3,16.2,11.2s-0.9,15.4-8.2,17.4c-7.3,2-13.7-2.2-16.1-10.8
		C93.3,89,96.5,81.9,103.7,79.9z M110.6,101.8c4.5-1.2,6.4-4.1,5.1-8.7c-1.5-5.2-6.1-7.7-11.3-6.3c-4,1.1-5.7,4.2-4.4,8.8
		C101.4,100.6,106,103.1,110.6,101.8z"/>
	<path class="st2" d="M124,74.2c4.6-1.3,7.6,1.7,8.6,5.2c1.2,4.4-0.7,8-4.4,9c-3.7,1-7.4-1-8.6-5.5C118.6,79.6,119.5,75.4,124,74.2z
		 M128.4,103.1l8.7-31.8l4.5-1.2l-8.7,31.8L128.4,103.1z M127.3,83.6c2-0.5,2.7-1.7,2.3-2.8c-0.4-1.5-2.2-2.3-4.7-1.6
		c-2.1,0.6-2.8,1.7-2.5,2.8C122.9,83.6,124.7,84.3,127.3,83.6z M142,84.7c4.6-1.3,7.6,1.7,8.6,5.2c1.2,4.4-0.7,8-4.4,9
		c-3.7,1-7.4-1-8.6-5.5C136.6,90.1,137.5,85.9,142,84.7z M140.5,92.5c0.4,1.5,2.2,2.3,4.9,1.5c2-0.5,2.7-1.7,2.3-2.8
		c-0.4-1.5-2.2-2.3-4.7-1.6C140.8,90.3,140.1,91.4,140.5,92.5z"/>
</svg>
