<svg width="247" height="244" viewBox="0 0 247 244" fill="none" xmlns="http://www.w3.org/2000/svg">
<path d="M219.696 99.5958C220.264 101.758 220.782 103.954 221.065 106.174C221.612 110.55 220.124 114.119 216.44 116.52C214.607 117.717 212.63 118.747 210.61 119.621C206.957 121.195 203.212 122.547 199.544 124.066C197.504 124.906 195.468 125.794 193.532 126.833C190.218 128.61 189.596 131.973 192.284 134.516C193.903 136.058 195.687 137.427 197.458 138.779C201.372 141.778 205.381 144.662 209.267 147.698C210.665 148.797 211.922 150.122 213.088 151.471C215.3 154.015 215.916 157.042 215.278 160.281C215.021 161.583 214.658 162.924 214.027 164.071C211.276 169.136 208.432 174.148 205.567 179.155C205.129 179.915 204.47 180.547 203.861 181.186C201.227 183.962 197.987 185.138 194.235 184.244C191.647 183.616 189.106 182.739 186.633 181.725C181.676 179.69 176.805 177.444 171.848 175.409C170.649 174.916 169.266 174.907 167.964 174.669C166.438 174.394 164.445 176.236 164.252 177.836C164.087 179.153 163.969 180.535 164.15 181.837C164.907 187.172 165.785 192.484 166.615 197.799C167.023 200.468 167.364 203.136 167.069 205.828C166.652 209.648 164.791 212.51 161.397 214.279C160.617 214.688 159.83 215.109 158.999 215.404C153.562 217.275 148.035 218.825 142.365 219.862C141.504 220.017 140.602 220.026 139.714 220.05C135.853 220.123 132.758 218.449 130.649 215.266C129.168 213.036 127.979 210.569 126.91 208.109C124.754 203.164 122.823 198.119 120.676 193.171C120.157 191.981 119.173 190.967 118.338 189.932C117.655 189.092 115.511 188.629 114.653 189.069C113.889 189.503 112.987 189.788 112.409 190.398C111.178 191.66 110.046 193.032 109.006 194.458C106.379 198.02 103.865 201.68 101.214 205.23C99.9007 206.996 98.4365 208.675 96.9337 210.286C93.8362 213.631 89.0819 214.538 84.6924 212.586C78.5551 209.846 72.7477 206.514 67.3062 202.51C66.9426 202.254 66.6423 201.912 66.3136 201.607C63.5162 198.916 62.2541 195.631 63.0045 191.858C63.5252 189.242 64.3851 186.692 65.3406 184.205C67.2604 179.227 69.4086 174.336 71.3375 169.356C71.8074 168.154 71.8245 166.759 71.981 165.445C72.1595 163.967 70.2948 161.654 68.8986 161.53C67.5823 161.415 66.2275 161.161 64.929 161.317C60.5417 161.868 56.1774 162.639 51.781 163.192C48.7193 163.58 45.624 163.987 42.5344 163.998C37.7063 164.018 34.2493 161.506 32.0789 156.891C31.8884 156.489 31.7134 156.073 31.5654 155.65C29.5832 150.145 27.9238 144.543 26.902 138.787C26.6713 137.479 26.6071 136.107 26.7016 134.78C26.914 132.001 27.9933 129.539 30.2073 127.863C31.9589 126.55 33.8407 125.319 35.8409 124.44C41.1001 122.144 46.4598 120.068 51.7705 117.886C53.4194 117.211 54.893 116.259 56.1516 114.991C56.7963 114.342 57.3191 112.081 56.8955 111.23C56.508 110.438 56.1891 109.509 55.5806 108.935C53.955 107.405 52.2274 105.961 50.4545 104.599C46.1956 101.31 41.8385 98.1557 37.6301 94.8033C36.2531 93.7083 35.1152 92.2527 34.06 90.8141C32.3733 88.5119 32.0177 85.8579 32.5824 83.1217C32.8601 81.8238 33.2231 80.4831 33.8452 79.3382C36.5847 74.2663 39.4003 69.2231 42.2932 64.2476C42.9411 63.1252 43.9592 62.1783 44.9385 61.3011C47.0031 59.4391 49.513 58.5405 52.273 58.9838C54.4511 59.3288 56.6613 59.8228 58.7149 60.6255C63.6864 62.6073 68.566 64.8508 73.5193 66.9066C75.1588 67.5852 76.8876 68.0621 78.5828 68.5579C81.0096 69.2692 84.0881 66.6881 83.895 64.0591C83.7377 61.8344 83.5093 59.5994 83.1906 57.389C82.4995 52.4996 81.6613 47.6403 81.0089 42.7503C80.7774 40.9894 80.7602 39.1604 80.9159 37.3929C81.2444 33.5378 83.2894 30.7741 86.6303 28.9894C87.4103 28.5803 88.2109 28.1756 89.0604 27.9449C94.1624 26.5099 99.2786 25.0908 104.406 23.7474C105.677 23.4221 107.029 23.3209 108.357 23.3053C111.651 23.2586 114.507 24.494 116.548 27.1239C117.907 28.8841 119.067 30.8663 119.968 32.8989C122.15 37.8365 124.082 42.882 126.21 47.8344C126.912 49.4677 127.879 51.0091 128.79 52.556C129.803 54.2622 133.295 54.8518 134.683 53.5581C135.648 52.6651 136.691 51.8098 137.485 50.7563C140.405 46.8479 143.169 42.8341 146.094 38.9441C147.7 36.8322 149.389 34.7763 151.25 32.881C154.335 29.736 158.142 29.1951 162.3 30.4614C163.142 30.7255 164.008 31.0031 164.783 31.4432C169.454 34.0883 174.187 36.638 178.723 39.497C184.532 43.1444 186.358 48.1986 184.146 54.527C182.381 59.5708 180.266 64.4733 178.29 69.4264C177.303 71.9029 176.19 74.3148 175.682 76.9764C175.282 79.0173 177.034 81.7257 179.114 81.9297C180.424 82.0571 181.775 82.2619 183.059 82.0906C187.013 81.5886 190.936 80.9076 194.878 80.3299C197.064 80.012 199.27 79.7284 201.465 79.5071C210.001 78.6672 214.129 81.2824 216.659 89.2216C217.757 92.6498 218.726 96.1033 219.652 99.5781L219.696 99.5958Z" fill="#005E3D"/>
<path d="M101.993 161.56C102.228 158.836 102.545 156.298 102.938 153.927L106.101 155.213C105.775 157.002 105.491 158.938 105.243 161.032C104.994 163.127 104.823 164.983 104.727 166.592L104.928 166.686C106.005 165.566 107.216 164.202 108.564 162.603C109.912 161.004 111.117 159.483 112.184 158.019L115.237 159.602C113.798 161.492 112.187 163.429 110.393 165.435C108.598 167.44 106.945 169.121 105.436 170.496L101.68 168.756C101.652 166.677 101.756 164.275 101.991 161.551L101.993 161.56Z" fill="#F6E7E0"/>
<path d="M117.304 173.557C116.305 173.035 115.842 172.221 115.91 171.096L116.599 159.773L127.024 160.685L126.833 163.8L119.773 163.188L119.617 165.711L125.528 166.226L125.345 169.201L119.434 168.685L119.291 171.046C120.041 171.269 120.924 171.417 121.926 171.504C123.433 171.632 124.809 171.608 126.055 171.431L126.298 174.508C124.997 174.73 123.44 174.763 121.635 174.606C119.75 174.441 118.308 174.097 117.321 173.582L117.304 173.557Z" fill="#F6E7E0"/>
<path d="M132.226 172.233C130.872 171.381 129.912 169.84 129.343 167.591C128.971 166.11 128.895 164.747 129.11 163.493C129.326 162.239 129.866 161.174 130.721 160.302C131.577 159.429 132.746 158.808 134.242 158.456C136.101 158.015 137.822 157.977 139.421 158.328L139.657 159.263C139.779 159.764 139.889 160.288 139.972 160.819C140.057 161.359 140.096 161.804 140.094 162.17L137.418 162.801L136.808 161.294C136.184 161.314 135.379 161.441 134.391 161.677C133.592 161.862 132.822 162.149 132.063 162.511C132.029 163.825 132.191 165.214 132.566 166.675C132.802 167.61 133.1 168.321 133.461 168.807C133.821 169.293 134.295 169.601 134.883 169.729C135.471 169.858 136.205 169.819 137.082 169.602C137.516 169.496 137.858 169.404 138.098 169.329C138.335 169.246 138.622 169.129 138.954 168.97L138.423 166.86L135.532 167.548L134.832 164.771L139.337 163.698L141.28 164.648L142.193 168.248C142.442 169.228 142.141 170.11 141.305 170.918C140.458 171.719 139.216 172.32 137.567 172.714C135.364 173.237 133.586 173.073 132.235 172.23L132.226 172.233Z" fill="#F6E7E0"/>
<path d="M146.777 169.134C145.971 166.802 145.192 164.393 144.449 161.875C143.709 159.366 143.103 157.089 142.641 155.049L146.594 152.415C148.295 153.637 150.153 155.074 152.162 156.738C154.18 158.398 156.1 160.056 157.92 161.701L155.14 163.802C154.473 163.221 153.503 162.325 152.239 161.104L148.44 163.638C149.055 165.399 149.504 166.642 149.787 167.366L146.783 169.123L146.777 169.134ZM149.87 159.024C148.792 158.088 147.658 157.158 146.465 156.224L146.188 156.407C146.519 157.712 146.931 159.132 147.422 160.66L149.87 159.024Z" fill="#F6E7E0"/>
<path d="M150.566 149.61L153.119 146.005L164.17 148.703L164.236 148.527L161.091 146.523L155.621 142.463L157.551 139.738L168.933 148.184L166.381 151.789L155.33 149.091L155.264 149.267L158.408 151.271L163.878 155.331L161.949 158.056L150.566 149.61Z" fill="#F6E7E0"/>
<path d="M83.2358 96.6443C80.809 95.3897 78.5725 94.1234 76.5199 92.8571L78.7612 90.3465C80.2972 91.3268 81.9863 92.3351 83.835 93.3598C85.6746 94.3869 87.3248 95.2574 88.7802 95.953L88.9378 95.792C88.2658 94.342 87.4182 92.6823 86.3925 90.8036C85.3757 88.9225 84.3736 87.1956 83.3887 85.6321L85.8647 83.3351C87.12 85.409 88.3707 87.6719 89.6195 90.133C90.8657 92.5849 91.8693 94.7957 92.6252 96.7469L89.7692 99.6503C87.8417 98.8939 85.6664 97.8781 83.2396 96.6235L83.2358 96.6443Z" fill="#F6E7E0"/>
<path d="M97.3361 92.2874C96.2357 92.4353 95.4009 92.0174 94.8255 91.0453L88.9874 81.1993L97.9016 75.8947L99.5088 78.5957L93.4689 82.1879L94.7671 84.379L99.8288 81.3663L101.364 83.9484L96.3019 86.9611L97.5226 89.0149C98.2536 88.7589 99.0459 88.3776 99.8996 87.8712C101.191 87.0987 102.285 86.2803 103.189 85.4044L105.125 87.8293C104.201 88.7699 102.956 89.7078 101.416 90.6264C99.8084 91.5827 98.4546 92.1348 97.3541 92.2826L97.3361 92.2874Z" fill="#F6E7E0"/>
<path d="M107.21 85.3254C105.817 84.5439 104.791 83.0411 104.115 80.8218C103.672 79.3599 103.527 77.9955 103.693 76.7354C103.859 75.4752 104.344 74.3861 105.157 73.4656C105.971 72.545 107.107 71.8738 108.583 71.447C110.416 70.9142 112.132 70.7884 113.742 71.0764L114.023 71.999C114.172 72.4925 114.309 73.0091 114.412 73.5446C114.516 74.0801 114.584 74.5262 114.599 74.8877L111.959 75.6475L111.282 74.1793C110.658 74.2288 109.865 74.4026 108.89 74.6847C108.104 74.916 107.341 75.23 106.613 75.6333C106.635 76.9417 106.871 78.3211 107.312 79.7738C107.592 80.6964 107.924 81.3879 108.308 81.8576C108.693 82.3273 109.18 82.6113 109.769 82.7097C110.358 82.8081 111.091 82.7296 111.958 82.4765C112.389 82.3603 112.723 82.2409 112.958 82.148C113.193 82.0551 113.475 81.9201 113.795 81.7547L113.167 79.6708L110.313 80.4978L109.479 77.7576L113.925 76.4723L115.911 77.3315L116.985 80.8866C117.279 81.8551 117.021 82.7546 116.225 83.6012C115.42 84.4502 114.202 85.1041 112.576 85.5812C110.404 86.2151 108.619 86.1321 107.235 85.3481L107.21 85.3254Z" fill="#F6E7E0"/>
<path d="M118.875 83.078C119.402 80.7031 120 78.2696 120.686 75.7729C121.363 73.2785 122.042 71.0606 122.715 69.1008L127.495 69.03C128.313 70.9638 129.16 73.1667 130.016 75.6436C130.872 78.1205 131.66 80.5269 132.358 82.8883L128.87 83.1451C128.601 82.2986 128.24 81.0224 127.791 79.335L123.193 79.3965C122.792 81.1939 122.525 82.4712 122.394 83.2377L118.886 83.0847L118.875 83.078ZM126.838 76.3111C126.394 74.9484 125.913 73.5563 125.385 72.1372L125.047 72.1392C124.641 73.4045 124.256 74.8124 123.877 76.3469L126.838 76.3111Z" fill="#F6E7E0"/>
<path d="M136.99 69.4495L141.304 70.5929L143.213 81.9474L143.397 81.9473L143.976 78.2806L145.522 71.7031L148.78 72.5673L145.562 86.2405L141.247 85.097L139.339 73.7426L139.155 73.7426L138.576 77.4094L137.026 83.9777L133.769 83.1135L136.987 69.4403L136.99 69.4495Z" fill="#F6E7E0"/>
<path d="M69.0391 121.26C70.5161 121.453 72.1069 121.329 73.6986 120.899C76.2613 120.207 78.7883 118.804 80.8196 116.846L86.933 138.514L93.9919 136.607L95.6877 142.617L76.6332 147.764L74.9374 141.753L82.311 139.762L78.0949 124.819C76.3692 126.557 74.0553 127.823 71.7264 128.452L69.0302 121.262L69.0391 121.26Z" fill="#8DC8E8"/>
<path d="M102.291 110.666C109.559 108.703 116.045 113.003 118.536 121.827C121.027 130.651 117.613 137.239 110.345 139.202C103.077 141.164 96.6795 137.008 94.2457 128.385C91.812 119.763 95.0224 112.628 102.291 110.666ZM109.183 132.576C113.65 131.37 115.544 128.43 114.246 123.834C112.771 118.606 108.133 116.117 102.963 117.513C98.9553 118.595 97.2548 121.739 98.5494 126.325C99.9682 131.352 104.553 133.826 109.183 132.576Z" fill="#8DC8E8"/>
<path d="M129.287 103.212C136.555 101.25 143.041 105.55 145.532 114.374C148.023 123.198 144.609 129.786 137.341 131.748C130.073 133.711 123.676 129.554 121.242 120.932C118.808 112.31 122.019 105.175 129.287 103.212ZM136.179 125.123C140.646 123.917 142.54 120.977 141.243 116.381C139.767 111.153 135.129 108.664 129.959 110.059C125.951 111.142 124.251 114.286 125.545 118.872C126.964 123.899 131.549 126.372 136.179 125.123Z" fill="#8DC8E8"/>
<path d="M149.499 97.542C154.132 96.2914 157.054 99.2561 158.049 102.781C159.28 107.14 157.385 110.803 153.689 111.801C149.994 112.798 146.326 110.766 145.072 106.324C144.1 102.882 145.029 98.7489 149.499 97.542ZM153.969 126.434L162.63 94.6789L167.1 93.472L158.44 125.227L153.969 126.434ZM152.852 106.91C154.835 106.375 155.526 105.25 155.202 104.102C154.767 102.56 153.011 101.839 150.488 102.52C148.388 103.087 147.686 104.176 148.02 105.36C148.456 106.902 150.247 107.613 152.852 106.91ZM167.523 108.027C172.156 106.776 175.078 109.741 176.073 113.265C177.304 117.625 175.408 121.288 171.713 122.286C168.018 123.283 164.35 121.251 163.096 116.808C162.124 113.366 163.053 109.234 167.523 108.027ZM166.008 115.854C166.443 117.396 168.235 118.108 170.876 117.395C172.859 116.86 173.55 115.735 173.226 114.587C172.791 113.045 171.035 112.324 168.511 113.005C166.375 113.582 165.674 114.67 166.008 115.854Z" fill="#8DC8E8"/>
</svg>
