<svg width="137" height="137" viewBox="0 0 137 137" fill="none" xmlns="http://www.w3.org/2000/svg">
<path d="M118.233 44.1085C126.723 23.1585 113.454 9.88266 92.4972 18.3727C90.1723 19.3182 87.4718 18.2497 86.4939 15.9377C77.6865 -4.90861 58.919 -4.90861 50.1115 15.9377C49.1337 18.2497 46.4332 19.3182 44.1083 18.3727C23.1583 9.88266 9.88241 23.1521 18.3725 44.1085C19.318 46.4334 18.2494 49.1339 15.9375 50.1118C-4.90886 58.9192 -4.90886 77.6868 15.9375 86.4942C18.2494 87.472 19.318 90.1726 18.3725 92.4975C9.88241 113.447 23.1518 126.723 44.1083 118.233C46.4332 117.288 49.1337 118.356 50.1115 120.668C58.919 141.515 77.6865 141.515 86.4939 120.668C87.4718 118.356 90.1723 117.288 92.4972 118.233C113.447 126.723 126.723 113.454 118.233 92.4975C117.287 90.1726 118.356 87.472 120.668 86.4942C141.514 77.6868 141.514 58.9192 120.668 50.1118C118.356 49.1339 117.287 46.4334 118.233 44.1085Z" fill="#8DC8E8"/>
<path d="M31.7129 42.8913L34.3486 40.7283L37.9493 45.1255L41.7443 42.017L38.1436 37.6198L40.7793 35.4568L49.7098 46.356L47.074 48.5189L43.7583 44.4779L39.9634 47.5864L43.2791 51.6274L40.6433 53.7904L31.7129 42.8913Z" fill="#532826"/>
<path d="M51.3802 43.5968C50.0008 42.8261 48.9322 41.3496 48.1551 39.1801C47.3262 36.8552 47.2679 34.893 47.9673 33.2999C48.6732 31.7068 50.0785 30.5346 52.1962 29.7834C54.1649 29.084 55.8422 29.1164 57.2151 29.8935C58.5945 30.6641 59.663 32.1407 60.4402 34.3101C61.2691 36.635 61.3274 38.5973 60.628 40.1904C59.9221 41.7835 58.5168 42.9556 56.4056 43.7069C54.4369 44.4063 52.7596 44.3739 51.3867 43.5968H51.3802ZM57.9987 39.3744C58.0246 38.7721 57.9922 38.1828 57.8886 37.6129C57.785 37.043 57.6231 36.4278 57.3835 35.7543C57.0532 34.8282 56.7035 34.1029 56.3344 33.5913C55.9652 33.0797 55.4989 32.7559 54.9291 32.6328C54.3592 32.5033 53.6468 32.594 52.792 32.8984C51.8788 33.2222 51.1471 33.6302 50.5966 34.1159C50.5707 34.7181 50.6031 35.301 50.6937 35.8514C50.7844 36.4084 50.9592 37.0301 51.2053 37.7295C51.5356 38.6556 51.8853 39.3809 52.2545 39.8925C52.6236 40.4041 53.0899 40.7279 53.6598 40.8509C54.2296 40.9805 54.942 40.8898 55.7968 40.5854C56.71 40.2616 57.4418 39.8536 57.9922 39.3679L57.9987 39.3744Z" fill="#532826"/>
<path d="M63.7481 27.2449L68.2231 27.3161L72.5296 37.9109L72.711 37.8656L72.4973 34.1548L72.6074 27.3809L75.9943 27.4327L75.7677 41.5245L71.2927 41.4533L66.9862 30.8585L66.8048 30.9038L67.0185 34.6146L66.9084 41.3885L63.5215 41.3367L63.7481 27.2449Z" fill="#532826"/>
<path d="M78.3732 40.6505C77.8228 39.174 77.9458 37.3542 78.7618 35.1977C79.6296 32.8858 80.8471 31.3509 82.4143 30.5868C83.9815 29.8226 85.8142 29.8356 87.9124 30.6256C89.8682 31.3639 91.1245 32.4648 91.6815 33.9478C92.2319 35.4244 92.1089 37.2441 91.2994 39.4007C90.4316 41.7126 89.2141 43.2539 87.6469 44.0116C86.0797 44.7758 84.247 44.7628 82.1487 43.9727C80.193 43.2345 78.9366 42.1271 78.3797 40.6505H78.3732ZM86.1509 41.6932C86.5589 41.2463 86.9086 40.7801 87.2065 40.2814C87.4979 39.7827 87.7699 39.1999 88.0225 38.5329C88.3657 37.6133 88.5665 36.8361 88.6183 36.208C88.6701 35.5798 88.5147 35.0358 88.165 34.5695C87.8153 34.1033 87.213 33.7147 86.3582 33.3974C85.4515 33.0541 84.6291 32.8922 83.8973 32.9052C83.4893 33.352 83.1396 33.8118 82.8546 34.2975C82.5697 34.7832 82.2912 35.3726 82.0322 36.0655C81.689 36.9851 81.4882 37.7622 81.4364 38.3904C81.3846 39.0186 81.54 39.5626 81.8897 40.0288C82.2394 40.4951 82.8417 40.8837 83.6965 41.2075C84.6032 41.5507 85.4256 41.7126 86.1574 41.6932H86.1509Z" fill="#532826"/>
<path d="M95.9857 52.0674C95.8432 51.6464 95.8303 51.1672 95.9468 50.6297L96.4131 48.266C96.5038 47.8062 96.5491 47.4629 96.5621 47.2363C96.575 47.0096 96.5232 46.7506 96.4066 46.4656C96.2901 46.1807 96.0569 45.8828 95.7072 45.5654L95.079 45.0409L91.841 48.9136L89.2441 46.7441L97.9933 36.2788C99.3338 36.8034 100.707 37.6582 102.112 38.8304C103.556 40.0349 104.443 41.2395 104.774 42.431C105.104 43.6226 104.819 44.7754 103.899 45.8633C103.284 46.5951 102.552 47.0744 101.704 47.301C100.856 47.5277 99.9166 47.5083 98.8934 47.2427L98.7639 47.3982C99.0359 47.7803 99.2172 48.1688 99.3209 48.5574C99.418 48.9459 99.4633 49.4122 99.4439 49.9497L99.295 52.2552L99.8584 52.9935L98.6344 54.457C98.2199 54.2887 97.6759 53.926 97.0024 53.3626C96.4649 52.9157 96.1282 52.4819 95.9922 52.0544L95.9857 52.0674ZM99.2108 44.9114C99.9037 44.9567 100.519 44.6588 101.05 44.0177C101.445 43.5384 101.575 43.0786 101.426 42.6318C101.277 42.185 100.869 41.6733 100.195 41.1099C99.8001 40.7797 99.4115 40.5141 99.0229 40.3134L96.8341 42.9297L99.2043 44.9114H99.2108Z" fill="#532826"/>
<path d="M41.5311 101.124C41.3627 100.716 41.3109 100.236 41.3822 99.6925L41.6671 97.2963C41.7189 96.83 41.7448 96.4868 41.7384 96.2601C41.7384 96.0335 41.6606 95.7809 41.5246 95.5025C41.3886 95.224 41.1296 94.9455 40.754 94.6606L40.087 94.1813L37.1533 98.2872L34.3945 96.3184L42.3212 85.2185C43.6941 85.6394 45.1253 86.3842 46.6213 87.4527C48.1496 88.5472 49.1275 89.674 49.5485 90.8397C49.9694 92.0054 49.7686 93.1711 48.9397 94.3303C48.3828 95.1074 47.6898 95.6385 46.8609 95.9299C46.032 96.2213 45.0929 96.2731 44.0503 96.0853L43.9337 96.2537C44.2316 96.6163 44.4453 96.9855 44.5749 97.3676C44.7044 97.7496 44.7821 98.2094 44.808 98.7469L44.8339 101.059L45.4556 101.752L44.3482 103.306C43.9208 103.17 43.3509 102.846 42.6385 102.335C42.0686 101.927 41.6995 101.519 41.5311 101.111V101.124ZM44.2057 93.7474C44.8987 93.741 45.488 93.3977 45.9737 92.7178C46.3363 92.2126 46.427 91.7399 46.2457 91.306C46.0643 90.8721 45.6175 90.3929 44.8987 89.8813C44.4777 89.5834 44.0697 89.3437 43.6747 89.1754L41.693 91.9471L44.2057 93.741V93.7474Z" fill="#532826"/>
<path d="M48.9906 104.025C48.343 102.587 48.356 100.761 49.023 98.559C49.7418 96.1952 50.8557 94.5827 52.3711 93.7214C53.8865 92.8601 55.7127 92.75 57.8628 93.4041C59.8639 94.0128 61.1915 95.036 61.8391 96.4737C62.4867 97.9114 62.4737 99.7376 61.8067 101.939C61.0879 104.303 59.974 105.916 58.4586 106.777C56.9432 107.638 55.1169 107.748 52.9669 107.094C50.9658 106.486 49.6382 105.462 48.9906 104.025ZM56.8201 104.562C57.2022 104.09 57.5196 103.597 57.7786 103.086C58.0376 102.568 58.2708 101.972 58.478 101.292C58.763 100.346 58.9119 99.5628 58.9184 98.9346C58.9249 98.3064 58.7435 97.7689 58.3614 97.3285C57.9794 96.8882 57.3577 96.5385 56.4834 96.2729C55.5573 95.988 54.7219 95.8844 53.9966 95.9427C53.6145 96.4154 53.2972 96.9011 53.0446 97.3998C52.7921 97.8984 52.5524 98.5072 52.3387 99.2195C52.0538 100.165 51.9048 100.949 51.8984 101.577C51.8919 102.205 52.0732 102.743 52.4553 103.183C52.8374 103.623 53.4591 103.973 54.3333 104.238C55.2594 104.517 56.0948 104.627 56.8266 104.569L56.8201 104.562Z" fill="#532826"/>
<path d="M65.3632 107.781C64.2752 106.641 63.6729 104.919 63.5693 102.62C63.4592 100.152 63.9708 98.2613 65.1106 96.9402C66.2504 95.6191 67.9406 94.9132 70.1813 94.8096C72.2731 94.7125 73.8597 95.237 74.9542 96.3768C76.0422 97.5166 76.6444 99.2392 76.748 101.538C76.8581 104.006 76.3465 105.897 75.2067 107.218C74.067 108.539 72.3767 109.245 70.136 109.348C68.0442 109.445 66.4576 108.921 65.3632 107.781ZM72.9207 105.67C73.1215 105.1 73.2575 104.53 73.3352 103.954C73.4064 103.384 73.4258 102.743 73.3934 102.03C73.3481 101.046 73.2251 100.256 73.0243 99.6602C72.8236 99.0644 72.4674 98.6175 71.9622 98.3326C71.4571 98.0476 70.7512 97.9181 69.8381 97.9634C68.8667 98.0088 68.0507 98.1836 67.3837 98.4815C67.1829 99.0514 67.0469 99.6148 66.9692 100.172C66.898 100.729 66.8786 101.376 66.9109 102.121C66.9563 103.105 67.0793 103.895 67.2801 104.491C67.4808 105.087 67.837 105.534 68.3421 105.819C68.8473 106.104 69.5532 106.227 70.4663 106.188C71.4312 106.143 72.2537 105.968 72.9207 105.663V105.67Z" fill="#532826"/>
<path d="M81.8962 96.3639L77.6868 97.9505L76.5664 94.9715L88.1844 90.6002L89.3048 93.5792L85.0953 95.1658L88.9356 105.379L85.7429 106.577L81.9027 96.3639H81.8962Z" fill="#532826"/>
<path d="M95.5675 101.143L94.7839 98.2808C96.3576 98.0153 97.8017 97.3807 99.1293 96.3704C99.7899 95.8653 100.301 95.412 100.658 95.004C100.599 94.7255 100.457 94.4406 100.237 94.1556C99.9971 93.8448 99.7057 93.6958 99.3625 93.7217C99.0192 93.7476 98.4623 93.929 97.6916 94.2657C96.5778 94.7514 95.6323 95.0817 94.8616 95.2565C94.0845 95.4249 93.3527 95.399 92.6598 95.1594C91.9668 94.9263 91.3128 94.4082 90.6975 93.5987C89.888 92.5366 89.629 91.4292 89.9204 90.2765C90.2118 89.1237 91.0602 88.0034 92.472 86.9284C93.2685 86.3196 94.0262 85.8728 94.7386 85.5684C95.4574 85.2705 96.1698 85.0503 96.8821 84.9078L97.3614 85.5425C97.5816 85.8339 97.8535 86.2549 98.1709 86.8118C98.4882 87.3687 98.6954 87.7832 98.7926 88.0552L96.5519 89.7649L95.3797 88.5668C94.9717 88.7805 94.5702 89.0396 94.1752 89.3439C93.67 89.7325 93.3397 90.0887 93.1778 90.4189C93.0224 90.7492 93.0742 91.086 93.3397 91.4357C93.6053 91.7854 93.9614 91.9279 94.4083 91.8631C94.8551 91.7983 95.5286 91.5587 96.4288 91.1378C97.4132 90.678 98.2615 90.3736 98.9739 90.2247C99.6863 90.0757 100.373 90.134 101.007 90.3995C101.649 90.665 102.264 91.1831 102.847 91.9538C103.656 93.0158 103.915 94.1168 103.617 95.2695C103.319 96.4222 102.393 97.5879 100.826 98.786C99.0905 100.107 97.3355 100.897 95.561 101.143H95.5675Z" fill="#532826"/>
<path d="M43.8516 62.235H46.0469L49.3109 66.9754L52.5942 62.235H55.5602L50.5607 69.0996V74.3452H48.6827V69.2032L43.858 62.235H43.8516Z" fill="#532826"/>
<path d="M61.8548 61.976C65.5915 61.976 68.1236 64.4692 68.1236 68.3808C68.1236 72.2923 65.598 74.6301 61.8548 74.6301C58.1117 74.6301 55.6055 72.2081 55.6055 68.3613C55.6055 64.5146 58.1182 61.9695 61.8548 61.9695V61.976ZM62.2758 72.1369C64.6784 72.1369 66.2067 70.9971 66.2067 68.7693C66.2067 66.2048 64.1862 64.4887 61.2008 64.4887C59.0054 64.4887 57.4965 65.7515 57.4965 67.8951C57.4965 70.4725 59.4976 72.1433 62.2693 72.1433L62.2758 72.1369Z" fill="#532826"/>
<path d="M70.3112 68.7174V62.2413H72.1892V68.0503C72.1892 70.8933 73.2578 72.1238 75.5762 72.1238C77.4024 72.1238 78.5422 71.2301 78.5422 68.7368V62.2413H80.4008V68.6656C80.4008 72.6677 78.3803 74.6365 75.1876 74.6365C72.1698 74.6365 70.3047 72.726 70.3047 68.7174H70.3112Z" fill="#532826"/>
<path d="M83.2578 74.3516V62.2415H87.8234C90.6858 62.2415 92.2466 63.7892 92.2466 66.1724C92.2466 67.9274 91.178 69.3133 89.5978 69.9609L92.7776 74.3516H90.4268L87.7587 70.3689H87.4413C86.444 70.3689 85.6863 70.194 85.1229 69.9803V74.3516H83.2643H83.2578ZM85.1164 67.6813C85.7317 67.895 86.5217 68.031 87.6421 68.031C89.3259 68.031 90.3426 67.4547 90.3426 66.1854C90.3426 65.201 89.7792 64.534 87.8882 64.534H85.1164V67.6748V67.6813Z" fill="#532826"/>
<path d="M107.72 64.8197L104.24 68.2999L107.72 71.7802L111.201 68.2999L107.72 64.8197Z" fill="#532826"/>
<path d="M28.8943 64.8256L25.4141 68.3058L28.8943 71.786L32.3745 68.3058L28.8943 64.8256Z" fill="#532826"/>
</svg>
