<svg width="104" height="134" viewBox="0 0 104 134" fill="none" xmlns="http://www.w3.org/2000/svg">
<path d="M103.188 51.247C103.188 22.944 80.2447 -0.00012207 51.9434 -0.00012207C23.642 -0.00012207 0.699219 22.944 0.699219 51.247L0.699219 82.5107C0.699219 110.814 23.642 133.758 51.9434 133.758C80.2447 133.758 103.188 110.814 103.188 82.5107V51.247Z" fill="#FF7200"/>
<path d="M24.3238 87.2021L24.6996 88.9619L14.8153 91.0676L14.4395 89.3079L24.3238 87.2021Z" fill="#F6E7E0"/>
<path d="M24.712 90.1017L25.6307 92.112L20.262 99.1807L20.3455 99.2881L22.6361 98.0474L27.3546 95.8939L28.1062 97.5463L18.9079 101.74L17.9892 99.7295L23.352 92.6488L23.2684 92.5415L20.9599 93.7882L16.2593 95.9297L15.5137 94.2952L24.712 90.1017Z" fill="#F6E7E0"/>
<path d="M22.433 104.842C22.5225 103.714 23.1608 102.605 24.3598 101.519C25.6304 100.368 26.895 99.7593 28.1596 99.6877C29.4242 99.6161 30.5875 100.165 31.6493 101.334C32.1265 101.859 32.5142 102.39 32.8185 102.933C33.1227 103.476 33.3195 103.947 33.409 104.353L32.8006 104.901C32.3711 105.289 31.9535 105.575 31.5419 105.754L30.6173 104.734L31.4166 103.792C31.2138 103.416 30.832 102.927 30.2713 102.312C29.7822 101.77 29.2811 101.316 28.774 100.952C28.2312 101.119 27.6943 101.358 27.1515 101.674C26.6087 101.99 26.1016 102.36 25.6244 102.79C24.7535 103.583 24.2822 104.329 24.2166 105.039C24.151 105.742 24.4731 106.488 25.183 107.275C25.6304 107.771 26.0599 108.164 26.4774 108.463L28.2372 106.87L26.6981 105.176L27.8375 104.144L29.979 106.506L30.0387 107.645L28.0642 109.435C27.7242 109.745 27.3185 109.9 26.8413 109.9C26.3641 109.9 25.863 109.763 25.3381 109.471C24.8131 109.184 24.3061 108.767 23.811 108.224C22.7909 107.102 22.3256 105.975 22.4151 104.842H22.433Z" fill="#F6E7E0"/>
<path d="M34.5021 116.152C34.3828 115.925 34.341 115.657 34.3828 115.334L34.5975 113.193C34.6333 112.859 34.6452 112.596 34.6274 112.412C34.6095 112.227 34.5438 112.036 34.4126 111.845C34.2873 111.654 34.0726 111.469 33.7743 111.29L32.7483 110.676L30.7559 114.004L29.2109 113.08L34.2515 104.657C35.2776 104.913 36.238 105.313 37.1268 105.844C38.2423 106.512 38.9581 107.222 39.2743 107.985C39.5904 108.749 39.489 109.572 38.9521 110.461C38.2721 111.594 37.2699 112.095 35.9337 111.97L35.8562 112.095C36.0351 112.328 36.1604 112.561 36.238 112.799C36.3155 113.032 36.3453 113.306 36.3394 113.622L36.226 115.883L36.7987 116.396L36.2797 117.267C35.9695 117.196 35.5997 117.035 35.1821 116.778C34.854 116.581 34.6333 116.372 34.514 116.146L34.5021 116.152ZM35.7249 110.67C36.065 110.67 36.3692 110.592 36.6317 110.443C36.8941 110.294 37.1327 110.037 37.3475 109.679C37.6457 109.184 37.7054 108.749 37.5324 108.367C37.3594 107.991 36.9419 107.604 36.2857 107.216C35.8562 106.959 35.4744 106.774 35.1463 106.667L33.5357 109.363L35.7249 110.676V110.67Z" fill="#F6E7E0"/>
<path d="M40.0849 118.305C39.5122 117.875 39.3154 117.327 39.4883 116.664L41.612 108.528L48.2751 110.264L47.8575 111.862L42.9183 110.574L42.2502 113.139L46.5869 114.272L46.1873 115.793L41.8506 114.66L41.2004 117.159C41.8088 117.428 42.459 117.655 43.151 117.84C44.1949 118.114 45.1434 118.251 45.9964 118.263L45.895 119.88C45.042 119.903 43.9742 119.748 42.6857 119.414C41.5165 119.11 40.6456 118.74 40.0729 118.311L40.0849 118.305Z" fill="#F6E7E0"/>
<path d="M49.0079 110.574C49.9385 110.305 50.9824 110.156 52.1337 110.126C53.8755 110.079 55.1342 110.472 55.9037 111.314C56.6732 112.155 57.0848 113.401 57.1325 115.06C57.1624 116.205 57.0371 117.159 56.7448 117.917C56.4585 118.681 55.9216 119.277 55.1342 119.707C54.3527 120.136 53.2492 120.375 51.8354 120.416L49.2823 120.488L49.002 110.58L49.0079 110.574ZM51.9428 118.752C53.1657 118.716 54.1678 118.573 54.9552 118.323C55.0984 117.947 55.1998 117.493 55.2654 116.957C55.331 116.42 55.3549 115.865 55.343 115.286C55.3191 114.427 55.2058 113.735 55.003 113.216C54.8001 112.697 54.478 112.322 54.0306 112.089C53.5832 111.856 52.9748 111.749 52.2112 111.773C51.7758 111.785 51.3105 111.832 50.8213 111.91L51.0182 118.776L51.9309 118.752H51.9428Z" fill="#F6E7E0"/>
<path d="M57.5977 109.727L59.3455 109.309L61.6958 119.14L59.9479 119.558L57.5977 109.727Z" fill="#F6E7E0"/>
<path d="M65.5203 117.702C64.8045 117.732 64.3094 117.428 64.0231 116.808L60.5215 109.166L66.779 106.297L67.465 107.8L62.8241 109.924L63.9276 112.334L68.0019 110.467L68.658 111.892L64.5838 113.759L65.6575 116.11C66.2958 115.937 66.946 115.698 67.5962 115.4C68.5805 114.952 69.4037 114.457 70.0658 113.926L71.0083 115.239C70.3641 115.799 69.4395 116.354 68.2285 116.909C67.1309 117.416 66.2242 117.679 65.5084 117.708L65.5203 117.702Z" fill="#F6E7E0"/>
<path d="M67.3984 105.986L69.0568 104.525L77.3782 107.615L77.4558 107.501L75.6006 105.67L72.1706 101.781L73.5307 100.582L80.2117 108.163L78.5534 109.625L70.22 106.547L70.1424 106.66L72.0095 108.503L75.4276 112.381L74.0795 113.568L67.3984 105.986Z" fill="#F6E7E0"/>
<path d="M76.7742 98.5714L75.0682 101.327L73.6484 100.45L78.003 93.4115L79.4228 94.2884L77.7167 97.0443L84.8929 101.482L83.9444 103.01L76.7682 98.5714H76.7742Z" fill="#F6E7E0"/>
<path d="M86.7612 96.502L85.4786 95.4879C86.2124 94.7542 86.7433 93.8296 87.0773 92.7201C87.2622 92.1056 87.3756 91.5628 87.4114 91.0975C87.1728 90.9126 86.8626 90.7635 86.4868 90.6501C86.0871 90.5308 85.753 90.5666 85.4727 90.7575C85.1923 90.9484 84.8762 91.3481 84.5242 91.9565C84.1484 92.6067 83.7845 93.1257 83.4326 93.5254C83.0806 93.925 82.675 94.1994 82.2097 94.3545C81.7444 94.5096 81.2076 94.4977 80.5931 94.3128C79.7461 94.0563 79.1376 93.5671 78.7737 92.8453C78.4039 92.1176 78.3979 91.1751 78.7439 90.0059C78.9408 89.3497 79.1675 88.8069 79.424 88.3893C79.6805 87.9718 79.9787 87.6019 80.3128 87.2798L80.8795 87.4468C81.1181 87.5184 81.3925 87.6317 81.7027 87.7809C82.0129 87.93 82.2515 88.0732 82.4304 88.2044L82.0308 89.5346L80.7124 89.3259C80.5216 89.7255 80.3724 90.1252 80.2472 90.5368C80.0742 91.1095 80.0503 91.5568 80.1696 91.879C80.2889 92.2011 80.5752 92.4278 81.0226 92.559C81.4104 92.6723 81.7444 92.6246 82.0248 92.4039C82.3052 92.1892 82.6452 91.7298 83.0329 91.0259C83.5817 90.0417 84.1305 89.3676 84.6853 89.0097C85.24 88.6518 85.9439 88.6041 86.791 88.8546C87.6679 89.1171 88.2883 89.6122 88.6462 90.334C89.0041 91.0558 88.9981 92.046 88.6223 93.2987C88.2346 94.5931 87.6202 95.6609 86.7731 96.502H86.7612Z" fill="#F6E7E0"/>
<path d="M15.2266 41.6274L16.0378 39.5038L21.9315 39.5635L21.9732 39.4561L17.547 35.5608L18.3523 33.4551L27.9325 36.6942L27.2823 38.3883L22.4683 36.7419L20.0882 35.8173L20.0107 35.9306L23.894 39.5157L23.3989 40.8161L18.1137 40.8997L18.0958 41.0309L20.4938 41.9078L25.1765 43.9061L24.5263 45.6002L15.2266 41.6274Z" fill="#F6E7E0"/>
<path d="M28.3146 35.8829C27.3661 34.4274 26.4117 32.8943 25.4632 31.2778C24.5088 29.6612 23.6975 28.1818 23.0234 26.8456L24.9025 24.7518C26.3043 25.2768 27.8612 25.927 29.5673 26.7025C31.2793 27.4779 32.9018 28.2594 34.4528 29.0468L33.2836 30.5441L32.2218 29.9893C31.4404 29.5837 30.8558 29.2854 30.4561 29.0885L27.9089 31.922C28.577 32.96 29.1616 33.8368 29.6746 34.5586L28.3086 35.8829H28.3146ZM28.9886 28.3548C27.3423 27.5793 26.1373 27.0305 25.3797 26.7204L25.0397 27.0962C25.5646 28.0625 26.2327 29.2078 27.044 30.5202L28.9886 28.3548Z" fill="#F6E7E0"/>
<path d="M30.6583 19.926C31.3622 19.2639 32.2212 18.6554 33.2353 18.1006C34.7624 17.2596 36.0628 17.0388 37.1306 17.4325C38.1983 17.8262 39.1349 18.7509 39.9342 20.2004C40.489 21.2026 40.8051 22.1093 40.8946 22.9205C40.9841 23.7318 40.7813 24.5073 40.2802 25.247C39.7791 25.9867 38.9082 26.7025 37.6674 27.3825L35.4305 28.6113L30.6523 19.926H30.6583ZM37.0053 25.8614C38.0731 25.2708 38.9022 24.6862 39.4928 24.1017C39.451 23.702 39.3317 23.2486 39.1468 22.7416C38.9619 22.2345 38.7292 21.7275 38.4489 21.2205C38.0313 20.4629 37.6197 19.9021 37.2021 19.5323C36.7846 19.1625 36.3253 18.9775 35.8242 18.9775C35.3171 18.9775 34.7325 19.1565 34.0644 19.5263C33.6827 19.7351 33.2949 19.9857 32.8953 20.2839L36.206 26.3028L37.0113 25.8614H37.0053Z" fill="#F6E7E0"/>
<path d="M44.5879 24.03C43.8899 23.8808 43.4783 23.4692 43.3531 22.7952L41.8379 14.5274L48.6084 13.2866L48.9067 14.9092L43.8899 15.8278L44.3671 18.4346L48.7754 17.6293L49.0558 19.1743L44.6475 19.9796L45.1128 22.5208C45.7749 22.5088 46.4609 22.4373 47.1708 22.312C48.2326 22.1151 49.1512 21.8467 49.9327 21.4888L50.5232 22.992C49.7597 23.3738 48.7277 23.6899 47.4213 23.9286C46.2283 24.1493 45.2858 24.1791 44.5879 24.03Z" fill="#F6E7E0"/>
<path d="M59.6432 13.6798L61.4745 14.2047C61.1405 15.7975 60.872 17.2172 60.6633 18.4639C60.4545 19.7106 60.2576 21.0051 60.0667 22.3532L60.186 22.4009C60.9377 21.536 62.3097 19.8896 64.302 17.4618C64.3319 17.2709 64.3498 17.1456 64.3617 17.08C64.4213 16.6266 64.4989 16.1673 64.5824 15.708L66.3183 16.215C66.0618 17.7302 65.8709 19.0604 65.7397 20.1938C65.6084 21.3332 65.4653 22.735 65.3161 24.4112L65.4832 24.4768C67.058 22.2041 68.5433 19.8896 69.9511 17.5333L71.5856 18.3864C69.796 21.1184 67.7917 23.8923 65.5607 26.7019L63.6578 25.9562C63.7532 23.6835 63.8725 21.7985 64.0157 20.3012L63.8189 20.2236L63.5504 20.5577C61.9875 22.4487 60.8482 23.7908 60.1443 24.5783L58.3965 23.8923C58.6768 20.4384 59.0944 17.0382 59.6492 13.6798H59.6432Z" fill="#F6E7E0"/>
<path d="M74.896 21.1071L76.2919 22.2404L69.933 30.0966L68.5371 28.9632L74.896 21.1071Z" fill="#F6E7E0"/>
<path d="M79.7567 28.1276L77.7643 25.5745L79.0826 24.5485L84.1709 31.0744L82.8526 32.1004L80.8602 29.5473L74.209 34.737L73.1055 33.3173L79.7567 28.1276Z" fill="#F6E7E0"/>
<path d="M86.2123 34.8926L86.8029 36.5927L82.663 38.0362L84.035 41.9733L88.1749 40.5297L88.7654 42.2298L79.2211 45.5584L78.6305 43.8583L82.4602 42.5221L81.0882 38.585L77.2585 39.9212L76.668 38.2212L86.2123 34.8926Z" fill="#F6E7E0"/>
<path d="M17.4223 70.0035L20.8516 66.5742L17.4223 63.145L13.993 66.5742L17.4223 70.0035Z" fill="#F6E7E0"/>
<path d="M83.0297 66.5759L86.459 70.0051L89.8883 66.5759L86.459 63.1466L83.0297 66.5759Z" fill="#F6E7E0"/>
<path d="M53.4207 40.0685C55.2103 41.0528 56.111 44.0056 54.1306 47.6742C53.9158 48.0679 53.54 48.1812 53.1463 47.9665C52.7526 47.7517 52.6393 47.3759 52.854 46.9822C54.232 44.4231 53.9337 42.0132 52.7228 41.3451C51.4224 40.6292 48.1654 41.8104 45.0515 47.358C44.622 48.1275 39.9274 57.1469 35.3521 65.88L40.6432 65.4266C41.0906 65.3908 41.3949 65.6414 41.4306 66.0888C41.4664 66.5362 41.2159 66.8344 40.7685 66.8762L34.5528 67.4071C32.4112 71.5052 30.0311 76.0507 27.4243 81.0316C27.2752 81.318 27.0903 81.4194 26.7801 81.4194C26.6429 81.4194 26.5653 81.4015 26.446 81.3359C26.0464 81.1271 25.933 80.7513 26.1418 80.3516C28.3191 76.1819 30.6097 71.8094 32.8407 67.5443L27.1917 68.0275H27.1261C26.7085 68.0275 26.4401 67.7829 26.4043 67.3594C26.3685 66.912 26.619 66.6077 27.0664 66.572L33.6401 66.0112C37.0224 59.5509 43.262 47.5728 43.7869 46.6303C47.5688 39.8836 51.3866 38.9292 53.4267 40.0506L53.4207 40.0685Z" fill="#F6E7E0"/>
<path d="M46.3104 74.3323C45.6185 74.3323 44.9921 74.2488 44.3956 74.0818C42.445 73.5389 41.252 72.0954 41.252 70.3595C41.252 67.1263 44.9086 62.6405 48.4758 62.6405C50.1043 62.6405 51.2556 63.6486 51.3272 65.0624V65.1578C51.3272 66.3091 50.5994 67.8422 48.3744 68.9994C46.9428 69.7451 44.7177 70.5146 42.7194 70.4669C42.7433 71.815 43.9661 72.4533 44.7893 72.68C48.7144 73.7716 52.6038 70.437 54.268 68.0331C54.5245 67.6632 54.9123 67.5916 55.2821 67.8481C55.652 68.1046 55.7236 68.4924 55.467 68.8622C52.902 72.5726 49.4422 74.3264 46.3164 74.3264L46.3104 74.3323ZM42.952 69.0173C44.5984 69.0173 46.567 68.3015 47.7063 67.7109C49.4422 66.8102 49.8717 65.5575 49.8717 65.1399C49.8657 64.9669 49.824 64.102 48.4758 64.102C46.1971 64.102 43.638 66.8221 42.952 69.0173Z" fill="#F6E7E0"/>
<path d="M76.7256 68.1049C77.1193 68.3197 77.2267 68.7014 77.0119 69.0951C75.3238 72.1613 73.1942 72.549 71.9594 71.9883C71.0348 71.5647 70.3607 70.6759 69.9849 69.0772L68.6845 71.0577C67.0023 73.1694 65.0219 74.3087 63.3099 74.3087C62.8028 74.3087 62.3853 74.2193 61.9677 74.0045C61.4308 73.7361 60.536 73.0799 60.5002 71.4275C58.8896 73.3245 57.2194 74.3087 55.8056 74.3087C55.4 74.3087 55.0719 74.2372 54.7319 74.0642C54.0936 73.7361 52.8528 72.7518 53.7417 69.5008C54.1831 67.8723 54.9824 66.4525 56.2292 64.2216L56.8436 63.124C57.0583 62.7303 57.4401 62.6229 57.8338 62.8436C58.2275 63.0643 58.3349 63.4401 58.1201 63.8338L57.4997 64.9374C56.3365 67.0073 55.5432 68.433 55.1435 69.8885C54.6901 71.5588 55.0421 72.5907 55.3881 72.7697C55.9786 73.0739 57.8517 72.4297 59.6651 70.1569C60.1901 69.4948 60.9357 68.3853 61.6635 67.2101C62.0691 66.375 62.5821 65.4623 63.2144 64.3409C63.4292 63.9591 63.6558 63.5594 63.8945 63.1299C64.1152 62.7362 64.491 62.6288 64.8847 62.8496C65.2008 63.0285 65.338 63.3089 65.2545 63.625C65.2426 63.6787 65.2247 63.7324 65.2008 63.7861C64.8131 64.7226 63.9004 66.369 62.94 67.92C62.606 68.612 62.3554 69.2443 62.1765 69.8945C61.8424 71.1352 61.9498 72.376 62.6298 72.722C63.5246 73.1753 65.7437 72.4178 67.5452 70.1629C68.3505 69.1548 69.4361 66.8045 70.7485 63.2552C70.9036 62.8317 71.2615 62.6706 71.685 62.8257C72.1026 62.9808 72.2696 63.3387 72.1145 63.7622C70.7127 67.5382 71.4882 70.1868 72.5619 70.6759C73.3195 71.0219 74.6915 70.3061 75.7354 68.4091C75.9501 68.0154 76.3259 67.9081 76.7256 68.1228V68.1049Z" fill="#F6E7E0"/>
</svg>
