<svg width="285" height="206" viewBox="0 0 285 206" fill="none" xmlns="http://www.w3.org/2000/svg">
<path d="M194.496 13.4481L51.9942 51.0292C47.2436 52.282 43.4612 55.8688 41.9212 60.5705L20.4083 126.461C18.5668 132.105 20.2727 138.372 24.7349 142.353L76.839 188.83C80.5612 192.143 85.6498 193.391 90.4096 192.135L232.911 154.554C237.662 153.301 241.444 149.715 242.984 145.013L264.497 79.1225C266.339 73.4782 264.633 67.2119 260.17 63.2301L208.066 16.754C204.344 13.4401 199.256 12.1928 194.496 13.4481Z" fill="#EA2D23"/>
<path d="M66.9837 106.673C66.3446 106.841 65.7313 107.032 65.1374 107.258C64.7392 107.412 64.3618 107.571 63.9986 107.746C63.7689 107.836 63.565 107.95 63.3519 108.065C63.1298 108.183 62.901 108.313 62.688 108.429C62.5115 108.535 62.3416 108.629 62.1676 108.745C62.0474 108.806 61.9505 108.881 61.8354 108.962C61.6391 109.103 61.4403 109.235 61.2466 109.385C61.0346 109.54 60.8342 109.702 60.6273 109.876C60.6024 109.893 60.5685 109.912 60.5487 109.947C60.4046 110.064 60.254 110.193 60.1216 110.318C59.9355 110.496 59.756 110.662 59.579 110.838C59.4111 111.012 59.2524 111.183 59.0962 111.363C58.9374 111.534 58.7878 111.703 58.6433 111.89L58.4673 112.106C58.3137 112.296 58.1717 112.492 58.0231 112.7C57.8588 112.923 57.6996 113.164 57.5586 113.4C57.4059 113.629 57.2675 113.874 57.1316 114.129C56.9841 114.377 56.8639 114.618 56.7305 114.882C56.6195 115.12 56.4993 115.36 56.4 115.605C56.3604 115.676 56.3366 115.732 56.3128 115.788C56.0121 116.514 55.7607 117.277 55.5392 118.041C55.4682 118.319 55.3998 118.606 55.3446 118.869C55.2341 119.396 55.1444 119.927 55.0639 120.456C55.0624 120.486 55.0517 120.519 55.0593 120.547C54.9798 121.115 54.9277 121.676 54.903 122.23C54.8944 122.521 54.8833 122.803 54.8839 123.091C54.8794 123.361 54.8799 123.65 54.8922 123.945C54.9019 124.231 54.909 124.508 54.937 124.79C54.9813 125.345 55.0372 125.908 55.1322 126.47C55.1784 126.747 55.2155 127.026 55.2708 127.3C55.2972 127.432 55.3211 127.555 55.3541 127.676L66.7122 124.693C66.6711 124.614 66.6209 124.537 66.5889 124.456C66.2728 123.872 65.9607 123.267 65.6927 122.681C65.2923 121.86 64.9152 121.053 64.5822 120.265C64.4478 119.952 64.3224 119.636 64.2021 119.339C63.9143 118.609 63.6615 117.899 63.4463 117.219C63.3433 116.877 63.2478 116.564 63.1615 116.248C62.2299 112.84 62.378 110.302 64.3501 109.784C64.4414 109.76 64.5444 109.743 64.6382 109.728C64.723 109.716 64.8102 109.713 64.9025 109.729C64.969 109.721 65.0522 109.739 65.1328 109.748C65.2226 109.754 65.315 109.77 65.4124 109.804C65.4839 109.815 65.5696 109.842 65.6462 109.872C66.1348 110.012 66.673 110.299 67.2235 110.702C67.3427 110.78 67.4762 110.874 67.5913 110.973C67.7248 111.068 67.8582 111.162 67.9759 111.27C68.1028 111.377 68.2362 111.471 68.3564 111.589C68.8882 112.066 69.426 112.602 69.9867 113.221C70.1922 113.436 70.3911 113.662 70.5808 113.891C71.4718 114.931 72.376 116.127 73.2549 117.409C73.3529 117.553 73.4625 117.703 73.5563 117.868C73.7588 118.143 73.943 118.423 74.1232 118.724C74.3124 119.023 74.5134 119.328 74.6935 119.629C74.9665 120.055 75.2355 120.502 75.4928 120.943C75.6176 121.149 75.745 121.364 75.8515 121.575C75.9789 121.79 76.1038 121.996 76.2129 122.217L87.7993 119.173C87.7591 118.955 87.7033 118.75 87.6474 118.546C85.3223 110.038 77.829 103.854 66.9822 106.704L66.9837 106.673Z" fill="#F6E7E0"/>
<path d="M118.14 93.485C122.137 95.6384 124.877 99.5406 126.209 104.423C126.394 105.103 126.571 105.785 126.725 106.494C126.887 107.16 127.031 107.831 127.175 108.502C127.173 108.532 127.186 108.579 127.194 108.607L130.466 107.746L130.191 90.3232L118.143 93.4943L118.14 93.485ZM113.176 94.7915L101.127 97.9626C105.124 100.116 107.855 104.021 109.187 108.903C109.373 109.583 109.549 110.265 109.703 110.974C109.865 111.64 110.009 112.311 110.153 112.982C110.151 113.012 110.164 113.059 110.172 113.087L121.635 110.07L113.19 94.9874L113.188 94.7984L113.176 94.7915ZM84.9375 102.224L93.4858 117.469L104.611 114.541L96.0629 99.2955L84.9375 102.224Z" fill="#F6E7E0"/>
<path d="M150.966 84.6898C151.357 84.9053 151.733 85.1349 152.109 85.3645C152.123 85.3807 152.149 85.4037 152.191 85.4127C152.511 85.6171 152.828 85.8123 153.133 86.0308C153.228 86.0952 153.324 86.1595 153.411 86.2263C153.696 86.41 153.974 86.6055 154.225 86.8082C154.917 87.3329 155.583 87.8741 156.207 88.4366C156.816 88.9829 157.382 89.5505 157.914 90.1369C158.199 90.43 158.455 90.7209 158.704 91.0236C159.209 91.6172 159.679 92.2297 160.137 92.8656C160.339 93.1407 160.533 93.4182 160.726 93.6957C160.96 94.052 161.188 94.4199 161.413 94.7786C161.633 95.1186 161.826 95.4659 162.021 95.8225C162.214 96.1698 162.419 96.5239 162.596 96.8853C162.924 97.5152 163.238 98.1591 163.523 98.8103L166.471 98.0361L162.025 81.7756L150.963 84.6806L150.966 84.6898ZM133.104 89.3804L137.55 105.641L140.334 104.91C140.199 104.597 140.071 104.272 139.946 103.957C139.722 103.389 139.51 102.828 139.307 102.265C139.294 102.218 139.282 102.172 139.26 102.128C139.06 101.574 138.882 101.033 138.709 100.472C138.143 98.7209 137.637 96.9438 137.152 95.1711L136.665 93.3891L145.636 103.517L157.867 100.306L145.371 86.1591L133.113 89.378L133.104 89.3804Z" fill="#F6E7E0"/>
<path d="M189.384 74.4529L166.588 80.4351L171.03 96.6688L188.419 92.1056L187.088 87.241C186.741 87.8682 186.387 88.4676 186.005 89.0347C184.86 90.7453 183.546 92.1925 182.002 93.2632L178.011 78.6788C179.307 78.8056 180.566 79.0511 181.829 79.4149C182.444 79.5912 183.078 79.8021 183.699 80.0364C185.259 80.63 186.798 81.3585 188.325 82.1892C189.854 83.0292 191.369 83.9923 192.871 85.0182C191.672 81.5292 190.388 78.1222 189.382 74.4436L189.384 74.4529Z" fill="#F6E7E0"/>
<path d="M230.234 80.145C230.164 79.9245 230.082 79.6971 229.994 79.4814C229.882 79.1821 229.753 78.8876 229.624 78.593C229.514 78.3728 229.426 78.1571 229.308 77.9393C229.196 77.7098 229.079 77.4617 228.95 77.237C228.691 76.7574 228.426 76.2894 228.118 75.8427C227.982 75.6297 227.836 75.4191 227.691 75.2084C227.545 74.9978 227.388 74.7803 227.212 74.5676C227.074 74.3849 226.939 74.2114 226.785 74.0427C226.742 73.9942 226.697 73.9364 226.657 73.8971C226.51 73.7168 226.347 73.5505 226.191 73.3726C226.002 73.1832 225.831 72.9891 225.634 72.8022C225.499 72.6683 225.344 72.5298 225.195 72.3798C225.066 72.2644 224.927 72.1515 224.798 72.0361C224.671 71.9301 224.556 71.8309 224.411 71.7297C224.218 71.5613 224.021 71.4139 223.815 71.269C223.613 71.103 223.398 70.9604 223.162 70.8133C222.944 70.6615 222.714 70.533 222.487 70.3835C222.279 70.2688 222.063 70.1564 221.85 70.0231C221.554 69.8719 221.24 69.7254 220.94 69.5951C220.738 69.499 220.52 69.4169 220.313 69.3417C220.125 69.2618 219.93 69.1935 219.724 69.1183C219.464 69.0273 219.198 68.9479 218.931 68.8686C216.213 68.0894 213.105 68.03 209.699 68.9247L194.305 72.9688L198.752 89.2416L209.864 86.3224L205.927 71.9166L208.821 71.1562C209.579 70.9571 210.342 71.0256 211.075 71.3107C211.196 71.3586 211.317 71.4066 211.442 71.473C211.554 71.5234 211.689 71.5875 211.811 71.6749C211.925 71.7345 212.032 71.8058 212.163 71.8909C212.648 72.2315 213.137 72.6605 213.61 73.1734C213.721 73.2935 213.835 73.4229 213.951 73.5616C213.999 73.6288 214.065 73.6911 214.112 73.7582C214.212 73.8714 214.305 73.9963 214.4 74.1306C214.516 74.2693 214.626 74.4197 214.74 74.5886C214.85 74.739 214.965 74.908 215.077 75.0677C215.189 75.2274 215.306 75.4056 215.405 75.5887C215.678 76.0147 215.943 76.4827 216.195 76.9741C216.306 77.164 216.395 77.3495 216.497 77.5418C216.598 77.7341 216.688 77.9196 216.783 78.1236C217.352 79.3083 217.87 80.5957 218.32 81.9209C218.469 82.3595 218.621 82.8074 218.755 83.2602C218.815 83.4831 218.885 83.7036 218.949 83.9358L230.472 80.9087C230.394 80.6604 230.314 80.4027 230.215 80.1498L230.234 80.145Z" fill="#F6E7E0"/>
<path d="M87.652 118.933C89.768 127.602 86.837 138.243 76.2854 141.013C65.7338 143.784 57.893 137.434 55.5042 128.698C55.39 128.28 55.2874 127.87 55.2097 127.442L66.5645 124.461C70.4398 131.692 76.0727 138.661 78.9388 137.909C80.9103 137.391 81.0302 134.752 80.0884 131.308C79.3243 128.513 77.8571 125.187 76.0665 121.966L87.6495 118.924L87.652 118.933Z" fill="#8DC8E8"/>
<path d="M130.301 107.507L130.591 126.053L119.476 128.974L113.407 116.291L113.603 130.517L102.488 133.437L93.375 117.21L104.49 114.289L111.769 127.242C111.515 122.586 110.983 117.525 110.034 112.833L121.487 109.823L128.766 122.776C128.512 118.12 127.98 113.059 127.04 108.364L130.31 107.505L130.301 107.507Z" fill="#8DC8E8"/>
<path d="M166.338 97.8545L171.073 115.152L158.894 118.346L145.551 103.307L157.766 100.103L167.527 111.152L167.041 109.375C166.051 105.756 164.958 102.085 163.396 98.6263L166.338 97.8545Z" fill="#8DC8E8"/>
<path d="M153.127 119.907L142.133 122.792L137.418 105.558L140.185 104.832C142.664 110.733 146.378 116.134 153.127 119.907Z" fill="#8DC8E8"/>
<path d="M199.542 107.549L175.649 113.817L170.91 96.5029L188.294 91.9423L189.643 96.8707C187.124 95.377 184.613 94.4867 182.173 94.1737L186.306 109.274C190.918 107.061 194.366 103.168 196.061 96.9741C197.017 100.467 197.989 103.27 199.551 107.547L199.542 107.549Z" fill="#8DC8E8"/>
<path d="M230.504 81.2453C232.802 89.6476 229.689 99.4805 218.763 102.349L203.374 106.39L198.629 89.0381L209.737 86.1212L213.972 101.607L216.875 100.845C221.009 99.7595 221.019 91.7068 218.975 84.233C218.929 84.0658 218.886 83.908 218.829 83.734L230.348 80.7093C230.405 80.8833 230.456 81.0689 230.504 81.2453Z" fill="#8DC8E8"/>
<path d="M85.8689 73.3866L88.9825 72.2429C90.1913 74.8737 91.3137 77.1896 92.3318 79.1954C93.3498 81.2012 94.4428 83.2668 95.599 85.3853L95.8177 85.328C95.9572 83.3065 96.1422 79.5264 96.3703 73.9784C96.2112 73.6827 96.1073 73.4817 96.0561 73.3661C95.6634 72.6453 95.289 71.9197 94.9276 71.1708L97.8849 70.0979C99.13 72.5405 100.251 74.6383 101.272 76.4052C102.293 78.1721 103.57 80.3384 105.118 82.89L105.419 82.8112C105.219 77.9113 104.864 73.0519 104.35 68.2147L107.529 67.7385C107.908 73.5047 108.017 79.5698 107.871 85.9197L104.419 86.8247C102.162 83.4665 100.342 80.6386 98.9613 78.3408L98.606 78.434L98.5802 79.195C98.3914 83.5318 98.2161 86.6345 98.0516 88.4938L94.8816 89.3248C91.6301 84.0835 88.6336 78.7754 85.878 73.3843L85.8689 73.3866Z" fill="#F6E7E0"/>
<path d="M115.425 81.7177C113.831 80.5913 112.647 78.615 111.875 75.798C111.022 72.6855 111.014 70.203 111.844 68.362C112.674 66.521 114.418 65.2423 117.08 64.5445C121.869 63.2893 125.043 65.526 126.611 71.2523C127.459 74.3464 127.464 76.8197 126.625 78.6631C125.786 80.5065 124.034 81.7875 121.38 82.483C119.018 83.1022 117.03 82.851 115.434 81.7154L115.425 81.7177ZM124.093 78.1985C124.363 76.3061 124.236 74.4191 123.715 72.5165C123.315 71.0572 122.857 69.92 122.339 69.0955C121.821 68.2711 121.167 67.7299 120.37 67.4536C119.574 67.1773 118.586 67.1986 117.396 67.5106C116.042 67.8655 115.006 68.3152 114.289 68.8596C114.037 70.6084 114.192 72.4883 114.749 74.5202C115.148 75.9795 115.615 77.1143 116.145 77.9456C116.674 78.7769 117.34 79.3249 118.123 79.5851C118.914 79.843 119.892 79.8241 121.065 79.5168C122.364 79.1762 123.372 78.7337 124.087 78.18L124.093 78.1985Z" fill="#F6E7E0"/>
<path d="M128.247 61.7996L132.075 60.7963L138.102 69.3494L138.293 69.2994L139.168 58.9374L142.968 57.9412L148.369 75.058L145.314 75.8588L142.629 67.232L141.461 62.8629L141.228 62.8646L140.226 72.1209L137.889 72.7334L132.29 65.2072L132.086 65.3199L133.336 69.6676L135.393 78.4588L132.338 79.2595L128.265 61.7948L128.247 61.7996Z" fill="#F6E7E0"/>
<path d="M153.817 73.0349C152.584 72.8639 151.805 72.1879 151.485 71.0164L147.555 56.6621L159.121 53.629L159.894 56.4519L151.321 58.7L152.561 63.2295L160.091 61.255L160.826 63.9395L153.296 65.914L154.504 70.3236C155.652 70.2202 156.829 70.0103 158.036 69.6939C159.85 69.2182 161.399 68.6242 162.7 67.9073L163.959 70.4839C162.701 71.249 160.953 71.9346 158.722 72.5198C156.69 73.0527 155.057 73.2336 153.822 73.0533L153.817 73.0349Z" fill="#F6E7E0"/>
<path d="M162.969 52.5078L166.684 51.534L177.41 63.0421L177.613 62.9295L176.096 58.5669L173.669 49.703L176.721 48.9029L181.452 66.1784L177.737 67.1522L166.984 55.6513L166.781 55.7638L168.305 60.1542L170.725 68.9904L167.7 69.7833L162.969 52.5078Z" fill="#F6E7E0"/>
<path d="M157.719 137.848L150.695 133.771L146.733 140.679L153.756 144.756L157.719 137.848Z" fill="#8DC8E8"/>
<path d="M176.595 132.796L169.566 128.714L165.609 135.617L172.638 139.7L176.595 132.796Z" fill="#8DC8E8"/>
<path d="M138.845 142.918L131.816 138.835L127.859 145.738L134.888 149.821L138.845 142.918Z" fill="#8DC8E8"/>
</svg>
