<svg width="171" height="171" viewBox="0 0 171 171" fill="none" xmlns="http://www.w3.org/2000/svg">
<path d="M152.748 69.9264C153.134 71.4235 153.485 72.9438 153.671 74.4825C154.031 77.5154 152.971 79.9985 150.382 81.6824C149.093 82.5227 147.704 83.2472 146.286 83.8639C143.722 84.9743 141.095 85.9314 138.521 87.0038C137.089 87.5969 135.66 88.2235 134.3 88.9537C131.973 90.2036 131.52 92.5396 133.387 94.2898C134.512 95.351 135.753 96.2912 136.985 97.2206C139.708 99.2804 142.498 101.26 145.201 103.346C146.173 104.101 147.045 105.014 147.854 105.944C149.388 107.697 149.803 109.794 149.34 112.044C149.154 112.948 148.893 113.88 148.445 114.679C146.494 118.207 144.478 121.698 142.448 125.186C142.137 125.715 141.673 126.157 141.244 126.603C139.386 128.542 137.113 129.375 134.493 128.774C132.685 128.352 130.912 127.756 129.187 127.065C125.73 125.679 122.334 124.146 118.876 122.76C118.04 122.424 117.072 122.426 116.163 122.267C115.096 122.084 113.693 123.372 113.549 124.483C113.427 125.397 113.337 126.357 113.457 127.259C113.959 130.955 114.545 134.635 115.098 138.318C115.37 140.167 115.594 142.016 115.374 143.885C115.063 146.537 113.745 148.532 111.361 149.777C110.814 150.064 110.261 150.36 109.678 150.569C105.864 151.895 101.99 152.999 98.0168 153.747C97.4136 153.859 96.7824 153.87 96.161 153.891C93.4599 153.961 91.303 152.816 89.8442 150.619C88.8193 149.08 88.0009 147.375 87.2654 145.674C85.7829 142.255 84.4582 138.765 82.982 135.344C82.6254 134.521 81.9417 133.823 81.3628 133.109C80.8894 132.53 79.3924 132.22 78.7893 132.53C78.253 132.835 77.6202 133.037 77.2129 133.463C76.3447 134.344 75.5455 135.302 74.8109 136.296C72.9537 138.781 71.1763 141.332 69.3029 143.808C68.3748 145.04 67.3417 146.213 66.2818 147.338C64.0973 149.674 60.7663 150.327 57.7054 148.995C53.4259 147.126 49.3802 144.845 45.5941 142.096C45.341 141.92 45.1327 141.684 44.9043 141.474C42.9612 139.622 42.0953 137.35 42.64 134.729C43.0179 132.912 43.6329 131.138 44.3143 129.408C45.6835 125.946 47.2119 122.542 48.5874 119.077C48.9225 118.241 48.9417 117.274 49.058 116.361C49.1907 115.335 47.8981 113.74 46.9219 113.662C46.0016 113.588 45.0551 113.419 44.1458 113.534C41.0734 113.938 38.016 114.496 34.9373 114.902C32.7932 115.187 30.6255 115.485 28.4638 115.509C25.0859 115.547 22.6803 113.823 21.1859 110.632C21.0547 110.354 20.9344 110.067 20.8332 109.774C19.4751 105.966 18.3433 102.088 17.6585 98.1009C17.5039 97.195 17.4661 96.2433 17.5392 95.3223C17.7022 93.3938 18.4702 91.6805 20.0279 90.5067C21.2603 89.5864 22.5833 88.7231 23.9872 88.1035C27.6787 86.4839 31.4393 85.0159 35.1663 83.4752C36.3234 82.9988 37.3594 82.3307 38.2465 81.4443C38.701 80.9913 39.0786 79.4199 38.7866 78.8317C38.5196 78.2844 38.3013 77.6418 37.8786 77.2467C36.7493 76.1936 35.5481 75.2013 34.3148 74.2657C31.3524 72.0058 28.3205 69.8401 25.3936 67.5363C24.4359 66.7838 23.6474 65.78 22.9166 64.7875C21.7486 63.1991 21.5137 61.3601 21.923 59.4592C22.1241 58.5574 22.385 57.6256 22.8263 56.8282C24.7693 53.296 26.7655 49.7833 28.8155 46.3171C29.2746 45.5352 29.9919 44.8732 30.6816 44.2597C32.1357 42.9575 33.8965 42.3213 35.8251 42.6146C37.3472 42.8428 38.8909 43.1741 40.3235 43.7204C43.7914 45.0696 47.1936 46.6008 50.6484 48.0014C51.7919 48.4637 52.9989 48.7856 54.1824 49.1208C55.8765 49.6017 58.0438 47.7956 57.9224 45.9729C57.8239 44.4305 57.6758 42.8814 57.4644 41.3497C57.0064 37.9617 56.4453 34.5954 56.0144 31.2067C55.8616 29.9864 55.8591 28.7178 55.9772 27.491C56.2272 24.8152 57.6724 22.8876 60.019 21.6325C60.5669 21.3448 61.1291 21.0599 61.7247 20.8955C65.3017 19.8739 68.8886 18.8633 72.4831 17.9051C73.3736 17.673 74.3205 17.5958 75.2497 17.5782C77.5542 17.5289 79.5458 18.3712 80.9601 20.185C81.9021 21.399 82.7027 22.768 83.3225 24.1733C84.8239 27.5871 86.1487 31.0771 87.6122 34.5014C88.0944 35.6308 88.7632 36.695 89.3922 37.7633C90.0924 38.9417 92.5322 39.3327 93.5098 38.4282C94.1896 37.8038 94.9244 37.2052 95.4852 36.4703C97.5485 33.7443 99.5033 30.9459 101.57 28.2326C102.704 26.7594 103.897 25.3246 105.209 24.0003C107.384 21.803 110.05 21.4083 112.952 22.2653C113.54 22.4442 114.144 22.6323 114.684 22.9336C117.939 24.7444 121.236 26.4887 124.395 28.4486C128.44 30.9489 129.692 34.4454 128.111 38.8465C126.85 42.3542 125.344 45.7658 123.936 49.2116C123.232 50.9345 122.441 52.6133 122.072 54.4622C121.782 55.8799 122.993 57.7496 124.447 57.8804C125.363 57.962 126.307 58.0972 127.207 57.9718C129.975 57.6033 132.724 57.1108 135.485 56.6898C137.016 56.4581 138.561 56.25 140.097 56.0852C146.074 55.4589 148.949 57.2518 150.677 62.7459C151.427 65.1182 152.087 67.5088 152.717 69.9144L152.748 69.9264Z" fill="#005E3D"/>
<path d="M70.3121 113.558C70.5001 111.67 70.7439 109.91 71.0399 108.266L73.2489 109.13C73.0052 110.371 72.7894 111.714 72.5971 113.166C72.4047 114.618 72.2689 115.904 72.1879 117.018L72.3282 117.082C73.0934 116.297 73.9549 115.343 74.9145 114.225C75.8741 113.107 76.7329 112.044 77.494 111.022L79.6235 112.093C78.5972 113.413 77.4505 114.767 76.1742 116.17C74.8979 117.574 73.723 118.751 72.6528 119.715L70.0312 118.542C70.0293 117.102 70.1223 115.439 70.3103 113.551L70.3121 113.558Z" fill="#F6E7E0"/>
<path d="M80.9289 121.88C80.2314 121.527 79.9131 120.966 79.9704 120.186L80.5508 112.335L87.8674 112.881L87.7068 115.041L82.7515 114.676L82.6206 116.425L86.7693 116.733L86.6159 118.795L82.4672 118.487L82.3464 120.124C82.8715 120.272 83.4909 120.368 84.1938 120.419C85.2513 120.496 86.2185 120.468 87.0955 120.335L87.2403 122.465C86.3243 122.629 85.2297 122.665 83.9629 122.571C82.6401 122.472 81.63 122.246 80.9405 121.897L80.9289 121.88Z" fill="#F6E7E0"/>
<path d="M91.3339 120.946C90.39 120.367 89.7293 119.307 89.3483 117.754C89.0999 116.731 89.0576 115.787 89.2196 114.917C89.3815 114.046 89.7699 113.304 90.3784 112.693C90.9868 112.081 91.8132 111.642 92.8673 111.385C94.1765 111.064 95.3858 111.024 96.5061 111.254L96.6638 111.9C96.7457 112.245 96.8184 112.607 96.8721 112.975C96.9275 113.349 96.951 113.656 96.9461 113.91L95.0614 114.369L94.6452 113.33C94.2071 113.349 93.6402 113.444 92.9444 113.615C92.3816 113.75 91.8381 113.955 91.3023 114.212C91.2673 115.123 91.369 116.084 91.6203 117.093C91.7781 117.739 91.9814 118.228 92.2304 118.562C92.4794 118.896 92.8098 119.105 93.2217 119.189C93.6336 119.274 94.1494 119.24 94.7675 119.083C95.0733 119.006 95.314 118.939 95.4833 118.886C95.6509 118.826 95.853 118.743 96.0878 118.63L95.733 117.172L93.6963 117.673L93.2282 115.755L96.4014 114.975L97.7582 115.617L98.3694 118.103C98.536 118.78 98.3166 119.393 97.723 119.96C97.1213 120.522 96.2436 120.948 95.0818 121.235C93.5301 121.615 92.2823 121.516 91.3402 120.944L91.3339 120.946Z" fill="#F6E7E0"/>
<path d="M101.441 118.783C100.894 117.174 100.367 115.511 99.8668 113.772C99.3682 112.04 98.9612 110.467 98.6538 109.057L101.454 107.199C102.639 108.032 103.932 109.013 105.33 110.149C106.734 111.283 108.069 112.415 109.334 113.54L107.363 115.019C106.899 114.622 106.225 114.01 105.347 113.174L102.656 114.961C103.074 116.176 103.378 117.034 103.571 117.533L101.446 118.775L101.441 118.783ZM103.7 111.752C102.951 111.112 102.162 110.477 101.331 109.84L101.135 109.969C101.357 110.87 101.634 111.851 101.966 112.906L103.7 111.752Z" fill="#F6E7E0"/>
<path d="M104.129 105.259L105.951 102.743L113.682 104.519L113.73 104.397L111.54 103.036L107.736 100.271L109.114 98.3694L117.028 104.121L115.207 106.637L107.476 104.861L107.428 104.983L109.617 106.344L113.421 109.109L112.044 111.011L104.129 105.259Z" fill="#F6E7E0"/>
<path d="M57.2378 68.2924C55.5442 67.4428 53.9843 66.5837 52.5536 65.723L54.148 63.9658C55.2184 64.6325 56.3961 65.3174 57.6856 66.0123C58.9689 66.709 60.1203 67.2988 61.1364 67.7689L61.2485 67.6561C60.7886 66.6571 60.2072 65.5142 59.5025 64.221C58.8041 62.9261 58.1148 61.738 57.4362 60.6628L59.1937 59.0517C60.0579 60.4782 60.9174 62.0357 61.7739 63.7305C62.6286 65.4189 63.315 66.9423 63.8297 68.2879L61.8003 70.3221C60.4532 69.8137 58.9342 69.1275 57.2406 68.278L57.2378 68.2924Z" fill="#F6E7E0"/>
<path d="M67.0363 65.2326C66.2625 65.3439 65.6799 65.0611 65.2839 64.3925L61.2666 57.6196L67.5688 53.8736L68.6748 55.7315L64.4047 58.2683L65.298 59.7755L68.8766 57.648L69.9328 59.4241L66.3543 61.5516L67.1942 62.9644C67.7096 62.7812 68.269 62.5107 68.8725 62.153C69.7856 61.6076 70.5607 61.0319 71.2026 60.418L72.5415 62.0819C71.8848 62.7409 71.0032 63.4005 69.9141 64.0492C68.7779 64.7246 67.8228 65.1179 67.049 65.2291L67.0363 65.2326Z" fill="#F6E7E0"/>
<path d="M73.9082 60.4148C72.9368 59.8845 72.229 58.8516 71.7719 57.3195C71.4729 56.3102 71.3827 55.3661 71.5095 54.4917C71.6363 53.6173 71.986 52.8588 72.565 52.2145C73.1439 51.5702 73.9471 51.096 74.9871 50.7884C76.2789 50.4045 77.4851 50.3035 78.6139 50.4901L78.8033 51.127C78.9042 51.4677 78.9959 51.8245 79.064 52.1947C79.1321 52.5649 79.1763 52.8734 79.1841 53.1238L77.3239 53.6714L76.8605 52.6597C76.4214 52.699 75.8632 52.8258 75.1762 53.0291C74.6222 53.1957 74.0839 53.4193 73.5695 53.7047C73.5742 54.611 73.7284 55.5647 74.0257 56.5677C74.2152 57.2046 74.4422 57.6811 74.7084 58.0034C74.9747 58.3257 75.3143 58.5185 75.7272 58.582C76.1402 58.6454 76.6554 58.5851 77.2664 58.4028C77.5705 58.3188 77.806 58.2333 77.9718 58.1671C78.1376 58.1008 78.3361 58.0051 78.5629 57.8879L78.1384 56.4492L76.128 57.0451L75.5648 55.1533L78.6977 54.2271L80.0849 54.8063L80.8102 57.2607C81.0084 57.9294 80.8196 58.5547 80.2538 59.1476C79.6816 59.7423 78.8207 60.2052 77.6747 60.5488C76.144 61.0055 74.8912 60.9624 73.9261 60.4303L73.9082 60.4148Z" fill="#F6E7E0"/>
<path d="M82.0255 58.8702C82.4155 57.2203 82.8555 55.5293 83.3582 53.7937C83.8545 52.0598 84.3492 50.5175 84.8387 49.154L88.1963 49.0665C88.7553 50.3999 89.3316 51.9195 89.9126 53.6289C90.4936 55.3384 91.0271 56.9995 91.4978 58.6302L89.0456 58.8362C88.8638 58.2518 88.6205 57.3704 88.3191 56.2048L85.0889 56.2844C84.7927 57.5331 84.5944 58.4204 84.4959 58.9526L82.0336 58.8748L82.0255 58.8702ZM87.6747 54.1171C87.3741 53.1764 87.0475 52.2156 86.6886 51.2365L86.4511 51.2407C86.1554 52.1207 85.8733 53.0994 85.5949 54.1657L87.6747 54.1171Z" fill="#F6E7E0"/>
<path d="M94.774 49.4278L97.792 50.1847L99.0372 58.0299L99.1663 58.0284L99.6029 55.4853L100.742 50.9193L103.021 51.4914L100.65 60.9831L97.6322 60.2262L96.3869 52.381L96.2578 52.3825L95.8212 54.9256L94.6799 59.4853L92.4016 58.9132L94.7722 49.4215L94.774 49.4278Z" fill="#F6E7E0"/>
<path d="M47.3794 85.5625C48.4158 85.6858 49.5344 85.5886 50.6557 85.2791C52.4613 84.7806 54.2468 83.7896 55.688 82.4159L59.8277 97.4122L64.801 96.0393L65.9493 100.199L52.5247 103.905L51.3764 99.7452L56.5714 98.3111L53.7164 87.969C52.4915 89.1875 50.8567 90.0824 49.2158 90.5353L47.3731 85.5642L47.3794 85.5625Z" fill="#8DC8E8"/>
<path d="M70.6328 78.1403C75.7454 76.7289 80.2649 79.6645 81.9488 85.7645C83.6327 91.8645 81.191 96.4556 76.0784 97.8669C70.9658 99.2783 66.5078 96.4417 64.8624 90.4812C63.217 84.5208 65.5202 79.5516 70.6328 78.1403ZM75.3103 93.2816C78.4527 92.4141 79.8023 90.3628 78.9253 87.186C77.9276 83.5717 74.692 81.8785 71.0555 82.8824C68.2363 83.6606 67.0209 85.8523 67.8961 89.0228C68.8553 92.4976 72.054 94.1805 75.3103 93.2816Z" fill="#8DC8E8"/>
<path d="M89.4434 72.9478C94.556 71.5364 99.0754 74.472 100.759 80.572C102.443 86.672 100.002 91.2631 94.8889 92.6744C89.7763 94.0858 85.3183 91.2492 83.6729 85.2887C82.0275 79.3283 84.3308 74.3591 89.4434 72.9478ZM94.1209 88.0891C97.2632 87.2216 98.6128 85.1703 97.7359 81.9935C96.7381 78.3792 93.5026 76.686 89.8661 77.6899C87.0469 78.4681 85.8314 80.6598 86.7067 83.8303C87.6659 87.3051 90.8645 88.988 94.1209 88.0891Z" fill="#8DC8E8"/>
<path d="M103.481 69.0452C106.738 68.1463 108.765 70.1798 109.437 72.6147C110.269 75.6267 108.914 78.1776 106.316 78.8946C103.719 79.6117 101.162 78.2293 100.315 75.1602C99.6586 72.7824 100.339 69.9126 103.481 69.0452ZM106.408 89.0306L112.706 66.9696L115.848 66.1021L109.55 88.1632L106.408 89.0306ZM105.764 75.5121C107.158 75.1273 107.651 74.3431 107.432 73.5505C107.138 72.4852 105.912 71.9978 104.139 72.4874C102.662 72.8949 102.163 73.6538 102.389 74.4718C102.683 75.5371 103.933 76.0175 105.764 75.5121ZM116.04 76.183C119.297 75.2841 121.324 77.3176 121.996 79.7526C122.828 82.7645 121.473 85.3154 118.875 86.0324C116.278 86.7495 113.721 85.3671 112.874 82.298C112.218 79.9202 112.898 77.0504 116.04 76.183ZM114.922 81.6166C115.216 82.6819 116.467 83.1623 118.323 82.6499C119.717 82.2652 120.21 81.4809 119.991 80.6883C119.697 79.623 118.471 79.1356 116.697 79.6252C115.196 80.0397 114.696 80.7986 114.922 81.6166Z" fill="#8DC8E8"/>
</svg>
