<svg width="132" height="132" viewBox="0 0 132 132" fill="none" xmlns="http://www.w3.org/2000/svg">
<path d="M0.697386 66.0104C0.66756 61.0771 6.17345 56.812 7.16964 52.1949C8.20162 47.4228 5.01023 41.1832 7.01455 36.8763C9.01886 32.5694 15.8192 31.09 18.7362 27.314C21.6651 23.5261 21.4265 16.4752 25.1011 13.439C28.7577 10.4206 35.4447 12.1326 39.7099 9.99703C43.9034 7.89727 46.6772 1.43098 51.3361 0.321455C55.8458 -0.752283 61.131 3.75145 65.9568 3.72759C70.7827 3.69776 76.0201 -0.871587 80.5417 0.148464C85.2125 1.20431 88.0579 7.6348 92.2753 9.68684C96.5643 11.7687 103.233 9.97913 106.926 12.9558C110.636 15.9443 110.481 22.9952 113.452 26.7533C116.405 30.4875 123.193 31.8178 125.281 36.1724C127.333 40.4614 124.213 46.7368 125.299 51.491C126.349 56.1021 131.902 60.2957 131.932 65.2289C131.962 70.1621 126.456 74.4273 125.46 79.0443C124.428 83.8165 127.619 90.0561 125.615 94.363C123.575 98.7474 116.81 100.149 113.893 103.925C110.964 107.713 111.203 114.764 107.528 117.8C103.872 120.819 97.1847 119.107 92.9196 121.242C88.726 123.342 85.9522 129.808 81.2934 130.918C76.7837 131.992 71.4985 127.488 66.6726 127.512C61.8468 127.542 56.6093 132.111 52.0877 131.091C47.4169 130.035 44.5715 123.604 40.3541 121.552C36.0651 119.471 29.396 121.26 25.7036 118.284C21.9932 115.295 22.1483 108.244 19.1776 104.486C16.2069 100.728 9.43642 99.4215 7.3486 95.0669C5.29656 90.7779 8.41637 84.5025 7.3307 79.7482C6.27486 75.1431 0.727212 70.9436 0.697386 66.0104Z" fill="#E10092"/>
<path d="M42.1668 96.5283C42.1966 97.8645 41.5405 99.2305 40.2043 100.632C39.3274 101.551 38.3908 102.213 37.3946 102.607C36.3984 103.006 35.3903 103.09 34.3703 102.875C33.3502 102.655 32.36 102.094 31.4115 101.187C30.2304 100.066 29.4013 98.8547 28.9121 97.5602L29.4669 96.9816C29.7651 96.6655 30.0873 96.3612 30.4332 96.0689C30.7792 95.7707 31.0775 95.544 31.334 95.3889L33.0341 97.0114L32.2467 98.1091C32.5509 98.5445 33.0221 99.0575 33.6485 99.654C34.1555 100.137 34.7163 100.567 35.3247 100.937C36.2732 100.382 37.1859 99.6481 38.0568 98.7414C38.6115 98.1627 38.9754 97.6378 39.1544 97.1606C39.3333 96.6893 39.3333 96.2181 39.1484 95.7409C38.9635 95.2696 38.5936 94.7626 38.0329 94.2257C37.7585 93.9632 37.5318 93.7604 37.3648 93.6292C37.1918 93.492 36.9771 93.3428 36.7146 93.1818L35.4619 94.4941L37.2992 96.2479L35.6528 97.9718L32.7955 95.2458L32.5628 93.4443L34.6984 91.2073C35.277 90.5988 36.0525 90.4199 37.0129 90.6585C37.9792 90.9031 38.9814 91.5235 40.0313 92.5256C41.4331 93.8618 42.1429 95.198 42.1728 96.5342L42.1668 96.5283Z" fill="#F6E7E0"/>
<path d="M26.1265 94.9653L24.6113 92.5374L32.384 87.6818L29.6221 83.2615L31.8889 81.8478L36.1659 88.6958L26.1325 94.9653H26.1265Z" fill="#F6E7E0"/>
<path d="M30.5658 81.0546C30.0707 82.015 29.152 82.707 27.8218 83.1305L20.5442 85.445L19.6793 82.7129L26.3543 80.5893C26.9389 80.4044 27.3744 80.2016 27.6607 79.9749C27.947 79.7482 28.12 79.4738 28.1678 79.1458C28.2155 78.8177 28.1558 78.3882 27.9888 77.8513C27.8397 77.3801 27.6965 76.9923 27.5533 76.7C27.4102 76.4018 27.2372 76.1154 27.0284 75.8351L18.3669 78.585L17.502 75.8589L26.3245 73.0553C27.2252 72.7689 28.0306 73.0135 28.7523 73.789C29.4741 74.5645 30.0707 75.6919 30.5419 77.1832C31.0609 78.8117 31.0668 80.1002 30.5717 81.0606L30.5658 81.0546Z" fill="#F6E7E0"/>
<path d="M19.4342 68.635L19.5655 72.411L16.8931 72.5005L16.5352 62.0852L19.2076 61.9957L19.3388 65.7717L28.4954 65.4556L28.5968 68.3189L19.4402 68.635H19.4342Z" fill="#F6E7E0"/>
<path d="M28.448 60.0809C27.8992 60.8504 27.1655 61.1308 26.2468 60.922L16.959 58.8043L18.9335 50.1488L21.4806 50.7334L20.1444 56.5972L22.2084 57.0685L23.3298 52.1531L25.7696 52.7079L24.6481 57.6232L26.5809 58.0646C26.8493 57.4622 27.076 56.7404 27.2669 55.9112C27.5532 54.6585 27.6964 53.4953 27.6904 52.4275L30.2614 52.6423C30.2912 53.7697 30.1361 55.088 29.7902 56.5912C29.4322 58.1541 28.9789 59.3233 28.4361 60.0928L28.448 60.0809Z" fill="#F6E7E0"/>
<path d="M20.2461 46.4921L22.0357 43.1874L31.5979 44.0941L31.6337 43.939L28.7883 42.6565L23.7894 39.9483L25.1435 37.4489L35.5469 43.086L33.7573 46.3907L24.1951 45.49L24.1593 45.6451L27.0047 46.9276L32.0035 49.6358L30.6494 52.1352L20.2461 46.4981V46.4921Z" fill="#F6E7E0"/>
<path d="M83.9785 23.7229L87.8917 22.3807L89.0847 26.3416L85.2252 27.5884L83.9785 23.7289V23.7229Z" fill="#8DC8E8"/>
<path d="M36.6973 25.5961L44.2552 20.9075L45.657 23.1623L40.5329 26.3418L41.708 28.2387L46.009 25.5723L47.369 27.7615L43.0681 30.4279L45.3767 34.1443L42.9428 35.6535L36.7032 25.5961H36.6973Z" fill="#F6E7E0"/>
<path d="M57.4802 28.5847C57.1164 28.4892 56.7704 28.2804 56.4482 27.9583L54.9927 26.5505C54.7064 26.2821 54.4917 26.0852 54.3366 25.9779C54.1815 25.8645 53.9787 25.787 53.7221 25.7392C53.4656 25.6915 53.1495 25.7214 52.7677 25.8228L52.1115 26.0256L53.3702 30.07L50.656 30.9171L47.2559 19.9769C48.2342 19.273 49.463 18.6943 50.9304 18.235C52.4396 17.7638 53.6864 17.6862 54.6825 17.9964C55.6787 18.3066 56.3528 19.0344 56.7107 20.1737C56.9493 20.9373 56.9553 21.6769 56.7286 22.3808C56.5019 23.0847 56.0605 23.7349 55.4103 24.3374L55.464 24.4985C55.8577 24.4806 56.2156 24.5283 56.5377 24.6357C56.8598 24.7431 57.2058 24.928 57.5757 25.1845L59.1326 26.3417L59.914 26.2821L60.3913 27.8151C60.087 28.0299 59.58 28.2446 58.8761 28.4653C58.3154 28.6383 57.856 28.6801 57.4922 28.5847H57.4802ZM53.9011 23.0489C54.2471 22.5837 54.3187 22.011 54.1099 21.3429C53.9548 20.8418 53.6864 20.5435 53.3046 20.4481C52.9168 20.3467 52.374 20.4063 51.6701 20.6271C51.2585 20.7523 50.8887 20.9074 50.5725 21.0864L51.4196 23.8184L53.9011 23.0489Z" fill="#F6E7E0"/>
<path d="M61.8418 27.624C60.9589 27.2959 60.4936 26.6636 60.4578 25.7211L60.082 16.2006L68.9523 15.8486L69.0537 18.4614L63.0467 18.7L63.1303 20.8177L68.1649 20.6148L68.2663 23.1143L63.2317 23.3171L63.3092 25.2975C63.9654 25.3989 64.717 25.4347 65.57 25.3989C66.8525 25.3453 68.0158 25.1842 69.0477 24.8979L69.513 27.439C68.4333 27.7612 67.121 27.952 65.582 28.0177C63.9773 28.0833 62.7365 27.952 61.8477 27.624H61.8418Z" fill="#F6E7E0"/>
<path d="M71.5158 27.7077C70.7403 27.1649 70.454 26.4371 70.6568 25.5185L72.691 16.2128L81.3644 18.1097L80.8036 20.6628L74.9279 19.3803L74.4746 21.4502L79.3959 22.5299L78.859 24.9757L73.9377 23.896L73.5142 25.8347C74.1226 26.0971 74.8384 26.3178 75.6736 26.5028C76.9263 26.7772 78.0895 26.9084 79.1632 26.8965L78.9723 29.4734C77.8449 29.5152 76.5266 29.3661 75.0234 29.038C73.4545 28.698 72.2853 28.2506 71.5098 27.7137L71.5158 27.7077Z" fill="#F6E7E0"/>
<path d="M89.3289 33.8636C89.2513 32.5274 89.8538 31.1375 91.1423 29.6939C91.9834 28.7395 92.8961 28.0475 93.8744 27.618C94.8527 27.1885 95.8548 27.0573 96.8868 27.2422C97.9188 27.4212 98.921 27.9521 99.9052 28.817C101.122 29.8967 101.999 31.0779 102.536 32.3484L102.005 32.9509C101.719 33.273 101.408 33.5892 101.074 33.8994C100.74 34.2096 100.448 34.4482 100.198 34.6152L98.4437 33.0583L99.1894 31.9309C98.8673 31.5073 98.3781 31.0122 97.7339 30.4336C97.2089 29.9683 96.6363 29.5627 96.0099 29.2107C95.0794 29.8013 94.1965 30.5648 93.3614 31.5073C92.8305 32.1098 92.4845 32.6467 92.3234 33.1239C92.1624 33.6011 92.1803 34.0724 92.3831 34.5377C92.5799 35.003 92.9736 35.4921 93.5523 36.0111C93.8386 36.2616 94.0653 36.4585 94.2442 36.5837C94.4172 36.715 94.6439 36.8581 94.9123 37.0132L96.1173 35.6532L94.2204 33.971L95.8011 32.1874L98.7599 34.8061L99.0582 36.6016L97.0061 38.9161C96.4514 39.5425 95.6819 39.7572 94.7095 39.5485C93.7372 39.3397 92.7052 38.7551 91.6195 37.7947C90.17 36.5122 89.4124 35.2058 89.3349 33.8696L89.3289 33.8636Z" fill="#F6E7E0"/>
<path d="M105.422 34.8601L107.027 37.2343L99.4388 42.3643L102.356 46.6832L100.143 48.1804L95.6211 41.4934L105.428 34.8661L105.422 34.8601Z" fill="#F6E7E0"/>
<path d="M101.486 48.9138C101.945 47.9356 102.84 47.2138 104.158 46.7425L111.347 44.1715L112.313 46.8678L105.715 49.224C105.143 49.4269 104.713 49.6476 104.433 49.8862C104.152 50.1188 103.991 50.4052 103.956 50.7332C103.92 51.0613 103.991 51.4908 104.182 52.0217C104.349 52.487 104.51 52.8688 104.66 53.1611C104.809 53.4534 104.994 53.7337 105.214 54.0081L113.768 50.948L114.735 53.6443L106.02 56.7641C105.131 57.0802 104.314 56.8655 103.568 56.1198C102.822 55.3742 102.184 54.2646 101.659 52.7912C101.086 51.1866 101.027 49.8921 101.492 48.9198L101.486 48.9138Z" fill="#F6E7E0"/>
<path d="M113.059 60.9279L112.796 57.1579L115.462 56.967L116.196 67.3644L113.53 67.5553L113.267 63.7853L104.129 64.4295L103.926 61.5722L113.064 60.9279H113.059Z" fill="#F6E7E0"/>
<path d="M104.355 69.7981C104.874 69.0107 105.596 68.7005 106.52 68.8795L115.88 70.6631L114.222 79.3842L111.651 78.8951L112.778 72.9895L110.696 72.5899L109.754 77.541L107.296 77.0757L108.238 72.1246L106.288 71.7547C106.043 72.3691 105.84 73.0909 105.679 73.932C105.441 75.1967 105.339 76.3599 105.381 77.4336L102.798 77.3083C102.727 76.1809 102.84 74.8626 103.126 73.3474C103.425 71.7726 103.836 70.5915 104.355 69.8041V69.7981Z" fill="#F6E7E0"/>
<path d="M113.064 82.9754L111.411 86.3517L101.819 85.8506L101.789 86.0057L104.688 87.1629L109.801 89.6564L108.554 92.2095L97.918 87.0198L99.5703 83.6435L109.162 84.1386L109.198 83.9835L106.299 82.8262L101.187 80.3328L102.434 77.7797L113.07 82.9694L113.064 82.9754Z" fill="#F6E7E0"/>
<path d="M49.0453 105.971L45.1858 107.457L43.8496 103.543L47.6673 102.159L49.0513 105.977L49.0453 105.971Z" fill="#8DC8E8"/>
<path d="M97.3526 104.563L89.9677 109.52L88.4883 107.319L93.4991 103.955L92.2524 102.1L88.0529 104.921L86.6152 102.78L90.8147 99.9582L88.375 96.3313L90.7491 94.7327L97.3467 104.557L97.3526 104.563Z" fill="#F6E7E0"/>
<path d="M76.4729 102.315C76.8368 102.398 77.1887 102.589 77.5287 102.905L79.032 104.259C79.3243 104.522 79.5509 104.707 79.712 104.808C79.8731 104.915 80.0759 104.987 80.3324 105.023C80.5889 105.059 80.905 105.023 81.2808 104.903L81.9311 104.677L80.5292 100.68L83.2136 99.7375L87.0015 110.547C86.047 111.286 84.8421 111.907 83.3866 112.42C81.8953 112.939 80.6485 113.064 79.6404 112.789C78.6323 112.515 77.9344 111.811 77.5407 110.684C77.2782 109.926 77.2424 109.192 77.4452 108.483C77.648 107.773 78.0656 107.105 78.6919 106.478L78.6323 106.317C78.2386 106.347 77.8807 106.317 77.5586 106.222C77.2364 106.126 76.8845 105.959 76.5027 105.715L74.904 104.617L74.1286 104.707L73.5977 103.191C73.8959 102.965 74.397 102.732 75.089 102.488C75.6437 102.297 76.0971 102.237 76.4669 102.32L76.4729 102.315ZM80.2489 107.719C79.9208 108.196 79.8671 108.769 80.0997 109.431C80.2727 109.926 80.5531 110.212 80.9408 110.302C81.3286 110.385 81.8714 110.308 82.5693 110.063C82.9809 109.92 83.3388 109.753 83.649 109.562L82.7006 106.86L80.2489 107.719Z" fill="#F6E7E0"/>
<path d="M72.1495 103.436C73.0442 103.734 73.5274 104.349 73.599 105.291L74.3208 114.788L65.4684 115.456L65.2716 112.849L71.2666 112.396L71.1055 110.284L66.0828 110.666L65.892 108.172L70.9147 107.791L70.7655 105.81C70.1094 105.733 69.3577 105.727 68.5047 105.792C67.2222 105.888 66.0709 106.097 65.0509 106.419L64.4961 103.895C65.5698 103.531 66.8702 103.293 68.4033 103.18C70.002 103.06 71.2487 103.144 72.1495 103.442V103.436Z" fill="#F6E7E0"/>
<path d="M62.4907 103.698C63.284 104.211 63.5942 104.927 63.4272 105.858L61.7331 115.229L53 113.648L53.4653 111.077L59.3828 112.145L59.7586 110.063L54.8015 109.168L55.2489 106.711L60.206 107.606L60.5579 105.655C59.9435 105.416 59.2158 105.219 58.3747 105.064C57.11 104.838 55.9408 104.748 54.8731 104.802L54.9685 102.219C56.0959 102.141 57.4143 102.237 58.9294 102.511C60.5102 102.798 61.6913 103.191 62.4847 103.704L62.4907 103.698Z" fill="#F6E7E0"/>
<path d="M35.7956 30.9971L30.6074 36.1853L32.3495 37.9274L37.5377 32.7392L35.7956 30.9971Z" fill="#F6E7E0"/>
<path d="M101.059 91.8426L95.8711 97.0308L97.6131 98.7728L102.801 93.5846L101.059 91.8426Z" fill="#F6E7E0"/>
<path d="M78.6995 46.8261C76.558 51.1211 74.2018 52.3618 72.9371 51.7355C71.6725 51.1091 71.3623 48.2458 73.3845 44.1835C75.526 39.8886 77.2023 38.9401 78.8904 39.7812C80.5786 40.6223 80.7993 42.6087 78.6936 46.8321L78.6995 46.8261Z" fill="#F6E7E0"/>
<path d="M82.3979 52.314C80.9066 50.0532 79.0216 50.948 73.6588 54.3541C72.7104 54.9566 71.8633 55.4935 71.1236 55.9767C70.9148 56.1139 70.6345 55.9767 70.6166 55.7261C70.5569 54.8433 70.4734 53.8471 70.3839 52.7196C69.8769 46.3846 69.2446 44.2252 66.7511 44.5175C64.1801 44.8157 63.9057 46.9036 64.2756 53.1372C64.4545 56.1258 65.1823 59.2635 65.1823 59.2635C65.9935 63.0156 68.0158 64.2743 72.0184 62.2521C72.0244 62.2521 72.0363 62.2461 72.0363 62.2461C73.2472 61.6734 74.8698 60.713 76.9337 59.4007C82.207 56.0482 83.8057 54.4496 82.3979 52.308V52.314Z" fill="#F6E7E0"/>
<path d="M78.8952 64.3578C77.7261 61.9598 75.7874 62.4609 69.9415 64.9544C68.1996 65.7 66.7739 66.2906 65.6823 66.8453C65.4854 66.9408 65.2528 66.8274 65.211 66.6127C64.9963 65.4077 64.6145 63.9164 64.1552 62.0732C62.6281 55.9051 61.966 53.871 59.2399 54.5689C56.7345 55.2072 56.8061 57.4382 58.3093 63.5048C58.8998 65.8909 59.896 68.9272 59.8901 68.9272C61.095 72.1305 61.6259 74.2124 67.1139 72.4646C68.3905 72.0887 70.0548 71.4385 72.2679 70.496C78.0124 68.0443 79.969 66.5709 78.8893 64.3638L78.8952 64.3578Z" fill="#F6E7E0"/>
<path d="M73.6641 74.8685C72.4412 72.4168 70.5562 72.9716 64.7103 75.4651C62.9685 76.2107 61.5428 76.8013 60.4512 77.356C60.2543 77.4515 60.0217 77.3381 59.9799 77.1234C59.7652 75.9184 59.3834 74.4271 58.9241 72.5839C57.397 66.4158 56.4843 64.4652 54.0087 65.0796C51.4437 65.7119 51.4855 68.2114 52.8157 74.1467C53.5852 77.5708 54.5038 79.6168 55.333 80.7443C55.6014 81.1797 55.9773 81.6033 56.4366 81.9731L50.9844 90.4795L51.2409 90.6048C52.2371 91.6308 53.6985 92.3466 55.1004 92.5136L58.5423 83.0528C59.1686 83.2318 59.789 83.2914 60.3498 83.2377C61.7456 83.2198 63.8215 82.5219 67.0487 81.1439C72.7932 78.6922 74.7498 77.0637 73.6581 74.8626L73.6641 74.8685Z" fill="#F6E7E0"/>
<path d="M43.3004 41.8536L40.8672 44.4784L89.3305 89.403L91.7636 86.7782L43.3004 41.8536Z" fill="#8DC8E8"/>
</svg>
