<svg width="237" height="237" viewBox="0 0 237 237" fill="none" xmlns="http://www.w3.org/2000/svg">
<path d="M179.434 67.2691C184.067 35.1497 161.009 21.2059 134.717 40.243C131.801 42.36 127.67 41.7988 125.512 38.9124C106.07 12.8828 79.9112 19.3335 74.8002 51.4176C74.2318 54.9762 70.835 57.3938 67.2694 56.8751C35.15 52.242 21.2063 75.3007 40.2433 101.593C42.3603 104.508 41.7991 108.64 38.9127 110.797C12.8832 130.239 19.3339 156.398 51.418 161.509C54.9766 162.078 57.3942 165.474 56.8754 169.04C52.2423 201.159 75.3011 215.103 101.593 196.066C104.509 193.949 108.64 194.51 110.798 197.397C130.239 223.426 156.399 216.976 161.51 184.891C162.078 181.333 165.475 178.915 169.04 179.434C201.16 184.067 215.103 161.008 196.066 134.716C193.949 131.801 194.511 127.669 197.397 125.512C223.427 106.07 216.976 79.9109 184.892 74.7998C181.333 74.2315 178.916 70.8346 179.434 67.2691Z" fill="#8DC8E8"/>
<path d="M58.512 95.1831L61.384 91.2683L67.923 96.2532L72.0603 90.6248L65.5213 85.6399L68.3934 81.7251L84.6091 94.079L81.737 97.9938L75.7184 93.4149L71.5811 99.0433L77.5997 103.622L74.7276 107.537L58.512 95.1831Z" fill="#532826"/>
<path d="M86.1994 89.5723C84.0206 88.9474 82.02 87.2277 80.1755 84.4379C78.2042 81.4469 77.4261 78.7098 77.8254 76.2398C78.2337 73.7676 79.7575 71.6548 82.4147 69.8969C84.8846 68.2613 87.2122 67.7503 89.3844 68.3865C91.5632 69.0115 93.5637 70.7312 95.4082 73.521C97.3795 76.5119 98.1577 79.2491 97.7583 81.7191C97.35 84.1912 95.8262 86.304 93.178 88.0597C90.7081 89.6954 88.3805 90.2064 86.2083 89.5702L86.1994 89.5723ZM93.8375 81.4451C93.6591 80.5904 93.4049 79.7733 93.0591 79.0071C92.7134 78.2409 92.2711 77.4304 91.7008 76.5638C90.9154 75.3724 90.1746 74.4695 89.483 73.8733C88.7914 73.2771 88.0323 72.9769 87.2016 72.9931C86.3686 73.0002 85.4172 73.3639 84.345 74.0751C83.1992 74.8329 82.3337 75.6488 81.7463 76.5137C81.9247 77.3684 82.1766 78.1764 82.4975 78.9196C82.8207 79.6719 83.2832 80.4872 83.8717 81.3881C84.6571 82.5795 85.3979 83.4823 86.0895 84.0786C86.7812 84.6748 87.5402 84.975 88.3709 84.9588C89.2039 84.9516 90.1553 84.5879 91.2276 83.8768C92.3733 83.119 93.2388 82.303 93.8262 81.4381L93.8375 81.4451Z" fill="#532826"/>
<path d="M97.6957 62.3418L103.898 60.9577L113.609 74.4084L113.843 74.2846L112.229 69.1442L109.974 59.5945L114.667 58.5439L119.363 78.4094L113.161 79.7935L103.45 66.3428L103.216 66.4666L104.83 71.607L107.086 81.1567L102.392 82.2073L97.6957 62.3418Z" fill="#532826"/>
<path d="M122.815 76.1085C121.529 74.2163 121.052 71.6183 121.412 68.3171C121.788 64.7802 122.924 62.2194 124.817 60.6254C126.71 59.0315 129.247 58.4415 132.426 58.8554C135.391 59.2438 137.518 60.3739 138.815 62.273C140.1 64.1652 140.577 66.7633 140.226 70.0623C139.85 73.5992 138.716 76.1691 136.821 77.7539C134.928 79.3479 132.391 79.9379 129.212 79.524C126.248 79.1356 124.118 77.9964 122.824 76.1064L122.815 76.1085ZM133.93 74.9925C134.334 74.2292 134.651 73.4579 134.886 72.6583C135.111 71.8608 135.279 70.9515 135.391 69.9304C135.538 68.5242 135.539 67.3656 135.387 66.4656C135.235 65.5657 134.827 64.8529 134.178 64.3137C133.529 63.7745 132.559 63.4284 131.265 63.2661C129.891 63.0847 128.697 63.1301 127.691 63.3912C127.286 64.1545 126.966 64.9167 126.746 65.6938C126.525 66.4709 126.35 67.3915 126.238 68.4512C126.091 69.8573 126.09 71.016 126.242 71.9159C126.394 72.8158 126.802 73.5287 127.451 74.0679C128.1 74.607 129.07 74.9532 130.366 75.1245C131.741 75.3059 132.935 75.2605 133.939 74.9903L133.93 74.9925Z" fill="#532826"/>
<path d="M151.256 86.0644C150.91 85.5206 150.722 84.8519 150.692 84.0584L150.495 80.5845C150.457 79.9087 150.398 79.4117 150.335 79.0891C150.272 78.7665 150.109 78.4199 149.847 78.0585C149.584 77.697 149.157 77.356 148.561 77.0264L147.508 76.4981L144.415 83.0102L140.059 80.8249L148.416 63.2274C150.453 63.5194 152.652 64.2645 155.008 65.4445C157.43 66.657 159.082 68.0543 159.962 69.618C160.841 71.1818 160.857 72.895 159.975 74.7278C159.386 75.9595 158.546 76.8751 157.455 77.4748C156.365 78.0744 155.062 78.3586 153.555 78.325L153.432 78.5862C153.943 79.0326 154.331 79.5181 154.612 80.0294C154.885 80.5428 155.113 81.1825 155.277 81.9438L155.891 85.2307L156.931 86.0805L155.762 88.5417C155.13 88.4427 154.25 88.1139 153.12 87.546C152.219 87.0968 151.6 86.5992 151.261 86.0441L151.256 86.0644ZM153.165 74.9459C154.137 74.7798 154.881 74.1574 155.386 73.081C155.761 72.277 155.776 71.5884 155.412 71.0103C155.047 70.4322 154.302 69.8491 153.172 69.2813C152.51 68.9485 151.879 68.7045 151.271 68.5515L149.18 72.9514L153.156 74.9481L153.165 74.9459Z" fill="#532826"/>
<path d="M92.2082 173.167C91.8309 172.65 91.5891 171.995 91.4941 171.207L91.036 167.748C90.9419 167.076 90.8557 166.586 90.7662 166.27C90.6857 165.952 90.4887 165.623 90.202 165.277C89.9154 164.931 89.4589 164.626 88.8392 164.35L87.7483 163.899L85.1581 170.637L80.6509 168.787L87.6475 150.573C89.692 150.709 91.932 151.28 94.3764 152.284C96.8747 153.314 98.6248 154.572 99.6199 156.069C100.615 157.566 100.752 159.269 100.02 161.172C99.5274 162.448 98.7596 163.423 97.7191 164.107C96.6785 164.791 95.4009 165.175 93.8951 165.257L93.794 165.533C94.334 165.943 94.7601 166.39 95.0747 166.884C95.3892 167.377 95.6598 167.997 95.8866 168.743L96.7438 171.981L97.848 172.748L96.8718 175.297C96.2336 175.248 95.3319 174.982 94.1669 174.5C93.2354 174.117 92.581 173.666 92.2036 173.149L92.2082 173.167ZM93.2789 161.923C94.233 161.684 94.9245 161.007 95.3533 159.891C95.6743 159.062 95.6315 158.368 95.2271 157.819C94.8226 157.27 94.0356 156.745 92.8617 156.265C92.1748 155.986 91.5266 155.785 90.9215 155.68L89.1712 160.229L93.2766 161.914L93.2789 161.923Z" fill="#532826"/>
<path d="M103.644 174.549C102.238 172.744 101.606 170.174 101.745 166.859C101.897 163.299 102.863 160.663 104.65 158.95C106.437 157.237 108.92 156.476 112.123 156.682C115.103 156.873 117.301 157.87 118.707 159.675C120.113 161.48 120.744 164.05 120.606 167.366C120.453 170.925 119.488 173.561 117.701 175.274C115.914 176.987 113.43 177.748 110.228 177.543C107.247 177.351 105.05 176.354 103.644 174.549ZM114.65 172.706C115.01 171.915 115.273 171.118 115.449 170.313C115.623 169.499 115.733 168.585 115.777 167.56C115.835 166.137 115.762 164.987 115.547 164.102C115.333 163.217 114.891 162.522 114.207 162.03C113.523 161.538 112.539 161.253 111.237 161.17C109.857 161.077 108.666 161.209 107.685 161.532C107.325 162.323 107.059 163.111 106.888 163.895C106.716 164.68 106.602 165.614 106.56 166.686C106.503 168.109 106.575 169.26 106.79 170.145C107.004 171.029 107.446 171.724 108.13 172.216C108.815 172.708 109.798 172.993 111.1 173.076C112.478 173.16 113.671 173.038 114.661 172.713L114.65 172.706Z" fill="#532826"/>
<path d="M127.757 174.195C125.849 172.955 124.405 170.735 123.445 167.54C122.416 164.111 122.45 161.285 123.555 159.051C124.659 156.817 126.742 155.265 129.799 154.376C132.653 153.545 135.031 153.756 136.947 154.994C138.855 156.234 140.299 158.453 141.259 161.648C142.288 165.078 142.254 167.904 141.15 170.137C140.045 172.371 137.962 173.924 134.905 174.813C132.051 175.643 129.673 175.433 127.757 174.195ZM137.443 168.722C137.517 167.855 137.502 167.009 137.405 166.174C137.301 165.35 137.1 164.443 136.802 163.453C136.389 162.085 135.938 161.016 135.449 160.246C134.96 159.476 134.31 158.966 133.511 158.733C132.712 158.501 131.691 158.553 130.446 158.92C129.121 159.306 128.056 159.822 127.241 160.462C127.167 161.329 127.179 162.166 127.27 162.974C127.369 163.78 127.573 164.696 127.882 165.731C128.295 167.099 128.746 168.168 129.235 168.938C129.724 169.708 130.374 170.218 131.173 170.45C131.972 170.683 132.99 170.622 134.237 170.264C135.554 169.88 136.627 169.362 137.44 168.713L137.443 168.722Z" fill="#532826"/>
<path d="M146.739 152.56L141.496 156.182L138.892 152.373L153.367 142.385L155.971 146.195L150.727 149.818L159.652 162.879L155.673 165.619L146.748 152.558L146.739 152.56Z" fill="#532826"/>
<path d="M167.559 154.627L165.461 150.868C167.539 149.973 169.306 148.603 170.78 146.744C171.512 145.815 172.057 145.009 172.404 144.318C172.225 143.946 171.927 143.594 171.522 143.266C171.08 142.909 170.625 142.797 170.161 142.947C169.696 143.097 168.992 143.537 168.048 144.265C166.683 145.317 165.495 146.094 164.493 146.595C163.48 147.089 162.461 147.296 161.42 147.189C160.38 147.092 159.293 146.581 158.156 145.648C156.662 144.426 155.911 142.957 155.903 141.241C155.896 139.526 156.669 137.671 158.236 135.694C159.119 134.575 160.006 133.696 160.881 133.032C161.767 132.375 162.672 131.83 163.605 131.394L164.492 132.126C164.9 132.462 165.425 132.963 166.06 133.64C166.696 134.316 167.13 134.83 167.36 135.179L164.875 138.323L162.831 137.03C162.344 137.465 161.882 137.962 161.445 138.521C160.886 139.234 160.556 139.843 160.45 140.361C160.353 140.876 160.544 141.332 161.035 141.735C161.526 142.138 162.068 142.22 162.662 141.981C163.256 141.741 164.1 141.182 165.193 140.292C166.388 139.32 167.451 138.611 168.382 138.166C169.312 137.72 170.28 137.574 171.251 137.737C172.23 137.897 173.263 138.42 174.342 139.309C175.836 140.532 176.585 141.992 176.583 143.709C176.582 145.427 175.718 147.371 173.98 149.573C172.054 152.004 169.912 153.695 167.55 154.629L167.559 154.627Z" fill="#532826"/>
<path d="M81.9883 118.006L85.0299 117.269L91.2201 122.818L94.101 115.072L98.2104 114.076L93.6992 125.376L95.545 132.728L92.943 133.359L91.1336 126.152L81.9972 118.004L81.9883 118.006Z" fill="#532826"/>
<path d="M106.938 111.502C112.116 110.247 116.502 112.893 117.878 118.376C119.255 123.86 116.578 127.985 111.392 129.241C106.206 130.497 101.881 127.943 100.527 122.55C99.173 117.158 101.759 112.747 106.936 111.492L106.938 111.502ZM111.098 125.605C114.427 124.798 116.143 122.687 115.359 119.564C114.456 115.969 111.053 114.242 106.916 115.244C103.875 115.98 102.228 118.257 102.983 121.262C103.89 124.875 107.251 126.546 111.091 125.616L111.098 125.605Z" fill="#532826"/>
<path d="M121.149 118.001L118.872 108.93L121.472 108.301L123.514 116.437C124.514 120.419 126.426 121.784 129.635 121.006C132.163 120.394 133.427 118.76 132.55 115.268L130.266 106.17L132.839 105.547L135.098 114.545C136.505 120.15 134.4 123.585 129.98 124.656C125.803 125.668 122.549 123.618 121.14 118.003L121.149 118.001Z" fill="#532826"/>
<path d="M141.175 121.445L136.918 104.485L143.237 102.954C147.199 101.995 149.903 103.639 150.74 106.976C151.357 109.434 150.365 111.733 148.406 113.17L154.35 118.253L151.097 119.041L146.004 114.358L145.565 114.464C144.185 114.799 143.074 114.808 142.22 114.698L143.756 120.819L141.184 121.443L141.175 121.445ZM141.402 111.48C142.329 111.573 143.47 111.499 145.021 111.123C147.351 110.559 148.556 109.41 148.11 107.633C147.764 106.254 146.75 105.509 144.132 106.143L140.296 107.073L141.4 111.471L141.402 111.48Z" fill="#532826"/>
<path d="M171.865 99.7514L168.246 105.764L174.329 109.453L177.948 103.441L171.865 99.7514Z" fill="#532826"/>
<path d="M61.9938 126.853L58.375 132.865L64.4581 136.555L68.0769 130.543L61.9938 126.853Z" fill="#532826"/>
</svg>
