<svg width="208" height="233" viewBox="0 0 208 233" fill="none" xmlns="http://www.w3.org/2000/svg">
<path d="M163.931 68.3127C148.846 30.5849 106.034 12.229 68.3083 27.3137C30.5827 42.3984 12.2293 85.2114 27.3148 122.939L43.9785 164.614C59.064 202.341 101.876 220.697 139.602 205.613C177.327 190.528 195.681 147.715 180.595 109.987L163.931 68.3127Z" fill="#FF7200"/>
<path d="M77.9043 158.27L79.368 160.458L67.4035 168.497L65.9398 166.309L77.9043 158.27Z" fill="#F6E7E0"/>
<path d="M79.9136 161.891L82.2246 164.118L78.9908 176.43L79.1597 176.531L81.5086 173.668L86.5666 168.311L88.4615 170.144L78.5988 180.58L76.2878 178.353L79.5073 166.028L79.3383 165.927L76.9691 168.807L71.9282 174.139L70.0509 172.327L79.9136 161.891Z" fill="#F6E7E0"/>
<path d="M84.9094 182.729C84.4121 181.165 84.6497 179.339 85.641 177.253C86.6911 175.041 88.0296 173.564 89.6612 172.809C91.2927 172.053 93.129 172.186 95.1699 173.207C96.0869 173.665 96.8889 174.178 97.5871 174.75C98.2853 175.322 98.8026 175.854 99.1422 176.354L98.638 177.409C98.2823 178.155 97.8869 178.758 97.4409 179.213L95.6626 178.322L96.2041 176.637C95.731 176.236 94.9597 175.777 93.8835 175.242C92.941 174.766 92.0316 174.417 91.1631 174.191C90.5372 174.698 89.9582 175.299 89.4137 176.007C88.8692 176.716 88.4012 177.478 88.0052 178.304C87.2878 179.826 87.0722 181.075 87.373 182.065C87.6706 183.047 88.5032 183.882 89.8707 184.573C90.732 185.006 91.5143 185.312 92.2288 185.496L93.6841 182.436L90.7262 180.957L91.668 178.974L95.7865 181.039L96.4872 182.541L94.8557 185.979C94.5758 186.573 94.1246 186.993 93.4942 187.242C92.8638 187.491 92.1269 187.567 91.2739 187.447C90.4241 187.335 89.5264 187.037 88.576 186.564C86.6163 185.586 85.3862 184.31 84.8857 182.738L84.9094 182.729Z" fill="#F6E7E0"/>
<path d="M107.016 191.497C106.735 191.254 106.534 190.915 106.413 190.461L105.53 187.472C105.395 187.004 105.268 186.645 105.144 186.406C105.019 186.167 104.829 185.945 104.552 185.757C104.282 185.565 103.899 185.428 103.408 185.343L101.72 185.051L100.907 190.559L98.3661 190.12L100.423 176.182C101.916 175.993 103.4 176.031 104.861 176.282C106.696 176.6 108.026 177.182 108.859 178.043C109.692 178.905 110.007 180.064 109.783 181.537C109.504 183.413 108.455 184.608 106.625 185.134L106.591 185.343C106.954 185.562 107.246 185.81 107.478 186.09C107.707 186.362 107.896 186.715 108.06 187.143L109.143 190.24L110.177 190.632L109.967 192.072C109.52 192.137 108.944 192.112 108.254 191.985C107.714 191.891 107.309 191.725 107.028 191.483L107.016 191.497ZM105.642 183.495C106.09 183.319 106.449 183.056 106.714 182.719C106.979 182.382 107.153 181.914 107.242 181.321C107.365 180.501 107.206 179.885 106.77 179.462C106.338 179.047 105.576 178.743 104.499 178.563C103.793 178.442 103.189 178.392 102.698 178.418L102.044 182.878L105.645 183.503L105.642 183.495Z" fill="#F6E7E0"/>
<path d="M115.652 191.326C114.663 191.047 114.105 190.412 113.972 189.433L112.34 177.399L122.068 176.267L122.388 178.632L115.176 179.468L115.693 183.261L122.026 182.53L122.328 184.781L115.994 185.512L116.498 189.208C117.447 189.252 118.427 189.219 119.44 189.107C120.965 188.933 122.29 188.625 123.421 188.197L124.168 190.422C123.056 190.897 121.565 191.244 119.684 191.465C117.978 191.664 116.628 191.62 115.639 191.34L115.652 191.326Z" fill="#F6E7E0"/>
<path d="M123.324 176.17C124.404 175.325 125.699 174.582 127.2 173.944C129.47 172.974 131.344 172.849 132.816 173.579C134.289 174.309 135.51 175.77 136.477 177.972C137.14 179.496 137.494 180.843 137.522 182.012C137.56 183.187 137.177 184.267 136.374 185.254C135.577 186.237 134.253 187.131 132.412 187.922L129.086 189.345L123.319 176.181L123.324 176.17ZM131.647 185.63C133.239 184.947 134.482 184.233 135.384 183.488C135.368 182.908 135.255 182.247 135.049 181.491C134.843 180.736 134.572 179.978 134.241 179.207C133.742 178.066 133.216 177.195 132.666 176.603C132.116 176.012 131.486 175.674 130.77 175.594C130.053 175.514 129.193 175.686 128.199 176.115C127.632 176.358 127.045 176.663 126.442 177.022L130.441 186.143L131.631 185.637L131.647 185.63Z" fill="#F6E7E0"/>
<path d="M134.324 170.505L136.39 169.041L144.797 180.985L142.731 182.45L134.324 170.505Z" fill="#F6E7E0"/>
<path d="M149.203 177.036C148.274 177.449 147.455 177.298 146.739 176.612L137.951 168.159L144.644 161.045L146.369 162.709L141.403 167.98L144.173 170.646L148.532 166.016L150.175 167.591L145.817 172.222L148.515 174.823C149.263 174.259 149.991 173.6 150.686 172.86C151.741 171.746 152.558 170.652 153.142 169.594L155.101 170.868C154.557 171.957 153.639 173.185 152.344 174.561C151.172 175.813 150.118 176.638 149.19 177.051L149.203 177.036Z" fill="#F6E7E0"/>
<path d="M145.456 160.262L146.848 157.432L159.521 157.258L159.561 157.065L156.113 155.567L149.463 152.12L150.604 149.799L163.561 156.521L162.169 159.35L149.487 159.547L149.447 159.74L152.917 161.248L159.546 164.685L158.413 166.984L145.456 160.262Z" fill="#F6E7E0"/>
<path d="M153.969 145.449L153.219 150.05L150.864 149.609L152.775 137.859L155.131 138.3L154.381 142.901L166.29 145.138L165.87 147.689L153.961 145.452L153.969 145.449Z" fill="#F6E7E0"/>
<path d="M166.168 137.49L163.92 136.792C164.489 135.422 164.686 133.9 164.521 132.232C164.43 131.309 164.283 130.519 164.077 129.873C163.66 129.749 163.169 129.71 162.611 129.753C162.017 129.8 161.595 130.023 161.329 130.426C161.063 130.829 160.863 131.532 160.73 132.534C160.589 133.606 160.391 134.494 160.145 135.216C159.898 135.937 159.511 136.518 158.981 136.969C158.451 137.421 157.735 137.684 156.822 137.755C155.563 137.851 154.492 137.51 153.617 136.727C152.731 135.94 152.208 134.674 152.027 132.919C151.929 131.933 151.932 131.084 152.043 130.388C152.154 129.692 152.346 129.039 152.612 128.431L153.452 128.361C153.806 128.333 154.231 128.343 154.722 128.382C155.213 128.421 155.607 128.489 155.915 128.573L156.113 130.572L154.257 130.978C154.223 131.616 154.244 132.232 154.303 132.851C154.387 133.712 154.6 134.327 154.934 134.699C155.267 135.07 155.769 135.226 156.432 135.17C157.006 135.121 157.422 134.882 157.672 134.439C157.925 134.004 158.124 133.208 158.252 132.058C158.439 130.447 158.797 129.253 159.334 128.482C159.872 127.712 160.776 127.28 162.032 127.177C163.334 127.073 164.424 127.417 165.292 128.202C166.159 128.987 166.691 130.324 166.879 132.206C167.073 134.151 166.844 135.909 166.184 137.483L166.168 137.49Z" fill="#F6E7E0"/>
<path d="M41.6397 102.322L41.5523 99.0411L49.3692 96.0522L49.3658 95.886L41.3938 92.9487L41.3083 89.6955L55.7296 89.0657L55.7953 91.6842L48.5385 91.9754L44.8902 91.9706L44.8496 92.1635L51.9354 94.966L51.9911 96.9739L45.0559 99.8386L45.1039 100.025L48.7498 99.9559L56.0254 100.207L56.0911 102.825L41.6397 102.322Z" fill="#F6E7E0"/>
<path d="M55.9953 87.8043C53.9485 86.3396 51.8515 84.7736 49.7167 83.0922C47.5741 81.4138 45.6955 79.8456 44.0761 78.3985L45.4152 74.6026C47.5529 74.5791 49.9639 74.6433 52.6402 74.7985C55.3243 74.9506 57.8935 75.1573 60.3715 75.4092L59.6444 78.0328L57.9394 77.8392C56.686 77.7002 55.7512 77.6033 55.116 77.5465L53.2983 82.6856C54.747 83.7344 55.9975 84.61 57.0689 85.3141L55.9874 87.8074L55.9953 87.8043ZM52.7776 77.3233C50.1802 77.137 48.2893 77.026 47.1196 77.0031L46.8756 77.6858C48.0962 78.7128 49.6035 79.9061 51.391 81.2496L52.7776 77.3233Z" fill="#F6E7E0"/>
<path d="M50.5758 65.1191C51.1436 63.8627 51.9453 62.5977 52.9809 61.3242C54.5374 59.3989 56.1329 58.4256 57.7565 58.3994C59.38 58.3732 61.1199 59.1291 62.9649 60.6621C64.2433 61.7209 65.1548 62.7755 65.7151 63.8197C66.2755 64.8639 66.4307 66.0121 66.1728 67.2673C65.9149 68.5225 65.156 69.938 63.8895 71.4978L61.6079 74.3138L50.5679 65.1222L50.5758 65.1191ZM62.1865 69.7971C63.2735 68.4476 64.0489 67.2303 64.5094 66.137C64.2364 65.6214 63.8318 65.0739 63.3114 64.4884C62.7909 63.9029 62.2075 63.3422 61.5611 62.8064C60.5971 62.005 59.7483 61.4653 58.9957 61.1853C58.2431 60.9053 57.5362 60.8956 56.875 61.1563C56.206 61.4201 55.5322 61.9648 54.8523 62.8097C54.4624 63.289 54.0873 63.8276 53.7226 64.4365L61.3725 70.8065L62.1944 69.794L62.1865 69.7971Z" fill="#F6E7E0"/>
<path d="M71.38 63.3011C70.3787 63.4636 69.6118 63.1245 69.0795 62.2841L62.5782 51.9639L70.8284 46.777L72.1054 48.8019L65.9919 52.6442L68.0411 55.8984L73.4142 52.5246L74.6254 54.4546L69.2523 57.8283L71.25 61.0005C72.1164 60.6403 72.9818 60.1875 73.8494 59.6501C75.1421 58.8336 76.2069 57.9954 77.0422 57.1083L78.6396 58.8209C77.841 59.7308 76.6527 60.692 75.0603 61.6918C73.6077 62.6085 72.3814 63.1386 71.38 63.3011Z" fill="#F6E7E0"/>
<path d="M85.8299 41.2972L88.5347 41.05C88.9626 43.3669 89.3827 45.4169 89.7873 47.2031C90.1918 48.9893 90.6382 50.8335 91.1217 52.7468L91.3052 52.7489C91.8258 51.1938 92.7393 48.2642 94.0456 43.9602C93.9808 43.6878 93.9361 43.51 93.9161 43.4155C93.7475 42.7744 93.5993 42.116 93.4589 41.4545L96.0279 41.233C96.5159 43.4052 96.9896 45.2944 97.4347 46.8877C97.8831 48.489 98.4589 50.4498 99.1766 52.7828L99.4329 52.7841C100.272 48.9062 100.971 45.0186 101.544 41.1153L104.168 41.4121C103.296 46.0198 102.162 50.7956 100.749 55.7375L97.8297 55.725C96.7156 52.6173 95.8447 50.0189 95.2168 47.9298L94.9145 47.9279L94.7423 48.5171C93.7102 51.8752 92.938 54.2743 92.4381 55.7002L89.7558 55.6872C88.2415 50.894 86.9377 46.1017 85.8378 41.2941L85.8299 41.2972Z" fill="#F6E7E0"/>
<path d="M110.052 43.1966L112.511 43.994L108.405 57.8609L105.946 57.0635L110.052 43.1966Z" fill="#F6E7E0"/>
<path d="M120.327 49.9755L116.301 47.5765L117.483 45.5086L127.767 51.643L126.586 53.7108L122.56 51.3118L116.606 61.7625L114.373 60.4262L120.327 49.9755Z" fill="#F6E7E0"/>
<path d="M132.461 55.5279L134.169 57.5094L129.487 61.6103L133.45 66.1969L138.132 62.0959L139.841 64.0775L129.045 73.5327L127.337 71.5512L131.668 67.7564L127.705 63.1699L123.374 66.9646L121.665 64.9831L132.461 55.5279Z" fill="#F6E7E0"/>
<path d="M59.658 139.026L62.3516 132.676L55.9026 129.884L53.209 136.234L59.658 139.026Z" fill="#F6E7E0"/>
<path d="M145.235 99.4386L151.684 102.23L154.377 95.8801L147.928 93.0882L145.235 99.4386Z" fill="#F6E7E0"/>
<path d="M91.2182 79.9153C94.1114 80.3059 96.9039 83.8006 96.2894 89.7541C96.2206 90.3941 95.7871 90.7416 95.1515 90.6581C94.516 90.5746 94.1623 90.1291 94.2312 89.4891C94.6552 85.338 92.9517 82.2586 90.9929 81.9915C88.8902 81.7069 85.2412 84.9855 84.1552 94.0502C84.0078 95.3063 82.7269 109.852 81.4476 123.952L88.1725 120.593C88.7425 120.312 89.2796 120.49 89.5701 121.072C89.8605 121.654 89.6926 122.185 89.1258 122.473L81.2248 126.418C80.6318 133.031 79.9676 140.369 79.2415 148.41C79.2008 148.872 79.0123 149.104 78.6036 149.265C78.4228 149.337 78.3109 149.353 78.118 149.327C77.4779 149.254 77.1242 148.809 77.1819 148.164C77.7832 141.436 78.4236 134.376 79.0438 127.492L71.8635 131.077L71.777 131.112C71.2268 131.329 70.7402 131.14 70.4627 130.59C70.1722 130.008 70.3369 129.47 70.9069 129.189L79.2633 125.019C80.2066 114.589 81.9141 95.2689 82.0932 93.731C83.4074 82.7097 87.9186 79.4437 91.2164 79.8882L91.2182 79.9153Z" fill="#F6E7E0"/>
<path d="M100.517 129.457C99.6022 129.818 98.7282 130.033 97.8481 130.119C94.972 130.405 92.6062 129.084 91.6587 126.746C89.8939 122.391 92.2814 114.442 96.9992 112.581C99.153 111.731 101.226 112.488 102.092 114.355L102.144 114.483C102.773 116.034 102.647 118.478 100.336 121.198C98.8497 122.949 96.327 125.146 93.658 126.125C94.4255 127.928 96.3912 128.15 97.6036 128.025C103.391 127.448 106.714 120.927 107.603 116.821C107.741 116.189 108.214 115.891 108.843 116.043C109.473 116.196 109.779 116.681 109.642 117.313C108.274 123.648 104.656 127.815 100.522 129.446L100.517 129.457ZM93.1745 124.051C95.3519 123.192 97.5647 121.201 98.7492 119.811C100.553 117.692 100.438 115.781 100.21 115.219C100.107 114.989 99.5799 113.846 97.7969 114.549C94.7832 115.738 92.8835 120.737 93.1745 124.051Z" fill="#F6E7E0"/>
<path d="M137.56 104.984C138.2 105.068 138.551 105.528 138.482 106.173C137.921 111.202 135.309 112.842 133.365 112.73C131.907 112.642 130.527 111.793 129.154 109.829L128.513 113.187C127.438 116.923 125.436 119.501 123.166 120.398C122.493 120.663 121.891 120.761 121.219 120.689C120.361 120.607 118.815 120.189 117.863 117.974C116.766 121.382 115.09 123.587 113.215 124.328C112.677 124.54 112.203 124.615 111.657 124.56C110.631 124.45 108.447 123.769 107.847 118.909C107.541 116.476 107.824 114.138 108.256 110.469L108.47 108.663C108.539 108.018 108.987 107.673 109.63 107.765C110.273 107.857 110.621 108.309 110.551 108.954L110.333 110.771C109.923 114.179 109.651 116.522 109.918 118.699C110.231 121.194 111.262 122.405 111.819 122.466C112.768 122.568 114.9 120.716 116.06 116.693C116.394 115.523 116.776 113.633 117.098 111.663C117.178 110.321 117.359 108.819 117.584 106.971C117.66 106.343 117.742 105.684 117.823 104.978C117.9 104.33 118.34 103.988 118.983 104.08C119.5 104.157 119.835 104.464 119.897 104.935C119.911 105.014 119.917 105.096 119.914 105.181C119.913 106.65 119.604 109.354 119.179 111.954C119.115 113.064 119.128 114.051 119.247 115.023C119.483 116.876 120.304 118.497 121.396 118.609C122.83 118.753 125.358 116.566 126.513 112.574C127.029 110.79 127.182 107.044 126.98 101.558C126.954 100.904 127.34 100.499 127.987 100.487C128.625 100.478 129.043 100.874 129.069 101.528C129.277 107.367 131.754 110.542 133.446 110.641C134.64 110.712 136.067 109.025 136.413 105.914C136.483 105.269 136.922 104.927 137.57 105.008L137.56 104.984Z" fill="#F6E7E0"/>
</svg>
