<svg width="178" height="102" viewBox="0 0 178 102" fill="none" xmlns="http://www.w3.org/2000/svg">
<path d="M140.112 0.187256L36.9483 0.187256C33.5091 0.187256 30.2948 1.91348 28.3899 4.77729L1.74259 44.9236C-0.539198 48.3628 -0.539198 52.8404 1.74259 56.2796L28.3899 96.4259C30.2948 99.2898 33.5025 101.016 36.9483 101.016L140.112 101.016C143.551 101.016 146.765 99.2898 148.67 96.4259L175.317 56.2796C177.599 52.8404 177.599 48.3628 175.317 44.9236L148.67 4.77729C146.765 1.91348 143.558 0.187256 140.112 0.187256Z" fill="#EA2D23"/>
<path d="M37.0814 39.6921C36.6185 39.6921 36.1687 39.712 35.7256 39.7583C35.428 39.7913 35.1436 39.831 34.8658 39.8839C34.6938 39.9038 34.5351 39.9435 34.3698 39.9831C34.1978 40.0228 34.0192 40.0691 33.8539 40.1088C33.715 40.1485 33.5827 40.1816 33.4438 40.2279C33.3512 40.2477 33.2718 40.2808 33.1793 40.3138C33.0205 40.3734 32.8618 40.4263 32.7031 40.4924C32.5311 40.5586 32.3657 40.6313 32.1938 40.7107C32.1739 40.7173 32.1475 40.7239 32.1276 40.7437C32.0086 40.7967 31.8829 40.8562 31.7705 40.9157C31.6118 41.0017 31.4596 41.0811 31.3075 41.167C31.162 41.253 31.0231 41.339 30.8842 41.4316C30.7453 41.5176 30.6131 41.6036 30.4808 41.7028L30.3221 41.8152C30.1832 41.9144 30.0509 42.0202 29.912 42.1327C29.7599 42.2517 29.6078 42.384 29.4689 42.5163C29.3234 42.6419 29.1845 42.7808 29.0456 42.9263C28.9001 43.0652 28.7744 43.2041 28.6355 43.3562C28.5165 43.4951 28.3908 43.634 28.2784 43.7795C28.2387 43.8192 28.2122 43.8523 28.1858 43.8853C27.8485 44.3152 27.5376 44.7782 27.2466 45.2478C27.1474 45.4198 27.0482 45.5983 26.9622 45.7637C26.7902 46.0944 26.6315 46.4317 26.4794 46.769C26.4728 46.7888 26.4595 46.8087 26.4595 46.8285C26.3008 47.1923 26.1619 47.5561 26.0429 47.9198C25.9833 48.1116 25.9238 48.2968 25.8709 48.4886C25.818 48.6672 25.7651 48.859 25.7188 49.0574C25.6725 49.2492 25.6262 49.4344 25.5931 49.6262C25.5204 50.0032 25.4542 50.3868 25.4146 50.777C25.3947 50.9688 25.3683 51.1606 25.355 51.3524C25.3484 51.445 25.3418 51.531 25.3418 51.617H33.5695C33.5562 51.5575 33.5364 51.4979 33.5298 51.4384C33.424 50.9953 33.3248 50.5389 33.252 50.1024C33.133 49.4873 33.0271 48.8854 32.9478 48.3034C32.9147 48.0719 32.8882 47.8405 32.8618 47.6222C32.8023 47.0865 32.7626 46.5706 32.7427 46.0812C32.7361 45.8364 32.7295 45.6116 32.7295 45.3867C32.7295 42.9594 33.2983 41.2993 34.7269 41.2993C34.793 41.2993 34.8658 41.3059 34.9319 41.3125C34.9915 41.3192 35.051 41.3324 35.1105 41.3588C35.1568 41.3655 35.2097 41.3919 35.2626 41.4118C35.3222 41.4316 35.3817 41.458 35.4412 41.4977C35.4875 41.5176 35.5404 41.5506 35.5867 41.5837C35.8909 41.7623 36.2018 42.0467 36.4994 42.4104C36.5656 42.4832 36.6383 42.5692 36.6978 42.6552C36.7706 42.7411 36.8433 42.8271 36.9029 42.9197C36.969 43.0123 37.0418 43.0983 37.1013 43.1975C37.3725 43.6076 37.637 44.0573 37.9016 44.5666C38.0008 44.7451 38.0934 44.9303 38.1794 45.1155C38.5894 45.9621 38.9796 46.9145 39.3368 47.9198C39.3765 48.0323 39.4228 48.1513 39.4558 48.277C39.5418 48.4952 39.6146 48.7135 39.6807 48.945C39.7535 49.1765 39.8328 49.4146 39.899 49.646C40.0048 49.9767 40.104 50.3207 40.1966 50.658C40.2429 50.8167 40.2892 50.982 40.3223 51.1408C40.3685 51.3061 40.4148 51.4649 40.4479 51.6302L48.8409 51.6302C48.8542 51.4781 48.8542 51.3326 48.8542 51.1871C48.8542 45.1288 44.9321 39.712 37.0748 39.712L37.0814 39.6921Z" fill="#F6E7E0"/>
<path d="M73.9064 40.0226C76.208 42.1456 77.339 45.2079 77.339 48.6735C77.339 49.1564 77.3324 49.6392 77.3059 50.1352C77.2927 50.6048 77.2663 51.0744 77.2398 51.544C77.2332 51.5638 77.2332 51.5969 77.2332 51.6167H79.601L82.6235 40.0292H73.9064V40.0226ZM70.3151 40.0226L61.598 40.0226C63.8996 42.1456 65.024 45.2079 65.024 48.6735C65.024 49.1564 65.0173 49.6392 64.9909 50.1352C64.9777 50.6048 64.9512 51.0744 64.9248 51.544C64.9181 51.5638 64.9181 51.5969 64.9181 51.6167L73.212 51.6167L70.2886 40.1549L70.3217 40.0292L70.3151 40.0226ZM49.8848 40.0226L52.8478 51.6101H60.8969L57.9339 40.0226H49.8848Z" fill="#F6E7E0"/>
<path d="M97.5645 40.0226C97.7893 40.2342 98.001 40.4525 98.2126 40.6708C98.2192 40.684 98.2325 40.7038 98.2589 40.7171C98.4375 40.9089 98.6161 41.0941 98.7814 41.2925C98.8343 41.352 98.8872 41.4115 98.9335 41.471C99.0923 41.643 99.2444 41.8216 99.3767 42.0002C99.7471 42.4697 100.098 42.9459 100.415 43.4288C100.726 43.8983 101.004 44.3745 101.255 44.8574C101.394 45.1021 101.513 45.3402 101.625 45.5849C101.857 46.0677 102.062 46.5571 102.254 47.0598C102.34 47.278 102.419 47.4963 102.498 47.7146C102.591 47.9923 102.677 48.2767 102.763 48.5545C102.849 48.8191 102.915 49.0836 102.981 49.3548C103.047 49.6194 103.12 49.8905 103.173 50.1617C103.279 50.6379 103.371 51.1207 103.444 51.6035H105.58V40.016L97.5645 40.016V40.0226ZM84.6211 40.0226V51.6101H86.6383C86.6053 51.3787 86.5788 51.1406 86.5524 50.9091C86.5061 50.4924 86.4664 50.0823 86.4333 49.6723C86.4333 49.6392 86.4333 49.6061 86.4267 49.5731C86.3936 49.1696 86.3738 48.7794 86.3605 48.3759C86.301 47.1127 86.2878 45.8428 86.2878 44.5796V43.3097L90.481 51.6101H99.3436L93.5102 40.0226H84.6277H84.6211Z" fill="#F6E7E0"/>
<path d="M125.304 40.0226H108.77V51.6101H121.382V48.1378C121.032 48.495 120.681 48.8323 120.317 49.1432C119.226 50.0823 118.069 50.8165 116.825 51.2596V40.8493C117.678 41.1602 118.485 41.5438 119.272 42.0068C119.656 42.2316 120.046 42.483 120.423 42.7475C121.369 43.4155 122.275 44.1695 123.155 44.9896C124.034 45.8164 124.881 46.7225 125.708 47.6683C125.542 45.1351 125.304 42.6417 125.304 40.016V40.0226Z" fill="#F6E7E0"/>
<path d="M151.713 51.0613C151.706 50.9025 151.693 50.7372 151.673 50.5785C151.653 50.3602 151.62 50.142 151.587 49.9237C151.554 49.7583 151.534 49.5996 151.494 49.4343C151.461 49.2623 151.428 49.0771 151.382 48.9052C151.296 48.5414 151.203 48.1842 151.078 47.8337C151.025 47.6684 150.965 47.503 150.906 47.3377C150.846 47.1723 150.78 47.0004 150.701 46.8284C150.641 46.6829 150.582 46.544 150.509 46.4051C150.489 46.3654 150.469 46.3191 150.449 46.2861C150.383 46.1405 150.304 46.0017 150.231 45.8562C150.139 45.6974 150.059 45.5387 149.96 45.38C149.894 45.2675 149.814 45.1485 149.742 45.0228C149.676 44.9236 149.603 44.8244 149.537 44.7252C149.471 44.6326 149.411 44.5466 149.332 44.454C149.232 44.3085 149.127 44.1762 149.014 44.0439C148.908 43.8984 148.789 43.7662 148.657 43.6273C148.538 43.4884 148.406 43.3627 148.28 43.2238C148.161 43.1114 148.035 42.999 147.916 42.8733C147.744 42.7212 147.559 42.5691 147.381 42.4302C147.262 42.331 147.129 42.2384 147.004 42.1524C146.891 42.0664 146.772 41.987 146.646 41.901C146.488 41.7952 146.322 41.696 146.157 41.5968C144.464 40.6047 142.374 40.0227 139.907 40.0227H128.756V51.6102H136.805V41.3521H138.902C139.451 41.3521 139.953 41.5307 140.396 41.8481C140.469 41.9011 140.542 41.954 140.615 42.0201C140.681 42.073 140.76 42.1391 140.826 42.2185C140.892 42.278 140.952 42.3442 141.025 42.4235C141.289 42.7344 141.541 43.1048 141.765 43.5281C141.818 43.6273 141.871 43.7331 141.924 43.8455C141.944 43.8984 141.977 43.9514 141.997 44.0043C142.043 44.0969 142.083 44.1961 142.123 44.3019C142.175 44.4143 142.222 44.5334 142.268 44.6657C142.314 44.7847 142.361 44.917 142.407 45.0426C142.453 45.1683 142.5 45.3072 142.533 45.4461C142.638 45.7768 142.731 46.1339 142.81 46.5043C142.85 46.6498 142.877 46.7887 142.91 46.9342C142.943 47.0797 142.969 47.2186 142.996 47.3707C143.161 48.257 143.273 49.2028 143.333 50.1618C143.353 50.4793 143.373 50.8033 143.379 51.1274C143.379 51.2862 143.386 51.4449 143.386 51.6102L151.733 51.6102C151.726 51.4317 151.719 51.2465 151.699 51.0613H151.713Z" fill="#F6E7E0"/>
<path d="M48.8474 51.61C48.6755 57.7411 44.727 64.3021 37.0813 64.3021C29.4357 64.3021 25.3086 58.7133 25.3086 52.4897C25.3086 52.192 25.3152 51.901 25.3417 51.6034H33.5693C34.8524 57.0863 37.3723 62.7015 39.4491 62.7015C40.8777 62.7015 41.4465 60.9687 41.4465 58.5149C41.4465 56.5241 41.0695 54.0571 40.4544 51.6034L48.8474 51.6034V51.61Z" fill="#8DC8E8"/>
<path d="M79.6032 51.6104L76.3757 63.9717L68.3266 63.9717L66.5673 54.494L64.0738 63.9717H56.0247L52.8633 51.6104H60.9124L63.4389 61.4783C64.1267 58.3433 64.7021 54.8908 64.927 51.6104L73.2208 51.6104L75.7473 61.4783C76.4352 58.3433 77.0106 54.8908 77.2421 51.6104H79.6098H79.6032Z" fill="#8DC8E8"/>
<path d="M105.581 51.6102V63.9716H96.7384L90.4883 51.6102H99.3575L103.921 60.6845V59.4146C103.921 56.8286 103.862 54.1896 103.445 51.6102H105.581Z" fill="#8DC8E8"/>
<path d="M92.6391 63.9783H84.623V51.6169H86.6403C87.2289 56.002 88.7501 60.2679 92.6391 63.9783Z" fill="#8DC8E8"/>
<path d="M126.11 63.9782H108.775V51.6168H121.388V55.1354C119.959 53.7002 118.425 52.6684 116.831 52.0335V62.8141C120.363 62.1461 123.419 60.1553 125.714 56.3259C125.714 58.8193 125.852 60.8564 126.117 63.9782H126.11Z" fill="#8DC8E8"/>
<path d="M151.754 52.0005C151.754 57.9861 147.832 63.9783 139.915 63.9783H128.764V51.6169H136.813V62.6489H138.916C141.912 62.6489 143.407 57.2983 143.407 51.9741C143.407 51.855 143.407 51.7426 143.4 51.6169L151.747 51.6169C151.754 51.7426 151.754 51.8749 151.754 52.0005Z" fill="#8DC8E8"/>
<path d="M55.7246 20.7234L58.0461 20.5051C58.3768 22.4695 58.7075 24.2089 59.0249 25.7235C59.3424 27.2381 59.6996 28.8056 60.0898 30.4193H60.2485C60.7181 29.0966 61.5448 26.6097 62.7287 22.9523C62.6758 22.7274 62.6427 22.5753 62.6295 22.4893C62.4972 21.9403 62.3782 21.3914 62.2724 20.8292L64.4748 20.6308C64.865 22.4761 65.2354 24.07 65.5991 25.4259C65.9629 26.7817 66.4259 28.4484 67.0013 30.4193H67.2195C67.9934 27.119 68.6548 23.8187 69.2037 20.5051L71.4458 20.7432C70.6323 24.652 69.5807 28.713 68.3042 32.9194H65.7976C64.8915 30.2871 64.1838 28.0846 63.6745 26.3121H63.4166L63.2578 26.8148C62.3253 29.672 61.6308 31.7091 61.1745 32.9194H58.8728C57.6426 28.8585 56.5976 24.7975 55.7312 20.7234H55.7246Z" fill="#F6E7E0"/>
<path d="M74.0713 31.5304C73.1982 30.4986 72.7617 28.9708 72.7617 26.9536C72.7617 24.7247 73.2181 23.0646 74.1242 21.9799C75.0303 20.8953 76.4523 20.3463 78.3901 20.3463C81.8757 20.3463 83.6151 22.3966 83.6151 26.4972C83.6151 28.7129 83.1587 30.3664 82.246 31.451C81.3333 32.5357 79.9047 33.0847 77.9735 33.0847C76.2538 33.0847 74.9509 32.5688 74.0779 31.5304H74.0713ZM80.6124 30.697C81.1481 29.4801 81.4127 28.197 81.4127 26.8345C81.4127 25.7895 81.3135 24.9496 81.1151 24.308C80.9166 23.6665 80.5727 23.1903 80.0833 22.8662C79.5939 22.5421 78.9192 22.3834 78.0528 22.3834C77.0674 22.3834 76.2803 22.5024 75.6917 22.7405C75.1956 23.8649 74.9509 25.148 74.9509 26.6031C74.9509 27.648 75.0567 28.488 75.2618 29.1362C75.4668 29.7843 75.8173 30.2671 76.3001 30.578C76.7896 30.8889 77.4576 31.0476 78.3108 31.0476C79.2566 31.0476 80.0238 30.9285 80.6124 30.6838V30.697Z" fill="#F6E7E0"/>
<path d="M86.3407 20.5446H89.1251L91.6252 27.3106H91.7641L94.284 20.5446H97.0486L97.5314 32.9191H95.3091L95.0909 26.6889L95.1107 23.5671L94.952 23.5274L92.5511 29.5328H90.8514L88.4505 23.5274L88.2918 23.5671L88.3315 26.6889L88.0934 32.9191H85.8711L86.3539 20.5446H86.3407Z" fill="#F6E7E0"/>
<path d="M101.468 32.602C100.661 32.2713 100.258 31.6827 100.258 30.8427V20.5515H108.691V22.5754H102.44V25.8228H107.93V27.7474H102.44V30.9089C103.241 31.0411 104.081 31.1073 104.96 31.1073C106.283 31.1073 107.447 30.9816 108.466 30.7303L108.843 32.6748C107.844 32.9658 106.528 33.1179 104.901 33.1179C103.419 33.1179 102.275 32.9526 101.468 32.6152V32.602Z" fill="#F6E7E0"/>
<path d="M111.375 20.5448H114.08L119.226 30.1151L119.384 30.0754L119.166 26.8941V20.5448H121.388V32.9194H118.683L113.518 23.3491L113.359 23.3888L113.577 26.5899V32.9194H111.375V20.5448Z" fill="#F6E7E0"/>
<path d="M92.4905 76.9036L88.5293 72.9424L84.5681 76.9036L88.5293 80.8648L92.4905 76.9036Z" fill="#8DC8E8"/>
<path d="M106.104 76.9049L102.143 72.9437L98.1814 76.9049L102.143 80.8661L106.104 76.9049Z" fill="#8DC8E8"/>
<path d="M78.8792 76.9089L74.918 72.9478L70.9568 76.9089L74.918 80.8701L78.8792 76.9089Z" fill="#8DC8E8"/>
</svg>
