<svg id="Capa_1" data-name="Capa 1" xmlns="http://www.w3.org/2000/svg" viewBox="0 0 141 78"><defs><style>.cls-1{fill:#f6e7e0;}.cls-2{fill:#8dc8e8;}</style></defs><path class="cls-1" d="M111.36,44.83c5.2-20.39-6.93-38.44-6.93-38.44C97.79-2.71,76-1.78,69.53,8.08A3.39,3.39,0,0,1,67,9.6C61.22,10,56.38,8.2,55,1.9A1.6,1.6,0,0,0,54.15.81,7.66,7.66,0,0,0,47.43.74a1.5,1.5,0,0,0-.86,1.4c0,2.67.79,10.34,7.92,15,4,2.63,9.73,3,14.5,3a2.85,2.85,0,0,1,2.89,2.3c.86,4.87.91,10.59-1.51,15.84-3.24,7-10.72,8.21-16,8.1a3.72,3.72,0,0,1-2.28-.86c-8.29-6.8-21.75-2.64-23.6,8.38a32.68,32.68,0,0,0,0,6.56,107.44,107.44,0,0,0,2.66,15.6,1.62,1.62,0,0,0,.92,1.12,8.4,8.4,0,0,0,6.9.17,1.54,1.54,0,0,0,1-1.59,161.86,161.86,0,0,1-1-16.63,3.78,3.78,0,0,1,1.2-2.91c2-1.54,4.48-.58,5.94,1.88.83,4.41,2.66,9,6.07,12.11A25.17,25.17,0,0,0,66,76.41C87.14,79.12,105.77,66.76,111.36,44.83Z"/><path class="cls-2" d="M65.64,31.51c0-.71-.32-1-1.07-1.14L64,30.29l-1-.12a1.33,1.33,0,0,1-.34-.1.37.37,0,0,1-.17-.48,3.24,3.24,0,0,1,.4-.57c.29-.36.59-.72.86-1.09a1,1,0,0,0-.1-1.36c-.32-.34-.67-.65-1-1a1.07,1.07,0,0,0-.19-.13,1,1,0,0,0-1-.05c-.2.11-.39.25-.58.38l-1,.78a2.38,2.38,0,0,1-.31.17.4.4,0,0,1-.48-.22,3.15,3.15,0,0,1-.11-.44c-.07-.46-.11-.92-.18-1.37a2.21,2.21,0,0,0-.15-.56.89.89,0,0,0-.61-.5,1.34,1.34,0,0,0-.35,0H56.17a1,1,0,0,0-.23,0,.9.9,0,0,0-.69.56,3.31,3.31,0,0,0-.12.45c-.06.41-.1.84-.17,1.25a5.67,5.67,0,0,1-.1.57.41.41,0,0,1-.56.25,3.73,3.73,0,0,1-.39-.25c-.38-.28-.74-.58-1.12-.85a3.15,3.15,0,0,0-.51-.28.8.8,0,0,0-.69,0,1.33,1.33,0,0,0-.3.18c-.36.34-.73.7-1.09,1.06a1.42,1.42,0,0,0-.2.28.75.75,0,0,0,0,.67,1.45,1.45,0,0,0,.21.41c.28.37.57.73.86,1.09l.34.47a.79.79,0,0,1,.06.22.45.45,0,0,1-.16.3,1.41,1.41,0,0,1-.44.14c-.51.06-1,.11-1.53.18a1.88,1.88,0,0,0-.56.16.84.84,0,0,0-.47.49,1.23,1.23,0,0,0-.08.33,8.35,8.35,0,0,0,0,1.5s0,.07,0,.11a.94.94,0,0,0,.73.82,7.21,7.21,0,0,0,.81.14l1.17.14a2.67,2.67,0,0,1,.34.11.37.37,0,0,1,.17.39,1.48,1.48,0,0,1-.15.31c-.29.36-.59.72-.87,1.09a3.92,3.92,0,0,0-.39.58.85.85,0,0,0,0,.87l.06.1a8,8,0,0,0,1.25,1.22,1,1,0,0,0,1.1.08,3.17,3.17,0,0,0,.49-.32c.32-.23.62-.47.93-.71a3.77,3.77,0,0,1,.39-.26,1.41,1.41,0,0,1,.22-.06.38.38,0,0,1,.3.16,1.24,1.24,0,0,1,.12.32c.07.45.11.91.18,1.37a4,4,0,0,0,.14.67.89.89,0,0,0,.66.6,2,2,0,0,0,.24,0,9.77,9.77,0,0,0,1.53,0,1.6,1.6,0,0,0,.23,0,.91.91,0,0,0,.69-.58,2.52,2.52,0,0,0,.16-.67c0-.45.1-.91.17-1.37a1.42,1.42,0,0,1,.11-.33.36.36,0,0,1,.39-.18,1.77,1.77,0,0,1,.31.15l1.12.85a4.56,4.56,0,0,0,.59.38.88.88,0,0,0,.9,0,1.27,1.27,0,0,0,.19-.13l1.09-1a1.08,1.08,0,0,0,.2-.29.81.81,0,0,0,0-.77,2,2,0,0,0-.23-.4c-.26-.34-.54-.66-.8-1a5.74,5.74,0,0,1-.35-.47c-.17-.27,0-.53.3-.6a5.4,5.4,0,0,1,.58-.1l1.06-.12a3.61,3.61,0,0,0,.57-.12.91.91,0,0,0,.65-.75,3.64,3.64,0,0,0,0-.57c0-.31,0-.61,0-.92Z"/></svg>