<?xml version="1.0" encoding="utf-8"?>
<!-- Generator: Adobe Illustrator 26.2.1, SVG Export Plug-In . SVG Version: 6.00 Build 0)  -->
<svg version="1.1" id="Capa_1" xmlns="http://www.w3.org/2000/svg" xmlns:xlink="http://www.w3.org/1999/xlink" x="0px" y="0px"
	 viewBox="0 0 46 24" style="enable-background:new 0 0 46 24;" xml:space="preserve">
<style type="text/css">
	.st0{fill:#532826;}
</style>
<path class="st0" d="M18,6c0-3.6-2.6-6-6.5-6S5,2.4,5,6H0v18h23V6H18z M11.5,2C13.7,2,16,3.1,16,6H7C7,3.1,9.3,2,11.5,2z M21,11H2v2
	h19v9H2V8h19V11z"/>
<polygon class="st0" points="41,12 35,12 35,6 33,6 33,12 27,12 27,14 33,14 33,20 35,20 35,14 41,14 "/>
</svg>
