<svg width="80" height="80" viewBox="0 0 80 80" fill="none" xmlns="http://www.w3.org/2000/svg">
<path fill-rule="evenodd" clip-rule="evenodd" d="M54.2306 10.6326C66.5557 5.63525 74.3623 13.4447 69.3677 25.77C68.8136 27.1384 69.4406 28.7252 70.8011 29.3002C83.0663 34.4795 83.0663 45.5225 70.8011 50.7018C69.4406 51.2767 68.8136 52.8635 69.3677 54.2319C74.3649 66.5573 66.5557 74.3641 54.2306 69.3694C52.8623 68.8153 51.2755 69.4423 50.7006 70.8027C45.5213 83.0658 34.4787 83.0658 29.2995 70.8027C28.7246 69.4423 27.1377 68.8153 25.7694 69.3694C13.4444 74.3667 5.63777 66.5573 10.6323 54.2319C11.1864 52.8635 10.5595 51.2767 9.19899 50.7018C-3.06633 45.5225 -3.06633 34.4795 9.19899 29.3002C10.5595 28.7252 11.1864 27.1384 10.6323 25.77C5.63515 13.4447 13.4444 5.63782 25.7694 10.6326C27.1377 11.1866 28.7246 10.5597 29.2995 9.19922C34.4787 -3.06641 45.5213 -3.06641 50.7006 9.19922C51.2755 10.5597 52.8623 11.1866 54.2306 10.6326ZM35.1055 40.8408V60.1492H42.4561V40.8408H49.6718L50 33.8888H42.4561V28.8126C42.4561 26.8959 42.8576 25.741 45.3636 25.741C47.679 25.741 49.8008 25.7617 49.8008 25.7617L49.9647 19.2698C49.9647 19.2698 47.8842 19 45.0706 19C38.1214 19 35.1055 23.2849 35.1055 27.9509V33.8888H30V40.8408H35.1055Z" fill="#F6E7E0"/>
</svg>
