<svg width="70" height="30" viewBox="0 0 70 30" fill="none" xmlns="http://www.w3.org/2000/svg">
<path d="M66.0129 9.66377C67.8858 5.04174 64.9584 2.11323 60.3365 3.9872C59.8234 4.19499 59.2283 3.95989 59.0127 3.44969C57.0705 -1.1499 52.9295 -1.1499 50.9873 3.44969C50.7717 3.95989 50.1766 4.19499 49.6635 3.9872C45.0416 2.1142 42.1132 5.04174 43.9871 9.66377C44.1949 10.1769 43.9598 10.772 43.4496 10.9876C38.8501 12.9298 38.8501 17.0709 43.4496 19.0132C43.9598 19.2288 44.1949 19.8238 43.9871 20.337C42.1141 24.959 45.0416 27.8875 49.6635 26.0135C50.1766 25.8057 50.7717 26.0408 50.9873 26.551C52.9295 31.1497 57.0705 31.1497 59.0127 26.551C59.2283 26.0408 59.8234 25.8057 60.3365 26.0135C64.9584 27.8865 67.8868 24.959 66.0129 20.337C65.8051 19.8238 66.0402 19.2288 66.5504 19.0132C71.1499 17.0709 71.1499 12.9298 66.5504 10.9876C66.0402 10.772 65.8051 10.1769 66.0129 9.66377Z" fill="#8DC8E8"/>
<path fill-rule="evenodd" clip-rule="evenodd" d="M57.2312 8.48247C57.5982 8.83963 57.884 9.34587 58.0043 10.0247H52.3757C52.496 9.34587 52.7818 8.83963 53.1488 8.48247C53.6441 8.00044 54.3527 7.72656 55.19 7.72656C56.0273 7.72656 56.7359 8.00044 57.2312 8.48247ZM58.2773 7.40746C58.9501 8.06221 59.3849 8.95246 59.5207 10.0247H62.377V22.0824H47.9496V10.0247H50.8592C50.9951 8.95246 51.4298 8.06221 52.1027 7.40746C52.9198 6.61226 54.0244 6.22656 55.19 6.22656C56.3555 6.22656 57.4601 6.61226 58.2773 7.40746ZM60.877 15.0605V20.5824H49.4496V15.0605H60.877ZM60.877 13.5605H49.4496V11.5247H60.877V13.5605Z" fill="#532826"/>
<path d="M25.3178 9.3821L25.3177 9.38227C24.9616 10.2617 25.3575 11.2977 26.2585 11.6784L26.2586 11.6785C28.4093 12.5867 29.25 13.8997 29.25 15.0004C29.25 16.1011 28.4093 17.4141 26.2586 18.3223L26.2585 18.3223C25.3575 18.7031 24.9616 19.739 25.3177 20.6185L25.3178 20.6188C26.1938 22.7794 25.8593 24.3016 25.0803 25.0805C24.3013 25.8595 22.7788 26.194 20.6181 25.3184L20.618 25.3184C19.7385 24.9622 18.7026 25.3581 18.3219 26.2591L18.3218 26.2592C17.4137 28.4094 16.1007 29.25 15 29.25C13.8993 29.25 12.5863 28.4094 11.6782 26.2592L11.6781 26.2591C11.2974 25.3581 10.2615 24.9622 9.38202 25.3184L9.38172 25.3185C7.22115 26.1945 5.69898 25.8599 4.92011 25.0809C4.14115 24.3019 3.80664 22.7793 4.6822 20.6186L4.68227 20.6185C5.03839 19.739 4.64252 18.7031 3.74154 18.3223L3.74137 18.3223C1.59068 17.4141 0.75 16.1011 0.75 15.0004C0.75 13.8997 1.59068 12.5867 3.74137 11.6785L3.74154 11.6784C4.64252 11.2977 5.03839 10.2617 4.68227 9.38227L4.68215 9.38197C3.80615 7.22133 4.14071 5.69911 4.91968 4.9202C5.69872 4.14124 7.22123 3.80672 9.38185 4.6823L9.38202 4.68237C10.2615 5.03851 11.2974 4.64259 11.6781 3.74161L11.6782 3.74144C12.5864 1.59068 13.8993 0.75 15 0.75C16.1007 0.75 17.4136 1.59068 18.3218 3.74144L18.3219 3.74161C18.7026 4.64259 19.7385 5.03851 20.618 4.68237L20.6183 4.68225C22.7788 3.80623 24.301 4.1408 25.0799 4.91978C25.8588 5.69884 26.1934 7.22142 25.3178 9.3821Z" stroke="#F6E7E0" stroke-width="1.5"/>
</svg>
