<svg id="Capa_1" data-name="Capa 1" xmlns="http://www.w3.org/2000/svg" viewBox="0 0 141 78"><defs><style>.cls-1{fill:#f6e7e0;}.cls-2{fill:#8dc8e8;}</style></defs><path class="cls-1" d="M5.34,0H55.51a4.63,4.63,0,0,1,3,1.13l26.56,23a5.07,5.07,0,0,1,1.76,3L91.18,50a5.09,5.09,0,0,0,3.7,4l15.93,4.26a5.07,5.07,0,0,0,5.84-2.6l5.27-10.25A5.19,5.19,0,0,1,124.57,43l10.12-4a4.89,4.89,0,0,1,2.95-.25,3.6,3.6,0,0,1,2.67,2.14,5,5,0,0,1,.41,2.8l-1.41,10.38a5.09,5.09,0,0,1-3.44,4.14l-7.19,2.39a2.21,2.21,0,0,0-1.1,3.38l1.68,2.12a2.22,2.22,0,0,1,.27,2.07c-1.3,3.35-4,5.75-7.5,7.6a2.22,2.22,0,0,1-1.8.12L110,73.78a2.16,2.16,0,0,0-1.23-.09L89.65,77.88a5,5,0,0,1-3-.27L52.68,63.51a5.11,5.11,0,0,1-3.09-4L48,47.74a5.18,5.18,0,0,0-1.35-2.81L17.79,14.59a.74.74,0,0,0-1.18.89L32.09,42.13c.14,4.33-7.08,5.74-10,2.4A1.09,1.09,0,0,1,22,44.3L.9,7.48A5,5,0,0,1,5.34,0Z"/><path class="cls-2" d="M114.57,41.63a1.07,1.07,0,0,0-1.07-1.17l-.59-.09-1-.12a1.33,1.33,0,0,1-.34-.1.39.39,0,0,1-.18-.5,3.54,3.54,0,0,1,.41-.58c.29-.38.59-.74.86-1.13a1,1,0,0,0-.1-1.39c-.32-.35-.67-.67-1-1a1.15,1.15,0,0,0-.19-.14.93.93,0,0,0-1,0c-.2.12-.39.25-.58.39-.35.27-.68.54-1,.8a1.78,1.78,0,0,1-.3.17.39.39,0,0,1-.48-.22,3.69,3.69,0,0,1-.11-.45c-.07-.47-.11-.94-.18-1.41a2.28,2.28,0,0,0-.15-.57.85.85,0,0,0-.61-.51,1.34,1.34,0,0,0-.35-.05H105.1a1,1,0,0,0-.92.61,2.39,2.39,0,0,0-.12.46c-.06.43-.11.86-.17,1.29a5.86,5.86,0,0,1-.1.58.41.41,0,0,1-.56.26c-.14-.09-.27-.17-.39-.26-.38-.29-.74-.59-1.12-.87a2.65,2.65,0,0,0-.52-.29.78.78,0,0,0-.68,0,1.26,1.26,0,0,0-.3.18c-.37.36-.73.72-1.09,1.09a1.49,1.49,0,0,0-.2.29.8.8,0,0,0-.05.69,1.5,1.5,0,0,0,.21.42c.28.38.57.74.86,1.12.12.16.23.32.34.49a.51.51,0,0,1,0,.22.4.4,0,0,1-.15.3,1,1,0,0,1-.44.14l-1.53.19a2.75,2.75,0,0,0-.56.16.85.85,0,0,0-.47.51,1.3,1.3,0,0,0-.08.34,8.8,8.8,0,0,0,0,1.54.41.41,0,0,0,0,.11.94.94,0,0,0,.72.84,7.85,7.85,0,0,0,.82.15c.39,0,.78.08,1.17.14a2.67,2.67,0,0,1,.34.11.39.39,0,0,1,.17.4,1.57,1.57,0,0,1-.15.32c-.29.37-.59.74-.87,1.12a4,4,0,0,0-.39.59.91.91,0,0,0,0,.9l.06.1A7.78,7.78,0,0,0,100.29,49a.94.94,0,0,0,1.1.09,4.2,4.2,0,0,0,.49-.33c.32-.24.62-.49.93-.73a2.65,2.65,0,0,1,.39-.26.81.81,0,0,1,.22-.07.38.38,0,0,1,.3.16,1.46,1.46,0,0,1,.12.33c.07.47.11.94.18,1.41a4.22,4.22,0,0,0,.14.69.89.89,0,0,0,.66.61,1,1,0,0,0,.24,0,9.77,9.77,0,0,0,1.53,0l.23,0a.92.92,0,0,0,.69-.59,2.3,2.3,0,0,0,.15-.69c.06-.47.11-.94.18-1.41a2.07,2.07,0,0,1,.1-.33.38.38,0,0,1,.4-.19,1.82,1.82,0,0,1,.31.16c.38.28.74.58,1.12.87a4,4,0,0,0,.59.39.86.86,0,0,0,.9,0,1.27,1.27,0,0,0,.19-.13l1.09-1.08a1.15,1.15,0,0,0,.2-.29.87.87,0,0,0,0-.8,2,2,0,0,0-.24-.4c-.25-.35-.53-.69-.8-1-.11-.16-.24-.31-.34-.48a.39.39,0,0,1,.3-.62,5.4,5.4,0,0,1,.58-.1l1.06-.12a3.9,3.9,0,0,0,.57-.13.89.89,0,0,0,.64-.77,2.83,2.83,0,0,0,0-.58c0-.32,0-.63,0-.95Z"/></svg>