<svg id="Capa_1" data-name="Capa 1" xmlns="http://www.w3.org/2000/svg" viewBox="0 0 817.51 148"><path d="M357.92,35.66c-.27-2.51-.56-5-.85-7.51h0c-1-8.82-2-17.65-2.45-26.87L280.13,4.54l4.74,107.9L363,109c-1.82-14-2.82-23.15-3.32-34.39-9.58,17.69-23,27.29-38.72,31l-2.14-48.55a61,61,0,0,1,21.15,13l-1.39-31.47c-6,6.73-12.53,12-19.91,15L316.56,6.7C332.09,11.57,345.33,22.55,357.92,35.66Z" style="fill:#f6e7e0"/><path d="M390,21.11l.07-5.7L436,109.13l39.9.49,1.33-108-36.14-.45c26.53,26,27.94,57.5,27.57,87.8l-.07,5.7L422.82,1,382.77.47l-1.33,108,36.15.44C391.05,82.92,389.64,51.4,390,21.11Z" style="fill:#f6e7e0"/><path d="M604.1,64.26c2-26.93-13.63-55.17-49.23-57.83L504.76,2.7l-8,107.7,50.11,3.73C582.43,116.79,602.09,91.18,604.1,64.26Zm-61.31,43.56-9.42-.71,7.14-95.73,9.42.7c13.47,1,18.42,25.29,16.64,49.23S556.25,108.82,542.79,107.82Z" style="fill:#f6e7e0"/><path d="M652.1,119.67,665.44,17.79l-36-4.71-14,107.08,74.51,9.76c.64-14.14,1.23-23.29,2.7-34.44C680.88,111.34,667.07,118.6,652.1,119.67Z" style="fill:#f6e7e0"/><path d="M83.42,54.22C81.17,45.63,78.92,37,77.22,28L5.41,41.37,25.22,147.53l35.69-6.65L51,87.94a61.09,61.09,0,0,1,22.76,9.94L68,66.92c-5,7.49-10.74,13.6-17.61,17.63L41.79,38.39c15.46,2.76,29.67,11.86,43.53,23.16C84.7,59.1,84.06,56.66,83.42,54.22Z" style="fill:#f6e7e0"/><path d="M776,67.59c-1.49,8.12-4,15.28-8.08,19.11L756.62,31.86l-39.39-7.23,17.31,66.92-8.18,44.56,35.7,6.55,9.32-50.75L812.1,42l-35.56-6.52C778,43.41,778.05,56.38,776,67.59Z" style="fill:#f6e7e0"/><path d="M144.18,76.05c4.53,3.29,7.37,10.44,10.46,18.2,5.82,14.63,12.51,31.43,32.91,28.76,13.24-1.73,21.51-14.77,19.92-27a37.29,37.29,0,0,0-2.61-9.49c-3.19,2.23-8.87,3.88-13.33,4.47-8.29,1.08-12.33-3.14-17.06-8.08-3.5-3.65-7.38-7.71-13.64-10.3C188.06,68,199.72,53,198,39.8c-1.83-14-18.7-26.14-48.15-22.28l-49.08,6.42,14,107.09,36-4.71Zm-6.66-50.87,7.14-.94c8-1,14.54,10.51,16,22C162,56.46,159.46,66.78,150.39,68l-7.14.94Z" style="fill:#f6e7e0"/><rect x="222.91" y="7.99" width="36.3" height="108" transform="translate(-4.39 20.65) rotate(-4.86)" style="fill:#f6e7e0"/></svg>