<svg width="449" height="111" viewBox="0 0 449 111" fill="none" xmlns="http://www.w3.org/2000/svg">
<path d="M5.26643 33.2224L24.3015 29.6905L29.4388 57.3779L40.6082 55.3055L35.4709 27.618L54.506 24.0861L65.0141 80.7195L45.979 84.2514L41.2212 58.6091L30.0518 60.6815L34.8096 86.3239L15.7745 89.8557L5.26643 33.2224Z" fill="#F6E7E0"/>
<path d="M116.818 73.8778L75.4779 79.1871L68.1406 22.0564L107.577 16.9916C108.382 23.2601 109.701 29.1399 110.873 35.1194C103.597 28.714 96.0682 23.4703 87.5976 21.5739L90.7873 46.4099C94.5713 44.4721 97.8057 41.395 100.7 37.5551L102.84 54.2182C98.99 51.2444 95.024 49.2534 91.0217 48.2349L94.3235 73.9438C102.531 71.2766 109.219 65.5782 113.522 55.7499C114.287 61.7011 115.226 66.5005 116.818 73.8778Z" fill="#F6E7E0"/>
<path d="M176.074 51.8734C176.679 53.5943 177.045 55.3324 177.166 57.0081C177.638 63.5511 172.826 70.2346 165.725 70.7468C148.968 71.9554 150.743 49.8505 144.093 44.3947L146.038 71.3646L126.728 72.7574L122.584 15.3067L148.916 13.4074C164.715 12.2679 173.321 19.2669 173.862 26.7674C174.374 33.869 167.705 41.4885 153.063 43.106C160.709 46.8055 161.096 54.3974 168.836 53.8391C171.23 53.6664 174.308 52.9632 176.074 51.8734ZM142.125 17.1056L143.817 40.5647L147.647 40.2884C152.514 39.9373 154.209 34.5214 153.812 29.0157C153.368 22.8716 150.263 16.5186 145.955 16.8293L142.125 17.1056Z" fill="#F6E7E0"/>
<path d="M185.783 11.3762L205.136 10.8607L206.67 68.4402L187.317 68.9558L185.783 11.3762Z" fill="#F6E7E0"/>
<path d="M251.86 68.6543L232.423 68.2996L233.438 12.7088C227.065 15.553 221.753 21.6171 216.661 28.8054C217.172 22.7337 217.842 16.7449 217.957 10.426L268.429 11.3471C268.313 17.666 268.764 23.6752 269.053 29.7615C264.226 22.3922 259.14 16.1384 252.875 13.0636L251.86 68.6543Z" fill="#F6E7E0"/>
<path d="M296.552 18.4975C293.395 28.285 290.215 39.4347 289.445 49.4852C289.402 50.0436 289.433 50.6878 289.39 51.2462L303.828 52.352L296.552 18.4975ZM295.366 13.031L314.67 14.5094L327.341 73.2486L308.037 71.7702L304.541 55.616L289.305 54.4491C289.467 60.7197 290.88 66.3641 294.477 70.7316L273.578 69.1309L295.366 13.031Z" fill="#F6E7E0"/>
<path d="M364.138 47.8429L386.021 50.7851L382.034 80.4383L370.379 78.8712L367.68 76.7325C364.919 78.0564 361.551 78.4915 357.586 77.9585C341.967 75.8584 334.455 60.8839 336.395 46.4538C338.346 31.9443 349.935 17.197 369.756 19.862C381.57 21.4504 387.315 27.9539 386.558 33.5832C385.94 38.1819 380.871 42.2628 371.677 42.8025C372.184 33.0229 367.025 23.3693 362.426 22.751C358.7 22.25 356.869 28.0579 355.91 35.1937C353.789 50.9717 357.03 69.4888 364.215 73.6836L364.492 71.6222C365.537 63.8521 366.423 56.0607 364.138 47.8429Z" fill="#F6E7E0"/>
<path d="M433.139 89.9438L392.192 82.1582L402.952 25.572L442.012 32.999C440.831 39.2077 440.261 45.2067 439.518 51.2544C434.59 42.9071 429.061 35.5853 421.597 31.1532L416.92 55.7524C421.119 55.085 425.148 53.1639 429.092 50.4121L425.954 66.9164C423.217 62.8943 420.065 59.7706 416.576 57.5601L411.735 83.0238C420.364 83.036 428.491 79.6953 435.633 71.6883C434.512 77.5827 433.915 82.4366 433.139 89.9438Z" fill="#F6E7E0"/>
</svg>
