<svg width="838" height="475" viewBox="0 0 838 475" fill="none" xmlns="http://www.w3.org/2000/svg">
<path d="M54.9061 204.547L63.5168 250.701C70.3944 246.671 76.1221 240.567 81.1323 233.071L86.9095 264.037C79.3859 258.879 71.7502 255.574 64.1496 254.093L74.0258 307.029L38.3415 313.687L18.5341 207.519L90.345 194.121C92.5183 205.77 95.6138 216.637 98.4418 227.706C84.5843 216.405 70.3747 207.307 54.9061 204.547Z" fill="#F6E7E0"/>
<path d="M217.982 252.71C219.303 255.865 220.178 259.079 220.587 262.202C222.183 274.398 213.906 287.433 200.669 289.166C169.435 293.256 170.346 251.686 157.304 242.199L163.886 292.47L127.894 297.182L113.872 190.097L162.953 183.67C192.402 179.814 209.273 191.976 211.104 205.957C212.837 219.194 201.185 234.184 173.955 238.808C188.67 244.899 190.223 259.068 204.649 257.179C209.111 256.594 214.795 254.943 217.982 252.71ZM150.644 191.333L156.369 235.06L163.508 234.125C172.581 232.937 175.162 222.614 173.819 212.352C172.319 200.9 165.814 189.347 157.783 190.398L150.644 191.333Z" fill="#F6E7E0"/>
<path d="M231.525 175.873L267.695 172.798L276.845 280.409L240.675 283.485L231.525 175.873Z" fill="#F6E7E0"/>
<path d="M376.066 275.164L297.991 278.593L293.252 170.697L367.731 167.426C368.251 179.264 369.793 190.458 371.043 201.814C358.455 188.703 345.211 177.724 329.682 172.851L331.742 219.755C339.116 216.729 345.643 211.488 351.654 204.767L353.036 236.237C346.309 230.076 339.212 225.733 331.894 223.202L334.026 271.755C349.779 268.061 363.171 258.464 372.754 240.776C373.248 252.015 374.249 261.13 376.066 275.164Z" fill="#F6E7E0"/>
<path d="M403.207 181.56L403.137 187.26C402.763 217.557 404.175 249.077 430.706 275.056L394.559 274.611L395.891 166.619L435.938 167.112L481.735 260.834L481.806 255.135C482.179 224.837 480.768 193.317 454.236 167.338L490.383 167.784L489.052 275.776L449.155 275.284L403.207 181.56Z" fill="#F6E7E0"/>
<path d="M559.953 280.287L509.843 276.549L517.878 168.848L567.989 172.586C603.59 175.243 619.232 203.485 617.223 230.41C615.214 257.335 595.555 282.943 559.953 280.287ZM546.489 273.266L555.912 273.969C569.375 274.973 577.903 251.392 579.689 227.459C581.474 203.525 576.517 179.239 563.055 178.235L553.631 177.532L546.489 273.266Z" fill="#F6E7E0"/>
<path d="M642.569 179.23L678.562 183.943L665.222 285.823C680.187 284.757 693.998 277.488 705.756 261.631C704.295 272.786 703.702 281.936 703.062 296.073L628.548 286.316L642.569 179.23Z" fill="#F6E7E0"/>
<path d="M730.35 190.785L769.743 198.013L781.03 252.851C785.088 249.021 787.622 241.861 789.111 233.746C791.169 222.533 791.11 209.56 789.66 201.668L825.216 208.193L784.497 258.063L775.183 308.815L739.479 302.263L747.656 257.707L730.35 190.785Z" fill="#F6E7E0"/>
<path d="M8.51558 63.0895L44.2064 56.4672L53.8388 108.381L74.7814 104.495L65.149 52.5814L100.84 45.9591L120.542 152.147L84.8517 158.769L75.9307 110.69L54.9882 114.575L63.9091 162.655L28.2183 169.277L8.51558 63.0895Z" fill="#F6E7E0"/>
<path d="M217.459 139.357L139.945 149.312L126.188 42.1917L200.131 32.6952C201.64 44.4487 204.115 55.4733 206.311 66.6849C192.67 54.6747 178.552 44.8429 162.67 41.2871L168.651 87.8547C175.745 84.2213 181.81 78.4518 187.237 71.2518L191.25 102.495C184.03 96.9193 176.594 93.1862 169.09 91.2766L175.281 139.481C190.669 134.48 203.21 123.795 211.279 105.367C212.712 116.526 214.472 125.525 217.459 139.357Z" fill="#F6E7E0"/>
<path d="M328.368 98.1221C329.503 101.349 330.189 104.608 330.415 107.75C331.3 120.018 322.278 132.549 308.963 133.51C277.545 135.776 280.872 94.3292 268.403 84.0997L272.051 134.668L235.845 137.28L228.075 29.5596L277.447 25.9985C307.07 23.8619 323.206 36.9851 324.22 51.0485C325.181 64.3639 312.676 78.6505 285.223 81.6834C299.559 88.62 300.285 102.855 314.798 101.808C319.286 101.484 325.056 100.166 328.368 98.1221ZM264.713 32.9326L267.885 76.9183L275.067 76.4004C284.193 75.7421 287.371 65.5872 286.626 55.264C285.795 43.7439 279.973 31.8319 271.894 32.4146L264.713 32.9326Z" fill="#F6E7E0"/>
<path d="M346.36 22.2031L382.647 21.2365L385.523 129.198L349.236 130.165L346.36 22.2031Z" fill="#F6E7E0"/>
<path d="M470.131 129.603L433.687 128.938L435.589 24.7054C423.64 30.0382 413.681 41.4084 404.134 54.8864C405.091 43.502 406.347 32.273 406.563 20.425L501.197 22.152C500.981 34.0001 501.825 45.2673 502.367 56.6791C493.318 42.8617 483.78 31.1357 472.033 25.3704L470.131 129.603Z" fill="#F6E7E0"/>
<path d="M553.71 35.5533C547.792 53.9049 541.828 74.8105 540.384 93.6553C540.304 94.7023 540.362 95.9102 540.282 96.9572L567.353 99.0305L553.71 35.5533ZM551.487 25.3036L587.681 28.0757L611.439 138.212L575.245 135.44L568.689 105.15L540.123 102.963C540.426 114.72 543.075 125.303 549.82 133.492L510.634 130.491L551.487 25.3036Z" fill="#F6E7E0"/>
<path d="M680.22 90.5582L721.251 96.0748L713.776 151.674L691.922 148.736L686.862 144.726C681.685 147.208 675.37 148.024 667.936 147.025C638.65 143.087 624.566 115.01 628.203 87.9536C631.861 60.7484 653.59 33.0971 690.755 38.0941C712.906 41.0723 723.677 53.2663 722.258 63.8213C721.099 72.4437 711.594 80.0955 694.356 81.1074C695.308 62.7708 685.633 44.6702 677.011 43.5109C670.024 42.5715 666.592 53.4613 664.793 66.8409C660.816 96.4247 666.893 131.144 680.365 139.01L680.885 135.144C682.844 120.575 684.505 105.967 680.22 90.5582Z" fill="#F6E7E0"/>
<path d="M809.388 169.467L732.613 154.869L752.787 48.7703L826.025 62.6958C823.811 74.3373 822.742 85.5854 821.349 96.9248C812.11 81.2736 801.742 67.5452 787.748 59.2349L778.978 105.359C786.85 104.107 794.406 100.505 801.8 95.3454L795.916 126.291C790.784 118.75 784.874 112.893 778.333 108.748L769.255 156.492C785.436 156.515 800.674 150.251 814.064 135.238C811.962 146.29 810.843 155.391 809.388 169.467Z" fill="#F6E7E0"/>
<path d="M181.784 328.966L187.374 375.582C194.5 372.008 200.612 366.289 206.099 359.135L209.85 390.411C202.678 384.775 195.273 380.979 187.785 379.007L194.197 432.474L158.155 436.796L145.296 329.564L217.826 320.867C219.237 332.632 221.619 343.677 223.721 354.907C210.628 342.729 197.041 332.726 181.784 328.966Z" fill="#F6E7E0"/>
<path d="M290.063 313.717C325.39 311.449 344.62 334.714 346.369 361.958C348.176 390.1 332.352 422.23 297.174 424.489C261.847 426.757 242.569 402.742 240.772 374.75C239.013 347.356 254.885 315.975 290.063 313.717ZM307.341 416.621C313.778 416.208 315.823 408.26 315.112 397.183C313.315 369.191 293.518 320.71 279.896 321.584C273.459 321.997 271.395 329.645 272.096 340.573C273.894 368.565 294.168 417.467 307.341 416.621Z" fill="#F6E7E0"/>
<path d="M413.922 309.576C449.322 309.506 467.07 333.921 467.124 361.221C467.18 389.421 449.391 420.506 414.141 420.576C378.741 420.646 360.992 395.481 360.936 367.431C360.882 339.981 378.672 309.646 413.922 309.576ZM424.777 413.355C431.227 413.342 433.762 405.537 433.74 394.437C433.684 366.387 416.937 316.77 403.287 316.797C396.837 316.81 394.301 324.315 394.323 335.265C394.378 363.315 411.577 413.381 424.777 413.355Z" fill="#F6E7E0"/>
<path d="M532.854 422.537L482.697 419.491L489.244 311.689L539.402 314.736C575.036 316.9 591.067 344.923 589.43 371.874C587.793 398.824 568.489 424.701 532.854 422.537ZM519.294 415.702L528.726 416.275C542.202 417.094 550.403 393.397 551.858 369.441C553.313 345.485 548.021 321.27 534.546 320.452L525.114 319.879L519.294 415.702Z" fill="#F6E7E0"/>
<path d="M608.428 353.912C610.192 339.016 628.548 320.496 658.935 324.094C683.365 326.987 689.858 338.481 688.606 349.057C687.812 355.76 679.237 361.844 663.296 362.524C663.528 346.54 656.897 331.103 647.512 329.992C642.895 329.445 639.718 335.866 638.906 342.718C636.437 363.573 688.516 375.328 685.199 403.333C683.435 418.229 665.098 436.6 634.71 433.001C610.281 430.108 599.319 418.086 600.571 407.51C601.365 400.807 609.922 394.872 625.863 394.192C625.631 410.175 636.749 425.992 646.133 427.104C650.751 427.65 653.91 421.378 654.722 414.526C657.209 393.523 605.13 381.767 608.428 353.912Z" fill="#F6E7E0"/>
</svg>
