<svg width="761" height="153" viewBox="0 0 761 153" fill="none" xmlns="http://www.w3.org/2000/svg">
<path d="M25.2054 73.8204L33.5744 97.4205C36.8631 94.7264 39.3737 91.035 41.3907 86.6698L47.0057 102.504C42.6138 100.411 38.3165 99.3039 34.1893 99.1547L43.7882 126.223L25.5416 132.694L6.29028 78.406L43.0098 65.3847C45.1221 71.3412 47.6553 76.809 50.0643 82.4057C41.8254 77.6032 33.5839 73.9899 25.2054 73.8204Z" fill="#F6E7E0"/>
<path d="M115.211 85.6196C116.169 87.1721 116.896 88.7926 117.371 90.4041C119.225 96.6966 115.947 104.251 109.117 106.264C93.0018 111.012 90.0296 89.0357 82.3709 85.1207L90.0132 111.058L71.4425 116.53L55.1631 61.2783L80.4868 53.8169C95.681 49.3401 105.58 54.3466 107.705 61.56C109.717 68.3897 104.823 77.2544 90.8615 81.9518C99.1197 83.9388 101.114 91.2742 108.558 89.081C110.86 88.4027 113.717 87.0605 115.211 85.6196ZM74.6382 58.8762L81.2856 81.4372L84.969 80.352C89.6501 78.9727 90.153 73.3201 88.5929 68.0252C86.8519 62.1163 82.4655 56.5699 78.3216 57.7909L74.6382 58.8762Z" fill="#F6E7E0"/>
<path d="M116.075 43.9838L134.875 39.36L148.631 95.2932L129.831 99.9169L116.075 43.9838Z" fill="#F6E7E0"/>
<path d="M200.531 84.2751L159.684 92.565L148.228 36.1158L187.194 28.2078C188.451 34.4015 190.193 40.1703 191.794 46.0492C184.074 40.1876 176.185 35.5031 167.599 34.2252L172.579 58.765C176.213 56.5582 179.216 53.2549 181.825 49.2154L185.166 65.6797C181.111 62.9926 177.011 61.2941 172.945 60.5682L178.101 85.9704C186.093 82.7157 192.351 76.5478 195.931 66.4337C197.124 72.3138 198.409 77.0327 200.531 84.2751Z" fill="#F6E7E0"/>
<path d="M207.159 32.688L207.596 35.6965C209.915 51.6892 213.276 68.1776 229.411 79.6609L210.33 82.4278L202.064 25.424L223.203 22.3586L255.113 67.9309L254.677 64.9224C252.358 48.9297 248.997 32.4413 232.862 20.958L251.942 18.1911L260.209 75.1949L239.149 78.2488L207.159 32.688Z" fill="#F6E7E0"/>
<path d="M298.056 71.6677L271.346 73.8592L266.636 16.4521L293.346 14.2606C312.322 12.7036 322.908 26.2834 324.086 40.6352C325.263 54.9869 317.033 70.1107 298.056 71.6677ZM290.38 69.0868L295.403 68.6746C302.579 68.0859 305.113 54.9546 304.067 42.1975C303.02 29.4403 298.392 17.0573 291.216 17.6461L286.193 18.0583L290.38 69.0868Z" fill="#F6E7E0"/>
<path d="M333.311 11.5583L352.665 11.0523L354.097 65.8336C361.892 64.0292 368.565 59.0532 373.442 49.7225C373.599 55.7204 374.047 60.5904 374.883 68.0911L334.817 69.1386L333.311 11.5583Z" fill="#F6E7E0"/>
<path d="M380.614 10.3545L401.967 10.8916L412.467 38.8446C414.287 36.4896 415.027 32.5069 415.138 28.1083C415.291 22.0303 414.182 15.2002 412.763 11.1633L432.037 11.6481L414.726 41.3021L414.034 68.8134L394.68 68.3266L395.288 44.1742L380.614 10.3545Z" fill="#F6E7E0"/>
<path d="M488.835 18.2231L486.283 43.1327C490.409 42.1078 494.259 39.8485 497.952 36.7688L496.24 53.4813C493.169 49.7087 489.76 46.8665 486.095 44.9631L483.169 73.5336L463.909 71.5606L469.779 14.2605L508.536 18.2309C507.892 24.518 507.838 30.5438 507.616 36.6329C502.23 28.7631 496.332 21.9666 488.835 18.2231Z" fill="#F6E7E0"/>
<path d="M547.055 22.9824C565.702 25.9404 572.982 40.2984 570.701 54.6786C568.344 69.5328 556.348 84.3968 537.78 81.4513C519.133 78.4933 511.915 63.7403 514.259 48.965C516.553 34.5058 528.487 20.0369 547.055 22.9824ZM543.991 78.5486C547.389 79.0876 549.384 75.1921 550.311 69.3452C552.655 54.5699 548.033 27.0257 540.843 25.8851C537.446 25.3461 535.476 29.0836 534.561 34.8515C532.217 49.6268 537.038 77.4457 543.991 78.5486Z" fill="#F6E7E0"/>
<path d="M612.109 35.3573C630.536 39.4675 636.911 54.2499 633.741 68.4606C630.467 83.1399 617.57 97.2302 599.221 93.1373C580.794 89.0271 574.506 73.8543 577.763 59.2531C580.95 44.9643 593.76 31.2644 612.109 35.3573ZM605.601 90.626C608.958 91.3749 611.191 87.6108 612.48 81.8328C615.737 67.2316 612.835 39.4535 605.73 37.8686C602.372 37.1197 600.174 40.7277 598.902 46.4276C595.646 61.0288 598.73 89.0934 605.601 90.626Z" fill="#F6E7E0"/>
<path d="M660.883 108.092L635.142 100.631L651.176 45.3079L676.917 52.7682C695.204 58.0683 700.262 74.5269 696.254 88.3578C692.245 102.189 679.17 113.392 660.883 108.092ZM654.627 102.947L659.468 104.35C666.384 106.354 673.427 94.9854 676.99 82.6913C680.553 70.3972 680.636 57.1779 673.721 55.1736L668.88 53.7706L654.627 102.947Z" fill="#F6E7E0"/>
<path d="M708.358 81.2722C711.021 73.7283 722.74 66.2422 738.13 71.674C750.502 76.0407 752.534 82.7814 750.644 88.1376C749.446 91.5324 744.271 93.6934 735.898 92.1801C737.89 83.8907 736.248 75.082 731.496 73.4046C729.157 72.5792 726.752 75.5479 725.527 79.0181C721.799 89.5796 747.52 101.797 742.514 115.979C739.851 123.523 728.158 130.934 712.768 125.502C700.396 121.135 696.101 113.596 697.991 108.239C699.19 104.845 704.337 102.759 712.711 104.272C710.718 112.562 714.65 122.094 719.403 123.771C721.741 124.597 724.12 121.703 725.345 118.233C729.099 107.596 703.379 95.3793 708.358 81.2722Z" fill="#F6E7E0"/>
</svg>
