<svg id="Capa_1" data-name="Capa 1" xmlns="http://www.w3.org/2000/svg" viewBox="0 0 817.51 128"><path d="M650.67,14.91c-30.39-3.6-48.75,14.92-50.51,29.82s12.33,25.2,25.44,34.77c11.38,8.32,22,16.08,20.85,25.84-.81,6.85-4,13.12-8.59,12.58-9.38-1.11-20.5-16.93-20.27-32.91-15.94.68-24.49,6.61-25.29,13.31-1.25,10.58,9.71,22.6,34.14,25.5,30.39,3.59,48.73-14.78,50.49-29.67,1.78-15-12.4-25.39-25.54-35-11.34-8.28-21.9-16-20.75-25.65.81-6.85,4-13.27,8.6-12.72,9.39,1.11,16,16.54,15.79,32.53,15.94-.68,24.51-6.77,25.31-13.47C681.59,29.3,675.1,17.8,650.67,14.91Z" style="fill:#f6e7e0"/><path d="M531.13,5.55,481,2.5l-6.54,107.81,50.15,3c35.64,2.17,54.94-23.71,56.58-50.66S566.77,7.71,531.13,5.55Zm12.46,54.71c-1.46,23.95-9.66,47.65-23.13,46.83l-9.44-.57,5.82-95.83,9.44.58C539.75,12.08,545,36.3,543.59,60.26Z" style="fill:#f6e7e0"/><path d="M405.65.39c-35.25.07-53,30.41-53,57.86.05,28.05,17.8,53.21,53.2,53.14s53-31.15,53-59.35C458.8,24.74,441.05.32,405.65.39Zm10.86,103.78c-13.2,0-30.4-50-30.46-78.09,0-10.95,2.52-18.46,9-18.47,13.65,0,30.39,49.59,30.45,77.64C425.49,96.35,423,104.16,416.51,104.17Z" style="fill:#f6e7e0"/><path d="M214,38.28h0c-1.69-8.71-3.37-17.44-4.47-26.6L137,20.38l12.86,107.23,36-4.32-6.41-53.47a61,61,0,0,1,22.06,11.41L197.83,50c-5.49,7.15-11.6,12.87-18.73,16.45l-5.59-46.62c15.26,3.76,28.85,13.76,41.94,25.94C215,43.24,214.51,40.76,214,38.28Z" style="fill:#f6e7e0"/><path d="M281.79,4.53c-35.17,2.26-51.05,33.64-49.29,61,1.8,28,21.08,52,56.4,49.74s51-34.39,49.2-62.53C336.35,25.53,317.12,2.26,281.79,4.53Zm17.28,102.91c-13.17.84-33.45-48.06-35.24-76-.7-10.93,1.36-18.58,7.8-19C285.25,11.52,305.05,60,306.84,88,307.55,99.07,305.51,107,299.07,107.44Z" style="fill:#f6e7e0"/></svg>